<svg width="377" height="80" viewBox="0 0 377 80" fill="none" xmlns="http://www.w3.org/2000/svg">
<rect width="377" height="80" rx="16" fill="white"/>
<path d="M34.75 23.6922L28.5925 22.9527L25.9967 17.25L23.401 22.9527L17.25 23.6922L21.7975 27.9626L20.5949 34.125L25.9967 31.0538L31.4051 34.125L30.2025 27.9626L34.75 23.6922Z" fill="#F2AE40"/>
<path d="M53.4117 34.125L48.0033 31.0526L42.5949 34.125L43.8041 27.9602L39.25 23.6948L45.401 22.955L47.9967 17.25L50.5925 22.955L56.75 23.6948L52.2025 27.9602L53.4117 34.125ZM48.0033 29.5264L51.5651 31.5458L50.7699 27.487L53.7665 24.6745L49.7119 24.1879L48.0033 20.4291L46.2947 24.1879L42.24 24.6745L45.2367 27.487L44.4415 31.5458L48.0033 29.5264Z" fill="#CDD0D5"/>
<path d="M75.4117 34.125L70.0033 31.0526L64.5949 34.125L65.8041 27.9602L61.25 23.6948L67.401 22.955L69.9967 17.25L72.5925 22.955L78.75 23.6948L74.2025 27.9602L75.4117 34.125ZM70.0033 29.5264L73.5651 31.5458L72.7699 27.487L75.7665 24.6745L71.7119 24.1879L70.0033 20.4291L68.2947 24.1879L64.24 24.6745L67.2367 27.487L66.4415 31.5458L70.0033 29.5264Z" fill="#CDD0D5"/>
<path d="M97.4117 34.125L92.0033 31.0526L86.5949 34.125L87.8041 27.9602L83.25 23.6948L89.401 22.955L91.9967 17.25L94.5925 22.955L100.75 23.6948L96.2025 27.9602L97.4117 34.125ZM92.0033 29.5264L95.5651 31.5458L94.7699 27.487L97.7665 24.6745L93.7119 24.1879L92.0033 20.4291L90.2947 24.1879L86.24 24.6745L89.2367 27.487L88.4415 31.5458L92.0033 29.5264Z" fill="#CDD0D5"/>
<path d="M119.412 34.125L114.003 31.0526L108.595 34.125L109.804 27.9602L105.25 23.6948L111.401 22.955L113.997 17.25L116.592 22.955L122.75 23.6948L118.202 27.9602L119.412 34.125ZM114.003 29.5264L117.565 31.5458L116.77 27.487L119.767 24.6745L115.712 24.1879L114.003 20.4291L112.295 24.1879L108.24 24.6745L111.237 27.487L110.442 31.5458L114.003 29.5264Z" fill="#CDD0D5"/>
<path d="M133.972 22.2727V31H132.915V23.3807H132.864L130.733 24.7955V23.7216L132.915 22.2727H133.972ZM139.277 31.1193C138.692 31.1193 138.175 31.0156 137.726 30.8082C137.28 30.598 136.932 30.3097 136.682 29.9432C136.432 29.5739 136.308 29.1534 136.311 28.6818C136.308 28.3125 136.381 27.9716 136.528 27.6591C136.676 27.3437 136.878 27.081 137.134 26.8707C137.392 26.6577 137.68 26.5227 137.999 26.4659V26.4148C137.581 26.3068 137.249 26.0724 137.001 25.7116C136.754 25.348 136.632 24.9347 136.635 24.4716C136.632 24.0284 136.744 23.6321 136.972 23.2827C137.199 22.9332 137.511 22.6577 137.909 22.456C138.31 22.2543 138.766 22.1534 139.277 22.1534C139.783 22.1534 140.234 22.2543 140.632 22.456C141.03 22.6577 141.342 22.9332 141.57 23.2827C141.8 23.6321 141.916 24.0284 141.919 24.4716C141.916 24.9347 141.79 25.348 141.54 25.7116C141.293 26.0724 140.964 26.3068 140.555 26.4148V26.4659C140.871 26.5227 141.155 26.6577 141.408 26.8707C141.661 27.081 141.862 27.3437 142.013 27.6591C142.163 27.9716 142.24 28.3125 142.243 28.6818C142.24 29.1534 142.112 29.5739 141.859 29.9432C141.609 30.3097 141.261 30.598 140.815 30.8082C140.372 31.0156 139.859 31.1193 139.277 31.1193ZM139.277 30.1818C139.672 30.1818 140.013 30.1179 140.3 29.9901C140.587 29.8622 140.808 29.6818 140.964 29.4489C141.121 29.2159 141.2 28.9432 141.203 28.6307C141.2 28.3011 141.115 28.0099 140.947 27.7571C140.78 27.5043 140.551 27.3054 140.261 27.1605C139.974 27.0156 139.646 26.9432 139.277 26.9432C138.905 26.9432 138.572 27.0156 138.28 27.1605C137.99 27.3054 137.761 27.5043 137.594 27.7571C137.429 28.0099 137.348 28.3011 137.351 28.6307C137.348 28.9432 137.423 29.2159 137.577 29.4489C137.733 29.6818 137.956 29.8622 138.246 29.9901C138.536 30.1179 138.879 30.1818 139.277 30.1818ZM139.277 26.0398C139.589 26.0398 139.866 25.9773 140.108 25.8523C140.352 25.7273 140.544 25.5526 140.683 25.3281C140.822 25.1037 140.893 24.8409 140.896 24.5398C140.893 24.2443 140.824 23.9872 140.688 23.7685C140.551 23.5469 140.362 23.3764 140.121 23.2571C139.879 23.1349 139.598 23.0739 139.277 23.0739C138.95 23.0739 138.665 23.1349 138.42 23.2571C138.176 23.3764 137.987 23.5469 137.854 23.7685C137.72 23.9872 137.655 24.2443 137.658 24.5398C137.655 24.8409 137.722 25.1037 137.858 25.3281C137.997 25.5526 138.189 25.7273 138.433 25.8523C138.678 25.9773 138.959 26.0398 139.277 26.0398ZM144.626 29.8835C144.416 29.8835 144.235 29.8082 144.085 29.6577C143.934 29.5071 143.859 29.3267 143.859 29.1165C143.859 28.9062 143.934 28.7259 144.085 28.5753C144.235 28.4247 144.416 28.3494 144.626 28.3494C144.836 28.3494 145.017 28.4247 145.167 28.5753C145.318 28.7259 145.393 28.9062 145.393 29.1165C145.393 29.2557 145.358 29.3835 145.287 29.5C145.218 29.6165 145.126 29.7102 145.01 29.7812C144.896 29.8494 144.768 29.8835 144.626 29.8835ZM144.626 25.4688C144.416 25.4688 144.235 25.3935 144.085 25.2429C143.934 25.0923 143.859 24.9119 143.859 24.7017C143.859 24.4915 143.934 24.3111 144.085 24.1605C144.235 24.0099 144.416 23.9347 144.626 23.9347C144.836 23.9347 145.017 24.0099 145.167 24.1605C145.318 24.3111 145.393 24.4915 145.393 24.7017C145.393 24.8409 145.358 24.9688 145.287 25.0852C145.218 25.2017 145.126 25.2955 145.01 25.3665C144.896 25.4347 144.768 25.4688 144.626 25.4688ZM150.027 31.1193C149.385 31.1193 148.838 30.9446 148.387 30.5952C147.935 30.2429 147.59 29.733 147.351 29.0653C147.113 28.3949 146.993 27.5852 146.993 26.6364C146.993 25.6932 147.113 24.8878 147.351 24.2202C147.593 23.5497 147.939 23.0384 148.391 22.6861C148.846 22.331 149.391 22.1534 150.027 22.1534C150.664 22.1534 151.208 22.331 151.659 22.6861C152.114 23.0384 152.461 23.5497 152.699 24.2202C152.941 24.8878 153.061 25.6932 153.061 26.6364C153.061 27.5852 152.942 28.3949 152.703 29.0653C152.465 29.733 152.12 30.2429 151.668 30.5952C151.216 30.9446 150.669 31.1193 150.027 31.1193ZM150.027 30.1818C150.664 30.1818 151.158 29.875 151.51 29.2614C151.863 28.6477 152.039 27.7727 152.039 26.6364C152.039 25.8807 151.958 25.2372 151.796 24.706C151.637 24.1747 151.407 23.7699 151.105 23.4915C150.807 23.2131 150.448 23.0739 150.027 23.0739C149.397 23.0739 148.904 23.3849 148.549 24.0071C148.194 24.6264 148.016 25.5028 148.016 26.6364C148.016 27.392 148.096 28.0341 148.255 28.5625C148.414 29.0909 148.642 29.4929 148.941 29.7685C149.242 30.044 149.604 30.1818 150.027 30.1818ZM154.476 29.2102V28.3409L158.311 22.2727H158.942V23.6193H158.516L155.618 28.2045V28.2727H160.783V29.2102H154.476ZM158.584 31V28.946V28.5412V22.2727H159.59V31H158.584ZM168.823 22.2727V31H167.766V23.3807H167.715L165.585 24.7955V23.7216L167.766 22.2727H168.823ZM174.18 31.1193C173.538 31.1193 172.991 30.9446 172.539 30.5952C172.087 30.2429 171.742 29.733 171.504 29.0653C171.265 28.3949 171.146 27.5852 171.146 26.6364C171.146 25.6932 171.265 24.8878 171.504 24.2202C171.745 23.5497 172.092 23.0384 172.543 22.6861C172.998 22.331 173.543 22.1534 174.18 22.1534C174.816 22.1534 175.36 22.331 175.812 22.6861C176.266 23.0384 176.613 23.5497 176.852 24.2202C177.093 24.8878 177.214 25.6932 177.214 26.6364C177.214 27.5852 177.094 28.3949 176.856 29.0653C176.617 29.733 176.272 30.2429 175.82 30.5952C175.369 30.9446 174.822 31.1193 174.18 31.1193ZM174.18 30.1818C174.816 30.1818 175.31 29.875 175.663 29.2614C176.015 28.6477 176.191 27.7727 176.191 26.6364C176.191 25.8807 176.11 25.2372 175.948 24.706C175.789 24.1747 175.559 23.7699 175.258 23.4915C174.96 23.2131 174.6 23.0739 174.18 23.0739C173.549 23.0739 173.056 23.3849 172.701 24.0071C172.346 24.6264 172.168 25.5028 172.168 26.6364C172.168 27.392 172.248 28.0341 172.407 28.5625C172.566 29.0909 172.795 29.4929 173.093 29.7685C173.394 30.044 173.756 30.1818 174.18 30.1818ZM181.935 21.8636L179.123 32.3125H178.202L181.015 21.8636H181.935ZM183.11 31V30.233L185.991 27.0795C186.329 26.7102 186.608 26.3892 186.826 26.1165C187.045 25.8409 187.207 25.5824 187.312 25.3409C187.42 25.0966 187.474 24.8409 187.474 24.5739C187.474 24.267 187.4 24.0014 187.252 23.777C187.108 23.5526 186.909 23.3793 186.656 23.2571C186.403 23.1349 186.119 23.0739 185.804 23.0739C185.468 23.0739 185.176 23.1435 184.926 23.2827C184.679 23.419 184.487 23.6108 184.35 23.858C184.217 24.1051 184.15 24.3949 184.15 24.7273H183.145C183.145 24.2159 183.262 23.767 183.498 23.3807C183.734 22.9943 184.055 22.6932 184.461 22.4773C184.87 22.2614 185.329 22.1534 185.838 22.1534C186.349 22.1534 186.802 22.2614 187.197 22.4773C187.592 22.6932 187.902 22.9844 188.126 23.3509C188.35 23.7173 188.463 24.125 188.463 24.5739C188.463 24.8949 188.404 25.2088 188.288 25.5156C188.174 25.8196 187.975 26.1591 187.691 26.5341C187.41 26.9062 187.02 27.3608 186.52 27.8977L184.559 29.9943V30.0625H188.616V31H183.11ZM193.274 31.1193C192.916 31.1136 192.558 31.0455 192.2 30.9148C191.842 30.7841 191.515 30.5639 191.22 30.2543C190.924 29.9418 190.687 29.5199 190.508 28.9886C190.329 28.4545 190.24 27.7841 190.24 26.9773C190.24 26.2045 190.312 25.5199 190.457 24.9233C190.602 24.3239 190.812 23.8196 191.088 23.4105C191.363 22.9986 191.696 22.6861 192.085 22.473C192.477 22.2599 192.919 22.1534 193.41 22.1534C193.899 22.1534 194.333 22.2514 194.714 22.4474C195.098 22.6406 195.41 22.9105 195.652 23.2571C195.893 23.6037 196.049 24.0028 196.12 24.4545H195.081C194.984 24.0625 194.797 23.7372 194.518 23.4787C194.24 23.2202 193.87 23.0909 193.41 23.0909C192.734 23.0909 192.201 23.3849 191.812 23.973C191.426 24.5611 191.231 25.3864 191.228 26.4489H191.297C191.456 26.2074 191.645 26.0014 191.863 25.831C192.085 25.6577 192.329 25.5241 192.596 25.4304C192.863 25.3366 193.146 25.2898 193.444 25.2898C193.944 25.2898 194.402 25.4148 194.816 25.6648C195.231 25.9119 195.564 26.2543 195.814 26.6918C196.064 27.1264 196.189 27.625 196.189 28.1875C196.189 28.7273 196.068 29.2216 195.826 29.6705C195.585 30.1165 195.245 30.4716 194.808 30.7358C194.373 30.9972 193.862 31.125 193.274 31.1193ZM193.274 30.1818C193.632 30.1818 193.953 30.0923 194.237 29.9134C194.524 29.7344 194.75 29.4943 194.914 29.1932C195.082 28.892 195.166 28.5568 195.166 28.1875C195.166 27.8267 195.085 27.4986 194.923 27.2031C194.764 26.9048 194.544 26.6676 194.262 26.4915C193.984 26.3153 193.666 26.2273 193.308 26.2273C193.038 26.2273 192.787 26.2812 192.554 26.3892C192.321 26.4943 192.116 26.6392 191.94 26.8239C191.767 27.0085 191.63 27.2202 191.531 27.4588C191.431 27.6946 191.382 27.9432 191.382 28.2045C191.382 28.5511 191.463 28.875 191.625 29.1761C191.789 29.4773 192.014 29.7202 192.298 29.9048C192.585 30.0895 192.91 30.1818 193.274 30.1818ZM200.967 21.8636L198.154 32.3125H197.234L200.046 21.8636H200.967ZM202.142 31V30.233L205.022 27.0795C205.36 26.7102 205.639 26.3892 205.858 26.1165C206.076 25.8409 206.238 25.5824 206.343 25.3409C206.451 25.0966 206.505 24.8409 206.505 24.5739C206.505 24.267 206.431 24.0014 206.284 23.777C206.139 23.5526 205.94 23.3793 205.687 23.2571C205.434 23.1349 205.15 23.0739 204.835 23.0739C204.5 23.0739 204.207 23.1435 203.957 23.2827C203.71 23.419 203.518 23.6108 203.382 23.858C203.248 24.1051 203.181 24.3949 203.181 24.7273H202.176C202.176 24.2159 202.294 23.767 202.529 23.3807C202.765 22.9943 203.086 22.6932 203.493 22.4773C203.902 22.2614 204.36 22.1534 204.869 22.1534C205.38 22.1534 205.833 22.2614 206.228 22.4773C206.623 22.6932 206.933 22.9844 207.157 23.3509C207.382 23.7173 207.494 24.125 207.494 24.5739C207.494 24.8949 207.436 25.2088 207.319 25.5156C207.206 25.8196 207.007 26.1591 206.723 26.5341C206.441 26.9062 206.051 27.3608 205.551 27.8977L203.591 29.9943V30.0625H207.647V31H202.142ZM212.254 31.1193C211.612 31.1193 211.065 30.9446 210.613 30.5952C210.162 30.2429 209.816 29.733 209.578 29.0653C209.339 28.3949 209.22 27.5852 209.22 26.6364C209.22 25.6932 209.339 24.8878 209.578 24.2202C209.819 23.5497 210.166 23.0384 210.618 22.6861C211.072 22.331 211.618 22.1534 212.254 22.1534C212.89 22.1534 213.434 22.331 213.886 22.6861C214.341 23.0384 214.687 23.5497 214.926 24.2202C215.167 24.8878 215.288 25.6932 215.288 26.6364C215.288 27.5852 215.169 28.3949 214.93 29.0653C214.691 29.733 214.346 30.2429 213.895 30.5952C213.443 30.9446 212.896 31.1193 212.254 31.1193ZM212.254 30.1818C212.89 30.1818 213.385 29.875 213.737 29.2614C214.089 28.6477 214.265 27.7727 214.265 26.6364C214.265 25.8807 214.184 25.2372 214.022 24.706C213.863 24.1747 213.633 23.7699 213.332 23.4915C213.034 23.2131 212.674 23.0739 212.254 23.0739C211.623 23.0739 211.13 23.3849 210.775 24.0071C210.42 24.6264 210.243 25.5028 210.243 26.6364C210.243 27.392 210.322 28.0341 210.481 28.5625C210.64 29.0909 210.869 29.4929 211.167 29.7685C211.468 30.044 211.831 30.1818 212.254 30.1818ZM216.907 31V30.233L219.788 27.0795C220.126 26.7102 220.404 26.3892 220.623 26.1165C220.842 25.8409 221.004 25.5824 221.109 25.3409C221.217 25.0966 221.271 24.8409 221.271 24.5739C221.271 24.267 221.197 24.0014 221.049 23.777C220.904 23.5526 220.706 23.3793 220.453 23.2571C220.2 23.1349 219.916 23.0739 219.6 23.0739C219.265 23.0739 218.973 23.1435 218.723 23.2827C218.475 23.419 218.284 23.6108 218.147 23.858C218.014 24.1051 217.947 24.3949 217.947 24.7273H216.941C216.941 24.2159 217.059 23.767 217.295 23.3807C217.531 22.9943 217.852 22.6932 218.258 22.4773C218.667 22.2614 219.126 22.1534 219.635 22.1534C220.146 22.1534 220.599 22.2614 220.994 22.4773C221.389 22.6932 221.699 22.9844 221.923 23.3509C222.147 23.7173 222.26 24.125 222.26 24.5739C222.26 24.8949 222.201 25.2088 222.085 25.5156C221.971 25.8196 221.772 26.1591 221.488 26.5341C221.207 26.9062 220.816 27.3608 220.316 27.8977L218.356 29.9943V30.0625H222.413V31H216.907ZM227.122 31.1193C226.559 31.1193 226.058 31.0227 225.618 30.8295C225.18 30.6364 224.832 30.3679 224.574 30.0241C224.318 29.6776 224.179 29.2756 224.156 28.8182H225.23C225.252 29.0994 225.349 29.3423 225.52 29.5469C225.69 29.7486 225.913 29.9048 226.189 30.0156C226.464 30.1264 226.77 30.1818 227.105 30.1818C227.48 30.1818 227.812 30.1165 228.102 29.9858C228.392 29.8551 228.619 29.6733 228.784 29.4403C228.949 29.2074 229.031 28.9375 229.031 28.6307C229.031 28.3097 228.951 28.027 228.792 27.7827C228.633 27.5355 228.4 27.3423 228.093 27.2031C227.787 27.0639 227.412 26.9943 226.968 26.9943H226.27V26.0568H226.968C227.315 26.0568 227.619 25.9943 227.88 25.8693C228.145 25.7443 228.35 25.5682 228.498 25.3409C228.649 25.1136 228.724 24.8466 228.724 24.5398C228.724 24.2443 228.659 23.9872 228.528 23.7685C228.397 23.5497 228.213 23.3793 227.974 23.2571C227.738 23.1349 227.46 23.0739 227.139 23.0739C226.838 23.0739 226.554 23.1293 226.287 23.2401C226.022 23.348 225.806 23.5057 225.639 23.7131C225.471 23.9176 225.38 24.1648 225.366 24.4545H224.343C224.36 23.9972 224.498 23.5966 224.757 23.2528C225.015 22.9062 225.353 22.6364 225.771 22.4432C226.191 22.25 226.653 22.1534 227.156 22.1534C227.696 22.1534 228.159 22.2628 228.545 22.4815C228.931 22.6974 229.228 22.983 229.436 23.3381C229.643 23.6932 229.747 24.0767 229.747 24.4886C229.747 24.9801 229.618 25.3991 229.359 25.7457C229.103 26.0923 228.755 26.3324 228.315 26.4659V26.5341C228.866 26.625 229.297 26.8594 229.606 27.2372C229.916 27.6122 230.071 28.0767 230.071 28.6307C230.071 29.1051 229.941 29.5312 229.683 29.9091C229.427 30.2841 229.078 30.5795 228.635 30.7955C228.191 31.0114 227.687 31.1193 227.122 31.1193Z" fill="#6C737F"/>
<path d="M17.233 59V48.8182H18.4659V57.9062H23.1989V59H17.233ZM27.196 59.179C26.7121 59.179 26.273 59.0878 25.8786 58.9055C25.4841 58.7199 25.1709 58.4531 24.9389 58.1051C24.7069 57.7538 24.5909 57.3295 24.5909 56.8324C24.5909 56.3949 24.6771 56.0402 24.8494 55.7685C25.0218 55.4934 25.2521 55.2779 25.5405 55.1222C25.8288 54.9664 26.147 54.8504 26.495 54.7741C26.8464 54.6946 27.1993 54.6316 27.554 54.5852C28.018 54.5256 28.3942 54.4808 28.6825 54.451C28.9742 54.4179 29.1863 54.3632 29.3189 54.2869C29.4548 54.2107 29.5227 54.0781 29.5227 53.8892V53.8494C29.5227 53.3589 29.3885 52.9777 29.12 52.706C28.8549 52.4342 28.4522 52.2983 27.9119 52.2983C27.3518 52.2983 26.9126 52.4209 26.5945 52.6662C26.2763 52.9115 26.0526 53.1733 25.9233 53.4517L24.8097 53.054C25.0085 52.59 25.2737 52.2287 25.6051 51.9702C25.9399 51.7083 26.3045 51.526 26.6989 51.4233C27.0966 51.3172 27.4877 51.2642 27.8722 51.2642C28.1174 51.2642 28.3991 51.294 28.7173 51.3537C29.0388 51.41 29.3487 51.5277 29.647 51.7067C29.9486 51.8857 30.1989 52.1558 30.3977 52.517C30.5966 52.8783 30.696 53.3622 30.696 53.9688V59H29.5227V57.9659H29.4631C29.3835 58.1316 29.2509 58.3089 29.0653 58.4979C28.8797 58.6868 28.6328 58.8475 28.3246 58.9801C28.0163 59.1127 27.6402 59.179 27.196 59.179ZM27.375 58.125C27.839 58.125 28.2301 58.0339 28.5483 57.8516C28.8698 57.6693 29.1117 57.4339 29.2741 57.1456C29.4399 56.8572 29.5227 56.554 29.5227 56.2358V55.1619C29.473 55.2216 29.3636 55.2763 29.1946 55.326C29.0289 55.3724 28.8366 55.4138 28.6179 55.4503C28.4025 55.4834 28.192 55.5133 27.9865 55.5398C27.7843 55.563 27.6203 55.5829 27.4943 55.5994C27.1894 55.6392 26.9044 55.7038 26.6392 55.7933C26.3774 55.8795 26.1652 56.0104 26.0028 56.1861C25.8438 56.3584 25.7642 56.5937 25.7642 56.892C25.7642 57.2997 25.915 57.608 26.2166 57.8168C26.5215 58.0223 26.9077 58.125 27.375 58.125ZM34.0108 54.4062V59H32.8375V51.3636H33.9711V52.5568H34.0705C34.2495 52.169 34.5212 51.8575 34.8858 51.6222C35.2504 51.3835 35.7211 51.2642 36.2978 51.2642C36.8148 51.2642 37.2672 51.3703 37.655 51.5824C38.0428 51.7912 38.3444 52.1094 38.5598 52.5369C38.7753 52.9612 38.883 53.4981 38.883 54.1477V59H37.7097V54.2273C37.7097 53.6274 37.5539 53.16 37.2424 52.8253C36.9308 52.4872 36.5033 52.3182 35.9597 52.3182C35.5852 52.3182 35.2504 52.3994 34.9554 52.5618C34.6638 52.7242 34.4334 52.9612 34.2644 53.2727C34.0953 53.5843 34.0108 53.9621 34.0108 54.4062ZM44.1094 62.0227C43.5426 62.0227 43.0554 61.9498 42.6477 61.804C42.2401 61.6615 41.9003 61.4725 41.6286 61.2372C41.3601 61.0052 41.1463 60.7566 40.9872 60.4915L41.9219 59.8352C42.0279 59.9744 42.1622 60.1335 42.3246 60.3125C42.487 60.4948 42.709 60.6522 42.9908 60.7848C43.2758 60.9207 43.6487 60.9886 44.1094 60.9886C44.7259 60.9886 45.2346 60.8395 45.6357 60.5412C46.0367 60.2429 46.2372 59.7756 46.2372 59.1392V57.5881H46.1378C46.0516 57.7273 45.929 57.8996 45.7699 58.1051C45.6141 58.3073 45.3887 58.4879 45.0938 58.647C44.8021 58.8028 44.4077 58.8807 43.9105 58.8807C43.294 58.8807 42.7405 58.7348 42.25 58.4432C41.7628 58.1515 41.3767 57.7273 41.0916 57.1705C40.8099 56.6136 40.669 55.9375 40.669 55.142C40.669 54.3598 40.8066 53.6787 41.0817 53.0987C41.3568 52.5154 41.7396 52.0646 42.2301 51.7464C42.7206 51.425 43.2874 51.2642 43.9304 51.2642C44.4276 51.2642 44.822 51.3471 45.1136 51.5128C45.4086 51.6752 45.634 51.8608 45.7898 52.0696C45.9489 52.2751 46.0715 52.4441 46.1577 52.5767H46.277V51.3636H47.4105V59.2188C47.4105 59.875 47.2614 60.4086 46.9631 60.8196C46.6681 61.2339 46.2704 61.5372 45.7699 61.7294C45.2727 61.925 44.7192 62.0227 44.1094 62.0227ZM44.0696 57.8267C44.5402 57.8267 44.938 57.719 45.2628 57.5036C45.5876 57.2881 45.8345 56.9782 46.0036 56.5739C46.1726 56.1695 46.2571 55.6856 46.2571 55.1222C46.2571 54.572 46.1742 54.0864 46.0085 53.6655C45.8428 53.2446 45.5975 52.9148 45.2727 52.6761C44.9479 52.4375 44.5469 52.3182 44.0696 52.3182C43.5724 52.3182 43.1581 52.4441 42.8267 52.696C42.4986 52.9479 42.2517 53.286 42.0859 53.7102C41.9235 54.1345 41.8423 54.6051 41.8423 55.1222C41.8423 55.6525 41.9252 56.1214 42.0909 56.5291C42.2599 56.9335 42.5085 57.2517 42.8366 57.4837C43.1681 57.7124 43.5791 57.8267 44.0696 57.8267ZM52.7599 59.1591C52.0241 59.1591 51.3894 58.9967 50.8558 58.6719C50.3255 58.3438 49.9162 57.8864 49.6278 57.2997C49.3428 56.7098 49.2003 56.0237 49.2003 55.2415C49.2003 54.4593 49.3428 53.7699 49.6278 53.1733C49.9162 52.5734 50.3172 52.1061 50.831 51.7713C51.348 51.4332 51.9512 51.2642 52.6406 51.2642C53.0384 51.2642 53.4311 51.3305 53.8189 51.4631C54.2067 51.5956 54.5597 51.8111 54.8778 52.1094C55.196 52.4044 55.4496 52.7955 55.6385 53.2827C55.8274 53.7699 55.9219 54.3698 55.9219 55.0824V55.5795H50.0355V54.5653H54.7287C54.7287 54.1345 54.6425 53.75 54.4702 53.4119C54.3011 53.0739 54.0592 52.8071 53.7443 52.6115C53.4328 52.416 53.0649 52.3182 52.6406 52.3182C52.1733 52.3182 51.7689 52.4342 51.4276 52.6662C51.0895 52.8949 50.8293 53.1932 50.647 53.5611C50.4647 53.929 50.3736 54.3234 50.3736 54.7443V55.4205C50.3736 55.9972 50.473 56.486 50.6719 56.8871C50.8741 57.2848 51.1541 57.5881 51.5121 57.7969C51.87 58.0024 52.286 58.1051 52.7599 58.1051C53.0682 58.1051 53.3466 58.062 53.5952 57.9759C53.8471 57.8864 54.0642 57.7538 54.2464 57.5781C54.4287 57.3991 54.5696 57.1771 54.669 56.9119L55.8026 57.2301C55.6832 57.6146 55.4827 57.9527 55.201 58.2443C54.9193 58.5327 54.5713 58.758 54.157 58.9205C53.7427 59.0795 53.277 59.1591 52.7599 59.1591ZM63.6527 59L60.8686 48.8182H62.1214L64.2493 57.1108H64.3487L66.5163 48.8182H67.9084L70.076 57.1108H70.1754L72.3033 48.8182H73.5561L70.772 59H69.4993L67.2521 50.8864H67.1726L64.9254 59H63.6527ZM76.4695 59.179C75.9856 59.179 75.5464 59.0878 75.152 58.9055C74.7576 58.7199 74.4444 58.4531 74.2124 58.1051C73.9804 57.7538 73.8643 57.3295 73.8643 56.8324C73.8643 56.3949 73.9505 56.0402 74.1229 55.7685C74.2952 55.4934 74.5256 55.2779 74.8139 55.1222C75.1023 54.9664 75.4205 54.8504 75.7685 54.7741C76.1198 54.6946 76.4728 54.6316 76.8274 54.5852C77.2914 54.5256 77.6676 54.4808 77.956 54.451C78.2476 54.4179 78.4598 54.3632 78.5923 54.2869C78.7282 54.2107 78.7962 54.0781 78.7962 53.8892V53.8494C78.7962 53.3589 78.6619 52.9777 78.3935 52.706C78.1283 52.4342 77.7256 52.2983 77.1854 52.2983C76.6252 52.2983 76.1861 52.4209 75.8679 52.6662C75.5497 52.9115 75.326 53.1733 75.1967 53.4517L74.0831 53.054C74.282 52.59 74.5471 52.2287 74.8786 51.9702C75.2133 51.7083 75.5779 51.526 75.9723 51.4233C76.37 51.3172 76.7611 51.2642 77.1456 51.2642C77.3909 51.2642 77.6726 51.294 77.9908 51.3537C78.3123 51.41 78.6222 51.5277 78.9205 51.7067C79.2221 51.8857 79.4723 52.1558 79.6712 52.517C79.87 52.8783 79.9695 53.3622 79.9695 53.9688V59H78.7962V57.9659H78.7365C78.657 58.1316 78.5244 58.3089 78.3388 58.4979C78.1532 58.6868 77.9063 58.8475 77.598 58.9801C77.2898 59.1127 76.9136 59.179 76.4695 59.179ZM76.6484 58.125C77.1125 58.125 77.5036 58.0339 77.8217 57.8516C78.1432 57.6693 78.3852 57.4339 78.5476 57.1456C78.7133 56.8572 78.7962 56.554 78.7962 56.2358V55.1619C78.7464 55.2216 78.6371 55.2763 78.468 55.326C78.3023 55.3724 78.1101 55.4138 77.8913 55.4503C77.6759 55.4834 77.4654 55.5133 77.2599 55.5398C77.0578 55.563 76.8937 55.5829 76.7678 55.5994C76.4628 55.6392 76.1778 55.7038 75.9126 55.7933C75.6508 55.8795 75.4387 56.0104 75.2763 56.1861C75.1172 56.3584 75.0376 56.5937 75.0376 56.892C75.0376 57.2997 75.1884 57.608 75.4901 57.8168C75.795 58.0223 76.1811 58.125 76.6484 58.125ZM82.111 59V51.3636H83.2445V52.517H83.324C83.4632 52.1392 83.7151 51.8326 84.0797 51.5973C84.4443 51.362 84.8553 51.2443 85.3127 51.2443C85.3989 51.2443 85.5066 51.246 85.6358 51.2493C85.7651 51.2526 85.8629 51.2576 85.9292 51.2642V52.4574C85.8894 52.4474 85.7982 52.4325 85.6557 52.4126C85.5165 52.3894 85.369 52.3778 85.2132 52.3778C84.842 52.3778 84.5106 52.4557 84.2189 52.6115C83.9306 52.764 83.7019 52.9761 83.5328 53.2479C83.3671 53.5163 83.2843 53.8229 83.2843 54.1676V59H82.111ZM91.1195 51.3636V52.358H87.1621V51.3636H91.1195ZM88.3155 49.5341H89.4888V56.8125C89.4888 57.1439 89.5369 57.3925 89.633 57.5582C89.7324 57.7206 89.8584 57.83 90.0108 57.8864C90.1666 57.9394 90.3307 57.9659 90.503 57.9659C90.6323 57.9659 90.7383 57.9593 90.8212 57.946C90.9041 57.9295 90.9703 57.9162 91.0201 57.9062L91.2587 58.9602C91.1792 58.9901 91.0681 59.0199 90.9256 59.0497C90.7831 59.0829 90.6025 59.0994 90.3837 59.0994C90.0523 59.0994 89.7275 59.0282 89.4093 58.8857C89.0944 58.7431 88.8326 58.526 88.6238 58.2344C88.4183 57.9427 88.3155 57.5748 88.3155 57.1307V49.5341ZM96.0041 59.1591C95.2683 59.1591 94.6336 58.9967 94.1 58.6719C93.5697 58.3438 93.1603 57.8864 92.872 57.2997C92.5869 56.7098 92.4444 56.0237 92.4444 55.2415C92.4444 54.4593 92.5869 53.7699 92.872 53.1733C93.1603 52.5734 93.5614 52.1061 94.0751 51.7713C94.5922 51.4332 95.1954 51.2642 95.8848 51.2642C96.2825 51.2642 96.6752 51.3305 97.063 51.4631C97.4508 51.5956 97.8038 51.8111 98.122 52.1094C98.4402 52.4044 98.6937 52.7955 98.8826 53.2827C99.0716 53.7699 99.166 54.3698 99.166 55.0824V55.5795H93.2797V54.5653H97.9728C97.9728 54.1345 97.8867 53.75 97.7143 53.4119C97.5453 53.0739 97.3033 52.8071 96.9885 52.6115C96.6769 52.416 96.309 52.3182 95.8848 52.3182C95.4174 52.3182 95.0131 52.4342 94.6717 52.6662C94.3336 52.8949 94.0734 53.1932 93.8912 53.5611C93.7089 53.929 93.6177 54.3234 93.6177 54.7443V55.4205C93.6177 55.9972 93.7172 56.486 93.916 56.8871C94.1182 57.2848 94.3983 57.5881 94.7562 57.7969C95.1142 58.0024 95.5301 58.1051 96.0041 58.1051C96.3123 58.1051 96.5907 58.062 96.8393 57.9759C97.0912 57.8864 97.3083 57.7538 97.4906 57.5781C97.6729 57.3991 97.8137 57.1771 97.9132 56.9119L99.0467 57.2301C98.9274 57.6146 98.7269 57.9527 98.4451 58.2443C98.1634 58.5327 97.8154 58.758 97.4011 58.9205C96.9868 59.0795 96.5211 59.1591 96.0041 59.1591ZM100.732 59V58.1051L105.067 52.5369V52.4574H100.871V51.3636H106.579V52.2983L102.363 57.8267V57.9062H106.718V59H100.732ZM111.508 59.1591C110.772 59.1591 110.137 58.9967 109.604 58.6719C109.074 58.3438 108.664 57.8864 108.376 57.2997C108.091 56.7098 107.948 56.0237 107.948 55.2415C107.948 54.4593 108.091 53.7699 108.376 53.1733C108.664 52.5734 109.065 52.1061 109.579 51.7713C110.096 51.4332 110.699 51.2642 111.389 51.2642C111.786 51.2642 112.179 51.3305 112.567 51.4631C112.955 51.5956 113.308 51.8111 113.626 52.1094C113.944 52.4044 114.198 52.7955 114.387 53.2827C114.575 53.7699 114.67 54.3698 114.67 55.0824V55.5795H108.784V54.5653H113.477C113.477 54.1345 113.391 53.75 113.218 53.4119C113.049 53.0739 112.807 52.8071 112.492 52.6115C112.181 52.416 111.813 52.3182 111.389 52.3182C110.921 52.3182 110.517 52.4342 110.176 52.6662C109.838 52.8949 109.577 53.1932 109.395 53.5611C109.213 53.929 109.122 54.3234 109.122 54.7443V55.4205C109.122 55.9972 109.221 56.486 109.42 56.8871C109.622 57.2848 109.902 57.5881 110.26 57.7969C110.618 58.0024 111.034 58.1051 111.508 58.1051C111.816 58.1051 112.095 58.062 112.343 57.9759C112.595 57.8864 112.812 57.7538 112.994 57.5781C113.177 57.3991 113.318 57.1771 113.417 56.9119L114.551 57.2301C114.431 57.6146 114.231 57.9527 113.949 58.2443C113.667 58.5327 113.319 58.758 112.905 58.9205C112.491 59.0795 112.025 59.1591 111.508 59.1591ZM116.455 59V51.3636H117.628V59H116.455ZM117.051 50.0909C116.823 50.0909 116.625 50.013 116.46 49.8572C116.297 49.7015 116.216 49.5142 116.216 49.2955C116.216 49.0767 116.297 48.8894 116.46 48.7337C116.625 48.5779 116.823 48.5 117.051 48.5C117.28 48.5 117.476 48.5779 117.638 48.7337C117.804 48.8894 117.887 49.0767 117.887 49.2955C117.887 49.5142 117.804 49.7015 117.638 49.8572C117.476 50.013 117.28 50.0909 117.051 50.0909ZM123.098 51.3636V52.358H119.141V51.3636H123.098ZM120.294 49.5341H121.467V56.8125C121.467 57.1439 121.515 57.3925 121.612 57.5582C121.711 57.7206 121.837 57.83 121.989 57.8864C122.145 57.9394 122.309 57.9659 122.482 57.9659C122.611 57.9659 122.717 57.9593 122.8 57.946C122.883 57.9295 122.949 57.9162 122.999 57.9062L123.237 58.9602C123.158 58.9901 123.047 59.0199 122.904 59.0497C122.762 59.0829 122.581 59.0994 122.362 59.0994C122.031 59.0994 121.706 59.0282 121.388 58.8857C121.073 58.7431 120.811 58.526 120.602 58.2344C120.397 57.9427 120.294 57.5748 120.294 57.1307V49.5341Z" fill="#384250"/>
<path d="M261 26C261 20.4772 265.477 16 271 16H351C356.523 16 361 20.4772 361 26C361 31.5228 356.523 36 351 36H271C265.477 36 261 31.5228 261 26Z" fill="#F2AE40"/>
<path d="M271.457 21.2727V30H270.14V21.2727H271.457ZM274.547 26.1136V30H273.273V23.4545H274.496V24.5199H274.577C274.727 24.1733 274.963 23.8949 275.284 23.6847C275.608 23.4744 276.015 23.3693 276.507 23.3693C276.953 23.3693 277.344 23.4631 277.679 23.6506C278.014 23.8352 278.274 24.1108 278.459 24.4773C278.643 24.8437 278.736 25.2969 278.736 25.8366V30H277.461V25.9901C277.461 25.5156 277.338 25.1449 277.091 24.8778C276.844 24.608 276.504 24.473 276.072 24.473C275.777 24.473 275.514 24.5369 275.284 24.6648C275.057 24.7926 274.876 24.9801 274.743 25.2273C274.612 25.4716 274.547 25.767 274.547 26.1136ZM283.722 30V21.2727H286.919C287.538 21.2727 288.051 21.375 288.457 21.5795C288.863 21.7812 289.167 22.0554 289.369 22.402C289.57 22.7457 289.671 23.1335 289.671 23.5653C289.671 23.929 289.605 24.2358 289.471 24.4858C289.338 24.733 289.159 24.9318 288.934 25.0824C288.713 25.2301 288.468 25.3381 288.201 25.4062V25.4915C288.491 25.5057 288.774 25.5994 289.049 25.7727C289.328 25.9432 289.558 26.1861 289.74 26.5014C289.921 26.8168 290.012 27.2003 290.012 27.652C290.012 28.098 289.907 28.4986 289.697 28.8537C289.49 29.206 289.169 29.4858 288.734 29.6932C288.299 29.8977 287.744 30 287.068 30H283.722ZM285.039 28.8707H286.94C287.57 28.8707 288.022 28.7486 288.295 28.5043C288.568 28.2599 288.704 27.9545 288.704 27.5881C288.704 27.3125 288.634 27.0597 288.495 26.8295C288.356 26.5994 288.157 26.4162 287.899 26.2798C287.643 26.1435 287.339 26.0753 286.987 26.0753H285.039V28.8707ZM285.039 25.0483H286.803C287.099 25.0483 287.365 24.9915 287.6 24.8778C287.839 24.7642 288.028 24.6051 288.167 24.4006C288.309 24.1932 288.38 23.9489 288.38 23.6676C288.38 23.3068 288.254 23.0043 288.001 22.7599C287.748 22.5156 287.36 22.3935 286.838 22.3935H285.039V25.0483ZM294.293 30.1321C293.648 30.1321 293.093 29.9943 292.627 29.7188C292.164 29.4403 291.806 29.0497 291.553 28.5469C291.303 28.0412 291.178 27.4489 291.178 26.7699C291.178 26.0994 291.303 25.5085 291.553 24.9972C291.806 24.4858 292.158 24.0866 292.61 23.7997C293.064 23.5128 293.595 23.3693 294.203 23.3693C294.573 23.3693 294.931 23.4304 295.277 23.5526C295.624 23.6747 295.935 23.8665 296.21 24.1278C296.486 24.3892 296.703 24.7287 296.862 25.1463C297.021 25.5611 297.101 26.0653 297.101 26.6591V27.1108H291.898V26.1562H295.852C295.852 25.821 295.784 25.5241 295.648 25.2656C295.512 25.0043 295.32 24.7983 295.073 24.6477C294.828 24.4972 294.541 24.4219 294.212 24.4219C293.854 24.4219 293.541 24.5099 293.274 24.6861C293.01 24.8594 292.806 25.0866 292.661 25.3679C292.519 25.6463 292.448 25.9489 292.448 26.2756V27.0213C292.448 27.4588 292.524 27.831 292.678 28.1378C292.834 28.4446 293.051 28.679 293.33 28.8409C293.608 29 293.933 29.0795 294.306 29.0795C294.547 29.0795 294.767 29.0455 294.966 28.9773C295.165 28.9062 295.337 28.8011 295.482 28.6619C295.627 28.5227 295.737 28.3509 295.814 28.1463L297.02 28.3636C296.923 28.7187 296.75 29.0298 296.5 29.2969C296.253 29.5611 295.942 29.767 295.567 29.9148C295.195 30.0597 294.77 30.1321 294.293 30.1321ZM300.42 30.1449C300.005 30.1449 299.63 30.0682 299.295 29.9148C298.959 29.7585 298.694 29.5327 298.498 29.2372C298.305 28.9418 298.208 28.5795 298.208 28.1506C298.208 27.7812 298.279 27.4773 298.421 27.2386C298.563 27 298.755 26.8111 298.996 26.6719C299.238 26.5327 299.508 26.4276 299.806 26.3565C300.104 26.2855 300.408 26.2315 300.718 26.1946C301.11 26.1491 301.428 26.1122 301.672 26.0838C301.917 26.0526 302.094 26.0028 302.205 25.9347C302.316 25.8665 302.371 25.7557 302.371 25.6023V25.5724C302.371 25.2003 302.266 24.9119 302.056 24.7074C301.849 24.5028 301.539 24.4006 301.127 24.4006C300.698 24.4006 300.36 24.4957 300.113 24.6861C299.868 24.8736 299.699 25.0824 299.606 25.3125L298.408 25.0398C298.55 24.642 298.758 24.321 299.03 24.0767C299.306 23.8295 299.623 23.6506 299.981 23.5398C300.339 23.4261 300.715 23.3693 301.11 23.3693C301.371 23.3693 301.648 23.4006 301.941 23.4631C302.236 23.5227 302.512 23.6335 302.768 23.7955C303.026 23.9574 303.238 24.1889 303.403 24.4901C303.567 24.7884 303.65 25.1761 303.65 25.6534V30H302.405V29.1051H302.354C302.272 29.2699 302.148 29.4318 301.983 29.5909C301.819 29.75 301.607 29.8821 301.349 29.9872C301.09 30.0923 300.78 30.1449 300.42 30.1449ZM300.697 29.1222C301.049 29.1222 301.35 29.0526 301.6 28.9134C301.853 28.7741 302.045 28.5923 302.175 28.3679C302.309 28.1406 302.376 27.8977 302.376 27.6392V26.7955C302.33 26.8409 302.242 26.8835 302.111 26.9233C301.983 26.9602 301.837 26.9929 301.672 27.0213C301.508 27.0469 301.347 27.071 301.191 27.0938C301.035 27.1136 300.904 27.1307 300.799 27.1449C300.552 27.1761 300.326 27.2287 300.121 27.3026C299.92 27.3764 299.758 27.483 299.635 27.6222C299.516 27.7585 299.456 27.9403 299.456 28.1676C299.456 28.483 299.573 28.7216 299.806 28.8835C300.039 29.0426 300.336 29.1222 300.697 29.1222ZM305.347 30V23.4545H306.578V24.4943H306.646C306.766 24.142 306.976 23.8651 307.277 23.6634C307.581 23.4588 307.925 23.3565 308.308 23.3565C308.388 23.3565 308.482 23.3594 308.59 23.3651C308.7 23.3707 308.787 23.3778 308.85 23.3864V24.6051C308.798 24.5909 308.708 24.5753 308.577 24.5582C308.446 24.5384 308.316 24.5284 308.185 24.5284C307.884 24.5284 307.615 24.5923 307.379 24.7202C307.146 24.8452 306.962 25.0199 306.825 25.2443C306.689 25.4659 306.621 25.7187 306.621 26.0028V30H305.347ZM310.055 30V21.2727H311.329V24.5156H311.405C311.479 24.3793 311.586 24.2216 311.725 24.0426C311.864 23.8636 312.057 23.7074 312.305 23.5739C312.552 23.4375 312.878 23.3693 313.285 23.3693C313.813 23.3693 314.285 23.5028 314.699 23.7699C315.114 24.0369 315.439 24.4219 315.675 24.9247C315.914 25.4276 316.033 26.0327 316.033 26.7401C316.033 27.4474 315.915 28.054 315.68 28.5597C315.444 29.0625 315.12 29.4503 314.708 29.723C314.296 29.9929 313.826 30.1278 313.297 30.1278C312.9 30.1278 312.574 30.0611 312.322 29.9276C312.072 29.794 311.876 29.6378 311.733 29.4588C311.591 29.2798 311.482 29.1207 311.405 28.9815H311.299V30H310.055ZM311.303 26.7273C311.303 27.1875 311.37 27.5909 311.503 27.9375C311.637 28.2841 311.83 28.5554 312.083 28.7514C312.336 28.9446 312.645 29.0412 313.012 29.0412C313.393 29.0412 313.711 28.9403 313.966 28.7386C314.222 28.5341 314.415 28.2571 314.546 27.9077C314.68 27.5582 314.746 27.1648 314.746 26.7273C314.746 26.2955 314.681 25.9077 314.55 25.5639C314.422 25.2202 314.229 24.9489 313.971 24.75C313.715 24.5511 313.395 24.4517 313.012 24.4517C312.643 24.4517 312.33 24.5469 312.074 24.7372C311.822 24.9276 311.63 25.1932 311.499 25.5341C311.368 25.875 311.303 26.2727 311.303 26.7273ZM320.285 30.1321C319.64 30.1321 319.085 29.9943 318.619 29.7188C318.156 29.4403 317.798 29.0497 317.545 28.5469C317.295 28.0412 317.17 27.4489 317.17 26.7699C317.17 26.0994 317.295 25.5085 317.545 24.9972C317.798 24.4858 318.15 24.0866 318.602 23.7997C319.056 23.5128 319.588 23.3693 320.195 23.3693C320.565 23.3693 320.923 23.4304 321.269 23.5526C321.616 23.6747 321.927 23.8665 322.203 24.1278C322.478 24.3892 322.695 24.7287 322.855 25.1463C323.014 25.5611 323.093 26.0653 323.093 26.6591V27.1108H317.89V26.1562H321.845C321.845 25.821 321.776 25.5241 321.64 25.2656C321.504 25.0043 321.312 24.7983 321.065 24.6477C320.82 24.4972 320.534 24.4219 320.204 24.4219C319.846 24.4219 319.534 24.5099 319.267 24.6861C319.002 24.8594 318.798 25.0866 318.653 25.3679C318.511 25.6463 318.44 25.9489 318.44 26.2756V27.0213C318.44 27.4588 318.517 27.831 318.67 28.1378C318.826 28.4446 319.044 28.679 319.322 28.8409C319.6 29 319.926 29.0795 320.298 29.0795C320.539 29.0795 320.759 29.0455 320.958 28.9773C321.157 28.9062 321.329 28.8011 321.474 28.6619C321.619 28.5227 321.73 28.3509 321.806 28.1463L323.012 28.3636C322.916 28.7187 322.742 29.0298 322.492 29.2969C322.245 29.5611 321.934 29.767 321.559 29.9148C321.187 30.0597 320.762 30.1321 320.285 30.1321ZM324.507 30V23.4545H325.781V30H324.507ZM325.15 22.4446C324.929 22.4446 324.738 22.3707 324.579 22.223C324.423 22.0724 324.345 21.8935 324.345 21.6861C324.345 21.4759 324.423 21.2969 324.579 21.1491C324.738 20.9986 324.929 20.9233 325.15 20.9233C325.372 20.9233 325.561 20.9986 325.717 21.1491C325.876 21.2969 325.956 21.4759 325.956 21.6861C325.956 21.8935 325.876 22.0724 325.717 22.223C325.561 22.3707 325.372 22.4446 325.15 22.4446ZM330.551 23.4545V24.4773H326.975V23.4545H330.551ZM327.934 21.8864H329.208V28.0781C329.208 28.3253 329.245 28.5114 329.319 28.6364C329.393 28.7585 329.488 28.8423 329.605 28.8878C329.724 28.9304 329.853 28.9517 329.992 28.9517C330.095 28.9517 330.184 28.9446 330.261 28.9304C330.338 28.9162 330.397 28.9048 330.44 28.8963L330.67 29.9489C330.596 29.9773 330.491 30.0057 330.355 30.0341C330.218 30.0653 330.048 30.0824 329.843 30.0852C329.508 30.0909 329.195 30.0312 328.906 29.9062C328.616 29.7812 328.382 29.5881 328.203 29.3267C328.024 29.0653 327.934 28.7372 327.934 28.3423V21.8864ZM336.106 27.2855V23.4545H337.385V30H336.132V28.8665H336.064C335.913 29.2159 335.672 29.5071 335.339 29.7401C335.01 29.9702 334.599 30.0852 334.108 30.0852C333.687 30.0852 333.315 29.9929 332.991 29.8082C332.67 29.6207 332.417 29.3438 332.233 28.9773C332.051 28.6108 331.96 28.1577 331.96 27.6179V23.4545H333.234V27.4645C333.234 27.9105 333.358 28.2656 333.605 28.5298C333.852 28.794 334.173 28.9261 334.568 28.9261C334.807 28.9261 335.044 28.8665 335.28 28.7472C335.518 28.6278 335.716 28.4474 335.872 28.206C336.031 27.9645 336.109 27.6577 336.106 27.2855ZM340.371 26.1136V30H339.097V23.4545H340.32V24.5199H340.401C340.551 24.1733 340.787 23.8949 341.108 23.6847C341.432 23.4744 341.84 23.3693 342.331 23.3693C342.777 23.3693 343.168 23.4631 343.503 23.6506C343.838 23.8352 344.098 24.1108 344.283 24.4773C344.468 24.8437 344.56 25.2969 344.56 25.8366V30H343.286V25.9901C343.286 25.5156 343.162 25.1449 342.915 24.8778C342.668 24.608 342.328 24.473 341.896 24.473C341.601 24.473 341.338 24.5369 341.108 24.6648C340.881 24.7926 340.7 24.9801 340.567 25.2273C340.436 25.4716 340.371 25.767 340.371 26.1136ZM349.013 32.5909C348.493 32.5909 348.046 32.5227 347.671 32.3864C347.298 32.25 346.994 32.0696 346.759 31.8452C346.523 31.6207 346.347 31.375 346.23 31.108L347.325 30.6562C347.402 30.7812 347.504 30.9134 347.632 31.0526C347.763 31.1946 347.939 31.3153 348.161 31.4148C348.385 31.5142 348.673 31.5639 349.026 31.5639C349.509 31.5639 349.908 31.446 350.223 31.2102C350.539 30.9773 350.696 30.6051 350.696 30.0938V28.8068H350.615C350.539 28.946 350.428 29.1009 350.283 29.2713C350.141 29.4418 349.945 29.5895 349.695 29.7145C349.445 29.8395 349.119 29.902 348.719 29.902C348.202 29.902 347.736 29.7812 347.321 29.5398C346.909 29.2955 346.583 28.9361 346.341 28.4616C346.102 27.9844 345.983 27.3977 345.983 26.7017C345.983 26.0057 346.101 25.4091 346.337 24.9119C346.575 24.4148 346.902 24.0341 347.317 23.7699C347.732 23.5028 348.202 23.3693 348.727 23.3693C349.134 23.3693 349.462 23.4375 349.712 23.5739C349.962 23.7074 350.156 23.8636 350.296 24.0426C350.438 24.2216 350.547 24.3793 350.624 24.5156H350.718V23.4545H351.966V30.1449C351.966 30.7074 351.835 31.169 351.574 31.5298C351.313 31.8906 350.959 32.1577 350.513 32.331C350.07 32.5043 349.57 32.5909 349.013 32.5909ZM349 28.8452C349.367 28.8452 349.676 28.7599 349.929 28.5895C350.185 28.4162 350.378 28.169 350.509 27.848C350.642 27.5241 350.709 27.1364 350.709 26.6847C350.709 26.2443 350.644 25.8565 350.513 25.5213C350.382 25.1861 350.191 24.9247 349.938 24.7372C349.685 24.5469 349.372 24.4517 349 24.4517C348.617 24.4517 348.297 24.5511 348.041 24.75C347.786 24.946 347.593 25.2131 347.462 25.5511C347.334 25.8892 347.27 26.267 347.27 26.6847C347.27 27.1136 347.335 27.4901 347.466 27.8139C347.597 28.1378 347.79 28.3906 348.046 28.5724C348.304 28.7543 348.622 28.8452 349 28.8452Z" fill="white"/>
</svg>
