<svg width="544" height="80" viewBox="0 0 544 80" fill="none" xmlns="http://www.w3.org/2000/svg">
<g clip-path="url(#clip0_3248_2281)">
<rect x="-80" width="345" height="80" rx="16" fill="white"/>
<path d="M17.4117 34.125L12.0033 31.0526L6.59491 34.125L7.80407 27.9602L3.25 23.6948L9.40096 22.955L11.9967 17.25L14.5925 22.955L20.75 23.6948L16.2025 27.9602L17.4117 34.125ZM12.0033 29.5264L15.5651 31.5458L14.7699 27.487L17.7665 24.6745L13.7119 24.1879L12.0033 20.4291L10.2947 24.1879L6.24005 24.6745L9.23667 27.487L8.44151 31.5458L12.0033 29.5264Z" fill="#CDD0D5"/>
<path d="M39.4117 34.125L34.0033 31.0526L28.5949 34.125L29.8041 27.9602L25.25 23.6948L31.401 22.955L33.9967 17.25L36.5925 22.955L42.75 23.6948L38.2025 27.9602L39.4117 34.125ZM34.0033 29.5264L37.5651 31.5458L36.7699 27.487L39.7665 24.6745L35.7119 24.1879L34.0033 20.4291L32.2947 24.1879L28.24 24.6745L31.2367 27.487L30.4415 31.5458L34.0033 29.5264Z" fill="#CDD0D5"/>
<path d="M53.9716 22.2727V31H52.9148V23.3807H52.8636L50.733 24.7955V23.7216L52.9148 22.2727H53.9716ZM59.277 31.1193C58.6918 31.1193 58.1747 31.0156 57.7259 30.8082C57.2798 30.598 56.9318 30.3097 56.6818 29.9432C56.4318 29.5739 56.3082 29.1534 56.3111 28.6818C56.3082 28.3125 56.3807 27.9716 56.5284 27.6591C56.6761 27.3437 56.8778 27.081 57.1335 26.8707C57.392 26.6577 57.6804 26.5227 57.9986 26.4659V26.4148C57.581 26.3068 57.2486 26.0724 57.0014 25.7116C56.7543 25.348 56.6321 24.9347 56.6349 24.4716C56.6321 24.0284 56.7443 23.6321 56.9716 23.2827C57.1989 22.9332 57.5114 22.6577 57.9091 22.456C58.3097 22.2543 58.7656 22.1534 59.277 22.1534C59.7827 22.1534 60.2344 22.2543 60.6321 22.456C61.0298 22.6577 61.3423 22.9332 61.5696 23.2827C61.7997 23.6321 61.9162 24.0284 61.919 24.4716C61.9162 24.9347 61.7898 25.348 61.5398 25.7116C61.2926 26.0724 60.9645 26.3068 60.5554 26.4148V26.4659C60.8707 26.5227 61.1548 26.6577 61.4077 26.8707C61.6605 27.081 61.8622 27.3437 62.0128 27.6591C62.1634 27.9716 62.2401 28.3125 62.2429 28.6818C62.2401 29.1534 62.1122 29.5739 61.8594 29.9432C61.6094 30.3097 61.2614 30.598 60.8153 30.8082C60.3722 31.0156 59.8594 31.1193 59.277 31.1193ZM59.277 30.1818C59.6719 30.1818 60.0128 30.1179 60.2997 29.9901C60.5866 29.8622 60.8082 29.6818 60.9645 29.4489C61.1207 29.2159 61.2003 28.9432 61.2031 28.6307C61.2003 28.3011 61.1151 28.0099 60.9474 27.7571C60.7798 27.5043 60.5511 27.3054 60.2614 27.1605C59.9744 27.0156 59.6463 26.9432 59.277 26.9432C58.9048 26.9432 58.5724 27.0156 58.2798 27.1605C57.9901 27.3054 57.7614 27.5043 57.5938 27.7571C57.429 28.0099 57.348 28.3011 57.3509 28.6307C57.348 28.9432 57.4233 29.2159 57.5767 29.4489C57.733 29.6818 57.956 29.8622 58.2457 29.9901C58.5355 30.1179 58.8793 30.1818 59.277 30.1818ZM59.277 26.0398C59.5895 26.0398 59.8665 25.9773 60.108 25.8523C60.3523 25.7273 60.544 25.5526 60.6832 25.3281C60.8224 25.1037 60.8935 24.8409 60.8963 24.5398C60.8935 24.2443 60.8239 23.9872 60.6875 23.7685C60.5511 23.5469 60.3622 23.3764 60.1207 23.2571C59.8793 23.1349 59.598 23.0739 59.277 23.0739C58.9503 23.0739 58.6648 23.1349 58.4205 23.2571C58.1761 23.3764 57.9872 23.5469 57.8537 23.7685C57.7202 23.9872 57.6548 24.2443 57.6577 24.5398C57.6548 24.8409 57.7216 25.1037 57.858 25.3281C57.9972 25.5526 58.1889 25.7273 58.4332 25.8523C58.6776 25.9773 58.9588 26.0398 59.277 26.0398ZM64.6261 29.8835C64.4158 29.8835 64.2354 29.8082 64.0849 29.6577C63.9343 29.5071 63.859 29.3267 63.859 29.1165C63.859 28.9062 63.9343 28.7259 64.0849 28.5753C64.2354 28.4247 64.4158 28.3494 64.6261 28.3494C64.8363 28.3494 65.0167 28.4247 65.1673 28.5753C65.3178 28.7259 65.3931 28.9062 65.3931 29.1165C65.3931 29.2557 65.3576 29.3835 65.2866 29.5C65.2184 29.6165 65.1261 29.7102 65.0096 29.7812C64.896 29.8494 64.7681 29.8835 64.6261 29.8835ZM64.6261 25.4688C64.4158 25.4688 64.2354 25.3935 64.0849 25.2429C63.9343 25.0923 63.859 24.9119 63.859 24.7017C63.859 24.4915 63.9343 24.3111 64.0849 24.1605C64.2354 24.0099 64.4158 23.9347 64.6261 23.9347C64.8363 23.9347 65.0167 24.0099 65.1673 24.1605C65.3178 24.3111 65.3931 24.4915 65.3931 24.7017C65.3931 24.8409 65.3576 24.9688 65.2866 25.0852C65.2184 25.2017 65.1261 25.2955 65.0096 25.3665C64.896 25.4347 64.7681 25.4688 64.6261 25.4688ZM70.0273 31.1193C69.3853 31.1193 68.8384 30.9446 68.3867 30.5952C67.935 30.2429 67.5898 29.733 67.3512 29.0653C67.1126 28.3949 66.9933 27.5852 66.9933 26.6364C66.9933 25.6932 67.1126 24.8878 67.3512 24.2202C67.5927 23.5497 67.9393 23.0384 68.391 22.6861C68.8455 22.331 69.391 22.1534 70.0273 22.1534C70.6637 22.1534 71.2077 22.331 71.6594 22.6861C72.114 23.0384 72.4606 23.5497 72.6992 24.2202C72.9407 24.8878 73.0614 25.6932 73.0614 26.6364C73.0614 27.5852 72.9421 28.3949 72.7035 29.0653C72.4648 29.733 72.1197 30.2429 71.668 30.5952C71.2163 30.9446 70.6694 31.1193 70.0273 31.1193ZM70.0273 30.1818C70.6637 30.1818 71.158 29.875 71.5103 29.2614C71.8626 28.6477 72.0387 27.7727 72.0387 26.6364C72.0387 25.8807 71.9577 25.2372 71.7958 24.706C71.6367 24.1747 71.4066 23.7699 71.1055 23.4915C70.8072 23.2131 70.4478 23.0739 70.0273 23.0739C69.3967 23.0739 68.9038 23.3849 68.5487 24.0071C68.1935 24.6264 68.016 25.5028 68.016 26.6364C68.016 27.392 68.0955 28.0341 68.2546 28.5625C68.4137 29.0909 68.6424 29.4929 68.9407 29.7685C69.2418 30.044 69.604 30.1818 70.0273 30.1818ZM74.4762 29.2102V28.3409L78.3114 22.2727H78.9421V23.6193H78.516L75.6183 28.2045V28.2727H80.783V29.2102H74.4762ZM78.5842 31V28.946V28.5412V22.2727H79.5898V31H78.5842ZM88.8232 22.2727V31H87.7663V23.3807H87.7152L85.5845 24.7955V23.7216L87.7663 22.2727H88.8232ZM94.1797 31.1193C93.5376 31.1193 92.9908 30.9446 92.5391 30.5952C92.0874 30.2429 91.7422 29.733 91.5036 29.0653C91.2649 28.3949 91.1456 27.5852 91.1456 26.6364C91.1456 25.6932 91.2649 24.8878 91.5036 24.2202C91.745 23.5497 92.0916 23.0384 92.5433 22.6861C92.9979 22.331 93.5433 22.1534 94.1797 22.1534C94.8161 22.1534 95.3601 22.331 95.8118 22.6861C96.2663 23.0384 96.6129 23.5497 96.8516 24.2202C97.093 24.8878 97.2138 25.6932 97.2138 26.6364C97.2138 27.5852 97.0945 28.3949 96.8558 29.0653C96.6172 29.733 96.272 30.2429 95.8203 30.5952C95.3686 30.9446 94.8217 31.1193 94.1797 31.1193ZM94.1797 30.1818C94.8161 30.1818 95.3104 29.875 95.6626 29.2614C96.0149 28.6477 96.1911 27.7727 96.1911 26.6364C96.1911 25.8807 96.1101 25.2372 95.9482 24.706C95.7891 24.1747 95.5589 23.7699 95.2578 23.4915C94.9595 23.2131 94.6001 23.0739 94.1797 23.0739C93.549 23.0739 93.0561 23.3849 92.701 24.0071C92.3459 24.6264 92.1683 25.5028 92.1683 26.6364C92.1683 27.392 92.2479 28.0341 92.407 28.5625C92.5661 29.0909 92.7947 29.4929 93.093 29.7685C93.3942 30.044 93.7564 30.1818 94.1797 30.1818ZM101.935 21.8636L99.1229 32.3125H98.2024L101.015 21.8636H101.935ZM103.11 31V30.233L105.991 27.0795C106.329 26.7102 106.608 26.3892 106.826 26.1165C107.045 25.8409 107.207 25.5824 107.312 25.3409C107.42 25.0966 107.474 24.8409 107.474 24.5739C107.474 24.267 107.4 24.0014 107.252 23.777C107.108 23.5526 106.909 23.3793 106.656 23.2571C106.403 23.1349 106.119 23.0739 105.804 23.0739C105.468 23.0739 105.176 23.1435 104.926 23.2827C104.679 23.419 104.487 23.6108 104.35 23.858C104.217 24.1051 104.15 24.3949 104.15 24.7273H103.145C103.145 24.2159 103.262 23.767 103.498 23.3807C103.734 22.9943 104.055 22.6932 104.461 22.4773C104.87 22.2614 105.329 22.1534 105.838 22.1534C106.349 22.1534 106.802 22.2614 107.197 22.4773C107.592 22.6932 107.902 22.9844 108.126 23.3509C108.35 23.7173 108.463 24.125 108.463 24.5739C108.463 24.8949 108.404 25.2088 108.288 25.5156C108.174 25.8196 107.975 26.1591 107.691 26.5341C107.41 26.9062 107.02 27.3608 106.52 27.8977L104.559 29.9943V30.0625H108.616V31H103.11ZM113.274 31.1193C112.916 31.1136 112.558 31.0455 112.2 30.9148C111.842 30.7841 111.515 30.5639 111.22 30.2543C110.924 29.9418 110.687 29.5199 110.508 28.9886C110.329 28.4545 110.24 27.7841 110.24 26.9773C110.24 26.2045 110.312 25.5199 110.457 24.9233C110.602 24.3239 110.812 23.8196 111.088 23.4105C111.363 22.9986 111.696 22.6861 112.085 22.473C112.477 22.2599 112.919 22.1534 113.41 22.1534C113.899 22.1534 114.333 22.2514 114.714 22.4474C115.098 22.6406 115.41 22.9105 115.652 23.2571C115.893 23.6037 116.049 24.0028 116.12 24.4545H115.081C114.984 24.0625 114.797 23.7372 114.518 23.4787C114.24 23.2202 113.87 23.0909 113.41 23.0909C112.734 23.0909 112.201 23.3849 111.812 23.973C111.426 24.5611 111.231 25.3864 111.228 26.4489H111.297C111.456 26.2074 111.645 26.0014 111.863 25.831C112.085 25.6577 112.329 25.5241 112.596 25.4304C112.863 25.3366 113.146 25.2898 113.444 25.2898C113.944 25.2898 114.402 25.4148 114.816 25.6648C115.231 25.9119 115.564 26.2543 115.814 26.6918C116.064 27.1264 116.189 27.625 116.189 28.1875C116.189 28.7273 116.068 29.2216 115.826 29.6705C115.585 30.1165 115.245 30.4716 114.808 30.7358C114.373 30.9972 113.862 31.125 113.274 31.1193ZM113.274 30.1818C113.632 30.1818 113.953 30.0923 114.237 29.9134C114.524 29.7344 114.75 29.4943 114.914 29.1932C115.082 28.892 115.166 28.5568 115.166 28.1875C115.166 27.8267 115.085 27.4986 114.923 27.2031C114.764 26.9048 114.544 26.6676 114.262 26.4915C113.984 26.3153 113.666 26.2273 113.308 26.2273C113.038 26.2273 112.787 26.2812 112.554 26.3892C112.321 26.4943 112.116 26.6392 111.94 26.8239C111.767 27.0085 111.63 27.2202 111.531 27.4588C111.431 27.6946 111.382 27.9432 111.382 28.2045C111.382 28.5511 111.463 28.875 111.625 29.1761C111.789 29.4773 112.014 29.7202 112.298 29.9048C112.585 30.0895 112.91 30.1818 113.274 30.1818ZM120.967 21.8636L118.154 32.3125H117.234L120.046 21.8636H120.967ZM122.142 31V30.233L125.022 27.0795C125.36 26.7102 125.639 26.3892 125.858 26.1165C126.076 25.8409 126.238 25.5824 126.343 25.3409C126.451 25.0966 126.505 24.8409 126.505 24.5739C126.505 24.267 126.431 24.0014 126.284 23.777C126.139 23.5526 125.94 23.3793 125.687 23.2571C125.434 23.1349 125.15 23.0739 124.835 23.0739C124.5 23.0739 124.207 23.1435 123.957 23.2827C123.71 23.419 123.518 23.6108 123.382 23.858C123.248 24.1051 123.181 24.3949 123.181 24.7273H122.176C122.176 24.2159 122.294 23.767 122.529 23.3807C122.765 22.9943 123.086 22.6932 123.493 22.4773C123.902 22.2614 124.36 22.1534 124.869 22.1534C125.38 22.1534 125.833 22.2614 126.228 22.4773C126.623 22.6932 126.933 22.9844 127.157 23.3509C127.382 23.7173 127.494 24.125 127.494 24.5739C127.494 24.8949 127.436 25.2088 127.319 25.5156C127.206 25.8196 127.007 26.1591 126.723 26.5341C126.441 26.9062 126.051 27.3608 125.551 27.8977L123.591 29.9943V30.0625H127.647V31H122.142ZM132.254 31.1193C131.612 31.1193 131.065 30.9446 130.613 30.5952C130.162 30.2429 129.816 29.733 129.578 29.0653C129.339 28.3949 129.22 27.5852 129.22 26.6364C129.22 25.6932 129.339 24.8878 129.578 24.2202C129.819 23.5497 130.166 23.0384 130.618 22.6861C131.072 22.331 131.618 22.1534 132.254 22.1534C132.89 22.1534 133.434 22.331 133.886 22.6861C134.341 23.0384 134.687 23.5497 134.926 24.2202C135.167 24.8878 135.288 25.6932 135.288 26.6364C135.288 27.5852 135.169 28.3949 134.93 29.0653C134.691 29.733 134.346 30.2429 133.895 30.5952C133.443 30.9446 132.896 31.1193 132.254 31.1193ZM132.254 30.1818C132.89 30.1818 133.385 29.875 133.737 29.2614C134.089 28.6477 134.265 27.7727 134.265 26.6364C134.265 25.8807 134.184 25.2372 134.022 24.706C133.863 24.1747 133.633 23.7699 133.332 23.4915C133.034 23.2131 132.674 23.0739 132.254 23.0739C131.623 23.0739 131.13 23.3849 130.775 24.0071C130.42 24.6264 130.243 25.5028 130.243 26.6364C130.243 27.392 130.322 28.0341 130.481 28.5625C130.64 29.0909 130.869 29.4929 131.167 29.7685C131.468 30.044 131.831 30.1818 132.254 30.1818ZM136.907 31V30.233L139.788 27.0795C140.126 26.7102 140.404 26.3892 140.623 26.1165C140.842 25.8409 141.004 25.5824 141.109 25.3409C141.217 25.0966 141.271 24.8409 141.271 24.5739C141.271 24.267 141.197 24.0014 141.049 23.777C140.904 23.5526 140.706 23.3793 140.453 23.2571C140.2 23.1349 139.916 23.0739 139.6 23.0739C139.265 23.0739 138.973 23.1435 138.723 23.2827C138.475 23.419 138.284 23.6108 138.147 23.858C138.014 24.1051 137.947 24.3949 137.947 24.7273H136.941C136.941 24.2159 137.059 23.767 137.295 23.3807C137.531 22.9943 137.852 22.6932 138.258 22.4773C138.667 22.2614 139.126 22.1534 139.635 22.1534C140.146 22.1534 140.599 22.2614 140.994 22.4773C141.389 22.6932 141.699 22.9844 141.923 23.3509C142.147 23.7173 142.26 24.125 142.26 24.5739C142.26 24.8949 142.201 25.2088 142.085 25.5156C141.971 25.8196 141.772 26.1591 141.488 26.5341C141.207 26.9062 140.816 27.3608 140.316 27.8977L138.356 29.9943V30.0625H142.413V31H136.907ZM147.122 31.1193C146.559 31.1193 146.058 31.0227 145.618 30.8295C145.18 30.6364 144.832 30.3679 144.574 30.0241C144.318 29.6776 144.179 29.2756 144.156 28.8182H145.23C145.252 29.0994 145.349 29.3423 145.52 29.5469C145.69 29.7486 145.913 29.9048 146.189 30.0156C146.464 30.1264 146.77 30.1818 147.105 30.1818C147.48 30.1818 147.812 30.1165 148.102 29.9858C148.392 29.8551 148.619 29.6733 148.784 29.4403C148.949 29.2074 149.031 28.9375 149.031 28.6307C149.031 28.3097 148.951 28.027 148.792 27.7827C148.633 27.5355 148.4 27.3423 148.093 27.2031C147.787 27.0639 147.412 26.9943 146.968 26.9943H146.27V26.0568H146.968C147.315 26.0568 147.619 25.9943 147.88 25.8693C148.145 25.7443 148.35 25.5682 148.498 25.3409C148.649 25.1136 148.724 24.8466 148.724 24.5398C148.724 24.2443 148.659 23.9872 148.528 23.7685C148.397 23.5497 148.213 23.3793 147.974 23.2571C147.738 23.1349 147.46 23.0739 147.139 23.0739C146.838 23.0739 146.554 23.1293 146.287 23.2401C146.022 23.348 145.806 23.5057 145.639 23.7131C145.471 23.9176 145.38 24.1648 145.366 24.4545H144.343C144.36 23.9972 144.498 23.5966 144.757 23.2528C145.015 22.9062 145.353 22.6364 145.771 22.4432C146.191 22.25 146.653 22.1534 147.156 22.1534C147.696 22.1534 148.159 22.2628 148.545 22.4815C148.931 22.6974 149.228 22.983 149.436 23.3381C149.643 23.6932 149.747 24.0767 149.747 24.4886C149.747 24.9801 149.618 25.3991 149.359 25.7457C149.103 26.0923 148.755 26.3324 148.315 26.4659V26.5341C148.866 26.625 149.297 26.8594 149.606 27.2372C149.916 27.6122 150.071 28.0767 150.071 28.6307C150.071 29.1051 149.941 29.5312 149.683 29.9091C149.427 30.2841 149.078 30.5795 148.635 30.7955C148.191 31.0114 147.687 31.1193 147.122 31.1193Z" fill="#6C737F"/>
<path d="M-62.767 59V48.8182H-61.5341V53.8693H-61.4148L-56.8409 48.8182H-55.2301L-59.5057 53.4119L-55.2301 59H-56.7216L-60.2614 54.267L-61.5341 55.6989V59H-62.767ZM-51.1522 59.1591C-51.888 59.1591 -52.5227 58.9967 -53.0563 58.6719C-53.5866 58.3438 -53.9959 57.8864 -54.2843 57.2997C-54.5693 56.7098 -54.7118 56.0237 -54.7118 55.2415C-54.7118 54.4593 -54.5693 53.7699 -54.2843 53.1733C-53.9959 52.5734 -53.5949 52.1061 -53.0811 51.7713C-52.5641 51.4332 -51.9609 51.2642 -51.2715 51.2642C-50.8738 51.2642 -50.481 51.3305 -50.0932 51.4631C-49.7054 51.5956 -49.3524 51.8111 -49.0343 52.1094C-48.7161 52.4044 -48.4625 52.7955 -48.2736 53.2827C-48.0847 53.7699 -47.9902 54.3698 -47.9902 55.0824V55.5795H-53.8766V54.5653H-49.1834C-49.1834 54.1345 -49.2696 53.75 -49.4419 53.4119C-49.611 53.0739 -49.8529 52.8071 -50.1678 52.6115C-50.4793 52.416 -50.8472 52.3182 -51.2715 52.3182C-51.7388 52.3182 -52.1432 52.4342 -52.4846 52.6662C-52.8226 52.8949 -53.0828 53.1932 -53.2651 53.5611C-53.4474 53.929 -53.5385 54.3234 -53.5385 54.7443V55.4205C-53.5385 55.9972 -53.4391 56.486 -53.2402 56.8871C-53.0381 57.2848 -52.758 57.5881 -52.4 57.7969C-52.0421 58.0024 -51.6261 58.1051 -51.1522 58.1051C-50.8439 58.1051 -50.5655 58.062 -50.3169 57.9759C-50.065 57.8864 -49.848 57.7538 -49.6657 57.5781C-49.4834 57.3991 -49.3425 57.1771 -49.2431 56.9119L-48.1096 57.2301C-48.2289 57.6146 -48.4294 57.9527 -48.7111 58.2443C-48.9928 58.5327 -49.3408 58.758 -49.7551 58.9205C-50.1694 59.0795 -50.6351 59.1591 -51.1522 59.1591ZM-46.2054 59V51.3636H-45.0321V59H-46.2054ZM-45.6088 50.0909C-45.8375 50.0909 -46.0347 50.013 -46.2005 49.8572C-46.3629 49.7015 -46.4441 49.5142 -46.4441 49.2955C-46.4441 49.0767 -46.3629 48.8894 -46.2005 48.7337C-46.0347 48.5779 -45.8375 48.5 -45.6088 48.5C-45.3801 48.5 -45.1846 48.5779 -45.0222 48.7337C-44.8565 48.8894 -44.7736 49.0767 -44.7736 49.2955C-44.7736 49.5142 -44.8565 49.7015 -45.0222 49.8572C-45.1846 50.013 -45.3801 50.0909 -45.6088 50.0909ZM-41.7099 54.4062V59H-42.8832V51.3636H-41.7496V52.5568H-41.6502C-41.4712 52.169 -41.1995 51.8575 -40.8349 51.6222C-40.4703 51.3835 -39.9996 51.2642 -39.4229 51.2642C-38.9059 51.2642 -38.4535 51.3703 -38.0657 51.5824C-37.6779 51.7912 -37.3763 52.1094 -37.1609 52.5369C-36.9454 52.9612 -36.8377 53.4981 -36.8377 54.1477V59H-38.011V54.2273C-38.011 53.6274 -38.1668 53.16 -38.4783 52.8253C-38.7899 52.4872 -39.2174 52.3182 -39.761 52.3182C-40.1355 52.3182 -40.4703 52.3994 -40.7653 52.5618C-41.0569 52.7242 -41.2873 52.9612 -41.4563 53.2727C-41.6254 53.5843 -41.7099 53.9621 -41.7099 54.4062ZM-31.492 59.1591C-32.2278 59.1591 -32.8625 58.9967 -33.3961 58.6719C-33.9264 58.3438 -34.3358 57.8864 -34.6241 57.2997C-34.9092 56.7098 -35.0517 56.0237 -35.0517 55.2415C-35.0517 54.4593 -34.9092 53.7699 -34.6241 53.1733C-34.3358 52.5734 -33.9347 52.1061 -33.421 51.7713C-32.9039 51.4332 -32.3007 51.2642 -31.6113 51.2642C-31.2136 51.2642 -30.8208 51.3305 -30.4331 51.4631C-30.0453 51.5956 -29.6923 51.8111 -29.3741 52.1094C-29.0559 52.4044 -28.8024 52.7955 -28.6135 53.2827C-28.4245 53.7699 -28.3301 54.3698 -28.3301 55.0824V55.5795H-34.2164V54.5653H-29.5233C-29.5233 54.1345 -29.6094 53.75 -29.7818 53.4119C-29.9508 53.0739 -30.1928 52.8071 -30.5076 52.6115C-30.8192 52.416 -31.1871 52.3182 -31.6113 52.3182C-32.0787 52.3182 -32.483 52.4342 -32.8244 52.6662C-33.1625 52.8949 -33.4226 53.1932 -33.6049 53.5611C-33.7872 53.929 -33.8784 54.3234 -33.8784 54.7443V55.4205C-33.8784 55.9972 -33.7789 56.486 -33.5801 56.8871C-33.3779 57.2848 -33.0978 57.5881 -32.7399 57.7969C-32.3819 58.0024 -31.966 58.1051 -31.492 58.1051C-31.1838 58.1051 -30.9054 58.062 -30.6568 57.9759C-30.4049 57.8864 -30.1878 57.7538 -30.0055 57.5781C-29.8232 57.3991 -29.6824 57.1771 -29.5829 56.9119L-28.4494 57.2301C-28.5687 57.6146 -28.7692 57.9527 -29.051 58.2443C-29.3327 58.5327 -29.6807 58.758 -30.095 58.9205C-30.5093 59.0795 -30.975 59.1591 -31.492 59.1591ZM-20.5993 59L-23.3833 48.8182H-22.1305L-20.0027 57.1108H-19.9032L-17.7356 48.8182H-16.3436L-14.176 57.1108H-14.0765L-11.9487 48.8182H-10.6958L-13.4799 59H-14.7527L-16.9998 50.8864H-17.0794L-19.3265 59H-20.5993ZM-6.82795 59.1591C-7.56374 59.1591 -8.19845 58.9967 -8.73207 58.6719C-9.26237 58.3438 -9.6717 57.8864 -9.96005 57.2997C-10.2451 56.7098 -10.3876 56.0237 -10.3876 55.2415C-10.3876 54.4593 -10.2451 53.7699 -9.96005 53.1733C-9.6717 52.5734 -9.27066 52.1061 -8.75692 51.7713C-8.23988 51.4332 -7.63666 51.2642 -6.94727 51.2642C-6.54954 51.2642 -6.15678 51.3305 -5.769 51.4631C-5.38121 51.5956 -5.02823 51.8111 -4.71005 52.1094C-4.39187 52.4044 -4.13832 52.7955 -3.9494 53.2827C-3.76048 53.7699 -3.66602 54.3698 -3.66602 55.0824V55.5795H-9.55238V54.5653H-4.8592C-4.8592 54.1345 -4.94537 53.75 -5.11772 53.4119C-5.28675 53.0739 -5.5287 52.8071 -5.84357 52.6115C-6.15513 52.416 -6.52302 52.3182 -6.94727 52.3182C-7.4146 52.3182 -7.81895 52.4342 -8.16033 52.6662C-8.4984 52.8949 -8.75858 53.1932 -8.94087 53.5611C-9.12317 53.929 -9.21431 54.3234 -9.21431 54.7443V55.4205C-9.21431 55.9972 -9.11488 56.486 -8.91602 56.8871C-8.71384 57.2848 -8.43377 57.5881 -8.07582 57.7969C-7.71786 58.0024 -7.30191 58.1051 -6.82795 58.1051C-6.51971 58.1051 -6.2413 58.062 -5.99272 57.9759C-5.74083 57.8864 -5.52373 57.7538 -5.34144 57.5781C-5.15915 57.3991 -5.01829 57.1771 -4.91886 56.9119L-3.78533 57.2301C-3.90465 57.6146 -4.10517 57.9527 -4.3869 58.2443C-4.66862 58.5327 -5.01663 58.758 -5.43093 58.9205C-5.84523 59.0795 -6.3109 59.1591 -6.82795 59.1591ZM-1.88121 59V51.3636H-0.707919V59H-1.88121ZM-1.28462 50.0909C-1.51332 50.0909 -1.71052 50.013 -1.87624 49.8572C-2.03865 49.7015 -2.11985 49.5142 -2.11985 49.2955C-2.11985 49.0767 -2.03865 48.8894 -1.87624 48.7337C-1.71052 48.5779 -1.51332 48.5 -1.28462 48.5C-1.05593 48.5 -0.860381 48.5779 -0.697976 48.7337C-0.532256 48.8894 -0.449396 49.0767 -0.449396 49.2955C-0.449396 49.5142 -0.532256 49.7015 -0.697976 49.8572C-0.860381 50.013 -1.05593 50.0909 -1.28462 50.0909ZM4.76207 51.3636V52.358H0.804688V51.3636H4.76207ZM1.9581 49.5341H3.13139V56.8125C3.13139 57.1439 3.17945 57.3925 3.27557 57.5582C3.375 57.7206 3.50095 57.83 3.65341 57.8864C3.80919 57.9394 3.97325 57.9659 4.1456 57.9659C4.27486 57.9659 4.38092 57.9593 4.46378 57.946C4.54664 57.9295 4.61293 57.9162 4.66264 57.9062L4.90128 58.9602C4.82173 58.9901 4.7107 59.0199 4.56818 59.0497C4.42566 59.0829 4.24503 59.0994 4.02628 59.0994C3.69484 59.0994 3.37003 59.0282 3.05185 58.8857C2.73698 58.7431 2.47514 58.526 2.26634 58.2344C2.06084 57.9427 1.9581 57.5748 1.9581 57.1307V49.5341ZM9.64666 59.1591C8.91087 59.1591 8.27616 58.9967 7.74254 58.6719C7.21224 58.3438 6.80291 57.8864 6.51456 57.2997C6.22952 56.7098 6.087 56.0237 6.087 55.2415C6.087 54.4593 6.22952 53.7699 6.51456 53.1733C6.80291 52.5734 7.20395 52.1061 7.71768 51.7713C8.23473 51.4332 8.83795 51.2642 9.52734 51.2642C9.92507 51.2642 10.3178 51.3305 10.7056 51.4631C11.0934 51.5956 11.4464 51.8111 11.7646 52.1094C12.0827 52.4044 12.3363 52.7955 12.5252 53.2827C12.7141 53.7699 12.8086 54.3698 12.8086 55.0824V55.5795H6.92223V54.5653H11.6154C11.6154 54.1345 11.5292 53.75 11.3569 53.4119C11.1879 53.0739 10.9459 52.8071 10.631 52.6115C10.3195 52.416 9.95159 52.3182 9.52734 52.3182C9.06001 52.3182 8.65566 52.4342 8.31428 52.6662C7.97621 52.8949 7.71603 53.1932 7.53374 53.5611C7.35144 53.929 7.2603 54.3234 7.2603 54.7443V55.4205C7.2603 55.9972 7.35973 56.486 7.55859 56.8871C7.76077 57.2848 8.04084 57.5881 8.39879 57.7969C8.75675 58.0024 9.1727 58.1051 9.64666 58.1051C9.9549 58.1051 10.2333 58.062 10.4819 57.9759C10.7338 57.8864 10.9509 57.7538 11.1332 57.5781C11.3155 57.3991 11.4563 57.1771 11.5558 56.9119L12.6893 57.2301C12.57 57.6146 12.3694 57.9527 12.0877 58.2443C11.806 58.5327 11.458 58.758 11.0437 58.9205C10.6294 59.0795 10.1637 59.1591 9.64666 59.1591ZM14.5934 59V51.3636H15.7269V52.517H15.8065C15.9457 52.1392 16.1976 51.8326 16.5621 51.5973C16.9267 51.362 17.3377 51.2443 17.7951 51.2443C17.8813 51.2443 17.989 51.246 18.1183 51.2493C18.2475 51.2526 18.3453 51.2576 18.4116 51.2642V52.4574C18.3718 52.4474 18.2807 52.4325 18.1381 52.4126C17.9989 52.3894 17.8514 52.3778 17.6957 52.3778C17.3245 52.3778 16.993 52.4557 16.7013 52.6115C16.413 52.764 16.1843 52.9761 16.0153 53.2479C15.8496 53.5163 15.7667 53.8229 15.7667 54.1676V59H14.5934ZM22.7717 59.1591C22.0359 59.1591 21.4012 58.9967 20.8675 58.6719C20.3372 58.3438 19.9279 57.8864 19.6396 57.2997C19.3545 56.7098 19.212 56.0237 19.212 55.2415C19.212 54.4593 19.3545 53.7699 19.6396 53.1733C19.9279 52.5734 20.329 52.1061 20.8427 51.7713C21.3597 51.4332 21.9629 51.2642 22.6523 51.2642C23.0501 51.2642 23.4428 51.3305 23.8306 51.4631C24.2184 51.5956 24.5714 51.8111 24.8896 52.1094C25.2077 52.4044 25.4613 52.7955 25.6502 53.2827C25.8391 53.7699 25.9336 54.3698 25.9336 55.0824V55.5795H20.0472V54.5653H24.7404C24.7404 54.1345 24.6542 53.75 24.4819 53.4119C24.3129 53.0739 24.0709 52.8071 23.756 52.6115C23.4445 52.416 23.0766 52.3182 22.6523 52.3182C22.185 52.3182 21.7807 52.4342 21.4393 52.6662C21.1012 52.8949 20.841 53.1932 20.6587 53.5611C20.4764 53.929 20.3853 54.3234 20.3853 54.7443V55.4205C20.3853 55.9972 20.4847 56.486 20.6836 56.8871C20.8858 57.2848 21.1658 57.5881 21.5238 57.7969C21.8817 58.0024 22.2977 58.1051 22.7717 58.1051C23.0799 58.1051 23.3583 58.062 23.6069 57.9759C23.8588 57.8864 24.0759 57.7538 24.2582 57.5781C24.4405 57.3991 24.5813 57.1771 24.6808 56.9119L25.8143 57.2301C25.695 57.6146 25.4944 57.9527 25.2127 58.2443C24.931 58.5327 24.583 58.758 24.1687 58.9205C23.7544 59.0795 23.2887 59.1591 22.7717 59.1591ZM27.7184 59V51.3636H28.8519V52.5568H28.9513C29.1104 52.1491 29.3673 51.8326 29.7219 51.6072C30.0766 51.3786 30.5025 51.2642 30.9996 51.2642C31.5034 51.2642 31.9227 51.3786 32.2575 51.6072C32.5955 51.8326 32.859 52.1491 33.0479 52.5568H33.1275C33.323 52.1624 33.6164 51.8492 34.0075 51.6172C34.3986 51.3819 34.8675 51.2642 35.4144 51.2642C36.0972 51.2642 36.6557 51.478 37.0898 51.9055C37.524 52.3298 37.7411 52.991 37.7411 53.8892V59H36.5678V53.8892C36.5678 53.3258 36.4137 52.9231 36.1055 52.6811C35.7972 52.4392 35.4343 52.3182 35.0167 52.3182C34.4798 52.3182 34.0638 52.4806 33.7688 52.8054C33.4738 53.1269 33.3263 53.5346 33.3263 54.0284V59H32.1332V53.7699C32.1332 53.3357 31.9923 52.986 31.7106 52.7209C31.4289 52.4524 31.0659 52.3182 30.6218 52.3182C30.3169 52.3182 30.0318 52.3994 29.7667 52.5618C29.5049 52.7242 29.2927 52.9496 29.1303 53.2379C28.9712 53.523 28.8917 53.8527 28.8917 54.2273V59H27.7184ZM39.8864 61.8636V51.3636H41.0199V52.5767H41.1591C41.2453 52.4441 41.3646 52.2751 41.517 52.0696C41.6728 51.8608 41.8949 51.6752 42.1832 51.5128C42.4749 51.3471 42.8693 51.2642 43.3665 51.2642C44.0095 51.2642 44.5762 51.425 45.0668 51.7464C45.5573 52.0679 45.9401 52.5237 46.2152 53.1136C46.4903 53.7036 46.6278 54.3996 46.6278 55.2017C46.6278 56.0104 46.4903 56.7114 46.2152 57.3047C45.9401 57.8946 45.5589 58.352 45.0717 58.6768C44.5845 58.9983 44.0227 59.1591 43.3864 59.1591C42.8958 59.1591 42.5031 59.0779 42.2081 58.9155C41.9131 58.7498 41.6861 58.5625 41.527 58.3537C41.3679 58.1416 41.2453 57.9659 41.1591 57.8267H41.0597V61.8636H39.8864ZM41.0398 55.1818C41.0398 55.7585 41.1243 56.2673 41.2933 56.7081C41.4624 57.1456 41.7093 57.4886 42.0341 57.7372C42.3589 57.9825 42.7566 58.1051 43.2273 58.1051C43.7178 58.1051 44.1271 57.9759 44.4553 57.7173C44.7867 57.4555 45.0353 57.1042 45.201 56.6634C45.37 56.2192 45.4545 55.7254 45.4545 55.1818C45.4545 54.6449 45.3717 54.161 45.206 53.7301C45.0436 53.2959 44.7966 52.9529 44.4652 52.701C44.1371 52.4458 43.7244 52.3182 43.2273 52.3182C42.75 52.3182 42.349 52.4392 42.0241 52.6811C41.6993 52.9197 41.4541 53.2545 41.2884 53.6854C41.1226 54.1129 41.0398 54.6117 41.0398 55.1818ZM51.8182 51.3636V52.358H47.7017V51.3636H51.8182ZM48.9347 59V50.3097C48.9347 49.8722 49.0374 49.5076 49.2429 49.2159C49.4484 48.9242 49.7152 48.7055 50.0433 48.5597C50.3714 48.4138 50.7178 48.3409 51.0824 48.3409C51.3707 48.3409 51.6061 48.3641 51.7884 48.4105C51.9706 48.4569 52.1065 48.5 52.196 48.5398L51.858 49.554C51.7983 49.5341 51.7154 49.5092 51.6094 49.4794C51.5066 49.4496 51.3707 49.4347 51.2017 49.4347C50.8139 49.4347 50.5339 49.5324 50.3615 49.728C50.1925 49.9235 50.108 50.2102 50.108 50.5881V59H48.9347ZM56.3498 59.1591C55.614 59.1591 54.9793 58.9967 54.4457 58.6719C53.9154 58.3438 53.506 57.8864 53.2177 57.2997C52.9326 56.7098 52.7901 56.0237 52.7901 55.2415C52.7901 54.4593 52.9326 53.7699 53.2177 53.1733C53.506 52.5734 53.9071 52.1061 54.4208 51.7713C54.9379 51.4332 55.5411 51.2642 56.2305 51.2642C56.6282 51.2642 57.021 51.3305 57.4087 51.4631C57.7965 51.5956 58.1495 51.8111 58.4677 52.1094C58.7859 52.4044 59.0394 52.7955 59.2283 53.2827C59.4173 53.7699 59.5117 54.3698 59.5117 55.0824V55.5795H53.6254V54.5653H58.3185C58.3185 54.1345 58.2324 53.75 58.06 53.4119C57.891 53.0739 57.649 52.8071 57.3342 52.6115C57.0226 52.416 56.6547 52.3182 56.2305 52.3182C55.7631 52.3182 55.3588 52.4342 55.0174 52.6662C54.6793 52.8949 54.4192 53.1932 54.2369 53.5611C54.0546 53.929 53.9634 54.3234 53.9634 54.7443V55.4205C53.9634 55.9972 54.0629 56.486 54.2617 56.8871C54.4639 57.2848 54.744 57.5881 55.1019 57.7969C55.4599 58.0024 55.8758 58.1051 56.3498 58.1051C56.658 58.1051 56.9364 58.062 57.185 57.9759C57.4369 57.8864 57.654 57.7538 57.8363 57.5781C58.0186 57.3991 58.1594 57.1771 58.2589 56.9119L59.3924 57.2301C59.2731 57.6146 59.0726 57.9527 58.7908 58.2443C58.5091 58.5327 58.1611 58.758 57.7468 58.9205C57.3325 59.0795 56.8668 59.1591 56.3498 59.1591ZM62.4698 54.4062V59H61.2965V48.8182H62.4698V52.5568H62.5692C62.7482 52.1624 63.0167 51.8492 63.3746 51.6172C63.7359 51.3819 64.2165 51.2642 64.8164 51.2642C65.3368 51.2642 65.7925 51.3686 66.1836 51.5774C66.5747 51.7829 66.878 52.0994 67.0934 52.527C67.3121 52.9512 67.4215 53.4915 67.4215 54.1477V59H66.2482V54.2273C66.2482 53.6207 66.0908 53.1518 65.7759 52.8203C65.4644 52.4856 65.0318 52.3182 64.4783 52.3182C64.0939 52.3182 63.7492 52.3994 63.4442 52.5618C63.1426 52.7242 62.904 52.9612 62.7283 53.2727C62.556 53.5843 62.4698 53.9621 62.4698 54.4062ZM70.7413 48.8182V59H69.568V48.8182H70.7413ZM77.7028 55.8778V51.3636H78.8761V59H77.7028V57.7074H77.6232C77.4442 58.0952 77.1658 58.425 76.788 58.6967C76.4102 58.9652 75.9329 59.0994 75.3562 59.0994C74.8789 59.0994 74.4547 58.995 74.0835 58.7862C73.7122 58.5741 73.4206 58.2559 73.2085 57.8317C72.9963 57.4041 72.8903 56.8655 72.8903 56.2159V51.3636H74.0636V56.1364C74.0636 56.6932 74.2193 57.1373 74.5309 57.4688C74.8458 57.8002 75.2468 57.9659 75.734 57.9659C76.0257 57.9659 76.3223 57.8913 76.6239 57.7422C76.9289 57.593 77.1841 57.3643 77.3896 57.0561C77.5984 56.7479 77.7028 56.3551 77.7028 55.8778ZM82.1983 54.4062V59H81.025V51.3636H82.1586V52.5568H82.258C82.437 52.169 82.7087 51.8575 83.0733 51.6222C83.4379 51.3835 83.9086 51.2642 84.4853 51.2642C85.0023 51.2642 85.4547 51.3703 85.8425 51.5824C86.2303 51.7912 86.5319 52.1094 86.7473 52.5369C86.9628 52.9612 87.0705 53.4981 87.0705 54.1477V59H85.8972V54.2273C85.8972 53.6274 85.7414 53.16 85.4299 52.8253C85.1183 52.4872 84.6908 52.3182 84.1472 52.3182C83.7727 52.3182 83.4379 52.3994 83.1429 52.5618C82.8513 52.7242 82.6209 52.9612 82.4519 53.2727C82.2828 53.5843 82.1983 53.9621 82.1983 54.4062ZM92.2969 62.0227C91.7301 62.0227 91.2429 61.9498 90.8352 61.804C90.4276 61.6615 90.0878 61.4725 89.8161 61.2372C89.5476 61.0052 89.3338 60.7566 89.1747 60.4915L90.1094 59.8352C90.2154 59.9744 90.3497 60.1335 90.5121 60.3125C90.6745 60.4948 90.8965 60.6522 91.1783 60.7848C91.4633 60.9207 91.8362 60.9886 92.2969 60.9886C92.9134 60.9886 93.4221 60.8395 93.8232 60.5412C94.2242 60.2429 94.4247 59.7756 94.4247 59.1392V57.5881H94.3253C94.2391 57.7273 94.1165 57.8996 93.9574 58.1051C93.8016 58.3073 93.5762 58.4879 93.2812 58.647C92.9896 58.8028 92.5952 58.8807 92.098 58.8807C91.4815 58.8807 90.928 58.7348 90.4375 58.4432C89.9503 58.1515 89.5642 57.7273 89.2791 57.1705C88.9974 56.6136 88.8565 55.9375 88.8565 55.142C88.8565 54.3598 88.9941 53.6787 89.2692 53.0987C89.5443 52.5154 89.9271 52.0646 90.4176 51.7464C90.9081 51.425 91.4749 51.2642 92.1179 51.2642C92.6151 51.2642 93.0095 51.3471 93.3011 51.5128C93.5961 51.6752 93.8215 51.8608 93.9773 52.0696C94.1364 52.2751 94.259 52.4441 94.3452 52.5767H94.4645V51.3636H95.598V59.2188C95.598 59.875 95.4489 60.4086 95.1506 60.8196C94.8556 61.2339 94.4579 61.5372 93.9574 61.7294C93.4602 61.925 92.9067 62.0227 92.2969 62.0227ZM92.2571 57.8267C92.7277 57.8267 93.1255 57.719 93.4503 57.5036C93.7751 57.2881 94.022 56.9782 94.1911 56.5739C94.3601 56.1695 94.4446 55.6856 94.4446 55.1222C94.4446 54.572 94.3617 54.0864 94.196 53.6655C94.0303 53.2446 93.785 52.9148 93.4602 52.6761C93.1354 52.4375 92.7344 52.3182 92.2571 52.3182C91.7599 52.3182 91.3456 52.4441 91.0142 52.696C90.6861 52.9479 90.4392 53.286 90.2734 53.7102C90.111 54.1345 90.0298 54.6051 90.0298 55.1222C90.0298 55.6525 90.1127 56.1214 90.2784 56.5291C90.4474 56.9335 90.696 57.2517 91.0241 57.4837C91.3556 57.7124 91.7666 57.8267 92.2571 57.8267Z" fill="#384250"/>
<g filter="url(#filter0_d_3248_2281)">
<rect x="181" y="16" width="68" height="20" rx="10" fill="#38C793" shape-rendering="crispEdges"/>
<rect x="179.5" y="14.5" width="71" height="23" rx="11.5" stroke="#38C793" stroke-opacity="0.4" stroke-width="3" shape-rendering="crispEdges"/>
<path d="M196.277 24.0298C196.195 23.7713 196.084 23.5398 195.945 23.3352C195.808 23.1278 195.645 22.9517 195.455 22.8068C195.264 22.6591 195.047 22.5469 194.803 22.4702C194.561 22.3935 194.296 22.3551 194.006 22.3551C193.514 22.3551 193.071 22.4815 192.676 22.7344C192.281 22.9872 191.969 23.358 191.739 23.8466C191.512 24.3324 191.398 24.9276 191.398 25.6321C191.398 26.3395 191.513 26.9375 191.743 27.4261C191.973 27.9148 192.289 28.2855 192.689 28.5384C193.09 28.7912 193.546 28.9176 194.057 28.9176C194.531 28.9176 194.945 28.821 195.297 28.6278C195.652 28.4347 195.926 28.1619 196.119 27.8097C196.316 27.4545 196.414 27.0369 196.414 26.5568L196.754 26.6207H194.257V25.5341H197.688V26.527C197.688 27.2599 197.531 27.8963 197.219 28.4361C196.909 28.973 196.48 29.3878 195.932 29.6804C195.387 29.973 194.762 30.1193 194.057 30.1193C193.267 30.1193 192.574 29.9375 191.977 29.5739C191.384 29.2102 190.921 28.6946 190.588 28.027C190.256 27.3565 190.09 26.5611 190.09 25.6406C190.09 24.9446 190.186 24.3196 190.379 23.7656C190.573 23.2116 190.844 22.7415 191.193 22.3551C191.546 21.9659 191.959 21.669 192.433 21.4645C192.911 21.2571 193.432 21.1534 193.997 21.1534C194.469 21.1534 194.908 21.223 195.314 21.3622C195.723 21.5014 196.087 21.6989 196.405 21.9545C196.726 22.2102 196.992 22.5142 197.202 22.8665C197.412 23.2159 197.554 23.6037 197.628 24.0298H196.277ZM202.078 30.1321C201.433 30.1321 200.878 29.9943 200.412 29.7188C199.949 29.4403 199.591 29.0497 199.338 28.5469C199.088 28.0412 198.963 27.4489 198.963 26.7699C198.963 26.0994 199.088 25.5085 199.338 24.9972C199.591 24.4858 199.943 24.0866 200.395 23.7997C200.849 23.5128 201.381 23.3693 201.988 23.3693C202.358 23.3693 202.716 23.4304 203.062 23.5526C203.409 23.6747 203.72 23.8665 203.996 24.1278C204.271 24.3892 204.488 24.7287 204.648 25.1463C204.807 25.5611 204.886 26.0653 204.886 26.6591V27.1108H199.683V26.1562H203.638C203.638 25.821 203.569 25.5241 203.433 25.2656C203.297 25.0043 203.105 24.7983 202.858 24.6477C202.613 24.4972 202.327 24.4219 201.997 24.4219C201.639 24.4219 201.327 24.5099 201.059 24.6861C200.795 24.8594 200.591 25.0866 200.446 25.3679C200.304 25.6463 200.233 25.9489 200.233 26.2756V27.0213C200.233 27.4588 200.309 27.831 200.463 28.1378C200.619 28.4446 200.836 28.679 201.115 28.8409C201.393 29 201.719 29.0795 202.091 29.0795C202.332 29.0795 202.552 29.0455 202.751 28.9773C202.95 28.9062 203.122 28.8011 203.267 28.6619C203.412 28.5227 203.523 28.3509 203.599 28.1463L204.805 28.3636C204.709 28.7187 204.535 29.0298 204.285 29.2969C204.038 29.5611 203.727 29.767 203.352 29.9148C202.98 30.0597 202.555 30.1321 202.078 30.1321ZM207.574 21.2727V30H206.3V21.2727H207.574ZM212.045 30.1321C211.432 30.1321 210.896 29.9915 210.439 29.7102C209.981 29.429 209.626 29.0355 209.373 28.5298C209.121 28.0241 208.994 27.4332 208.994 26.7571C208.994 26.0781 209.121 25.4844 209.373 24.9759C209.626 24.4673 209.981 24.0724 210.439 23.7912C210.896 23.5099 211.432 23.3693 212.045 23.3693C212.659 23.3693 213.194 23.5099 213.652 23.7912C214.109 24.0724 214.464 24.4673 214.717 24.9759C214.97 25.4844 215.096 26.0781 215.096 26.7571C215.096 27.4332 214.97 28.0241 214.717 28.5298C214.464 29.0355 214.109 29.429 213.652 29.7102C213.194 29.9915 212.659 30.1321 212.045 30.1321ZM212.05 29.0625C212.447 29.0625 212.777 28.9574 213.038 28.7472C213.3 28.5369 213.493 28.2571 213.618 27.9077C213.746 27.5582 213.809 27.1733 213.809 26.7528C213.809 26.3352 213.746 25.9517 213.618 25.6023C213.493 25.25 213.3 24.9673 213.038 24.7543C212.777 24.5412 212.447 24.4347 212.05 24.4347C211.649 24.4347 211.317 24.5412 211.052 24.7543C210.791 24.9673 210.596 25.25 210.469 25.6023C210.344 25.9517 210.281 26.3352 210.281 26.7528C210.281 27.1733 210.344 27.5582 210.469 27.9077C210.596 28.2571 210.791 28.5369 211.052 28.7472C211.317 28.9574 211.649 29.0625 212.05 29.0625ZM210.792 22.4276C210.594 22.4276 210.419 22.3537 210.268 22.206C210.118 22.0554 210.042 21.8821 210.042 21.6861C210.042 21.473 210.118 21.2955 210.268 21.1534C210.419 21.0114 210.594 20.9403 210.792 20.9403C211.006 20.9403 211.183 21.0114 211.325 21.1534C211.47 21.2955 211.542 21.473 211.542 21.6861C211.542 21.8821 211.47 22.0554 211.325 22.206C211.183 22.3537 211.006 22.4276 210.792 22.4276ZM213.298 22.4276C213.099 22.4276 212.925 22.3537 212.774 22.206C212.623 22.0554 212.548 21.8821 212.548 21.6861C212.548 21.473 212.623 21.2955 212.774 21.1534C212.925 21.0114 213.099 20.9403 213.298 20.9403C213.511 20.9403 213.689 21.0114 213.831 21.1534C213.976 21.2955 214.048 21.473 214.048 21.6861C214.048 21.8821 213.976 22.0554 213.831 22.206C213.689 22.3537 213.511 22.4276 213.298 22.4276ZM221.423 25.0526L220.269 25.2571C220.22 25.1094 220.144 24.9687 220.039 24.8352C219.936 24.7017 219.797 24.5923 219.621 24.5071C219.445 24.4219 219.225 24.3793 218.96 24.3793C218.6 24.3793 218.298 24.4602 218.057 24.6222C217.816 24.7812 217.695 24.9872 217.695 25.2401C217.695 25.4588 217.776 25.6349 217.938 25.7685C218.1 25.902 218.361 26.0114 218.722 26.0966L219.762 26.3352C220.364 26.4744 220.813 26.6889 221.108 26.9787C221.404 27.2685 221.551 27.6449 221.551 28.108C221.551 28.5 221.438 28.8494 221.21 29.1562C220.986 29.4602 220.672 29.6989 220.269 29.8722C219.868 30.0455 219.404 30.1321 218.875 30.1321C218.142 30.1321 217.544 29.9759 217.081 29.6634C216.618 29.348 216.334 28.9006 216.229 28.321L217.46 28.1335C217.537 28.4545 217.695 28.6974 217.933 28.8622C218.172 29.0241 218.483 29.1051 218.867 29.1051C219.284 29.1051 219.618 29.0185 219.868 28.8452C220.118 28.669 220.243 28.4545 220.243 28.2017C220.243 27.9972 220.166 27.8253 220.013 27.6861C219.862 27.5469 219.631 27.4418 219.318 27.3707L218.21 27.1278C217.6 26.9886 217.148 26.767 216.855 26.4631C216.566 26.1591 216.421 25.7741 216.421 25.3082C216.421 24.9219 216.529 24.5838 216.744 24.294C216.96 24.0043 217.259 23.7784 217.639 23.6165C218.02 23.4517 218.456 23.3693 218.948 23.3693C219.655 23.3693 220.212 23.5227 220.618 23.8295C221.024 24.1335 221.293 24.5412 221.423 25.0526ZM225.709 30.1321C225.076 30.1321 224.53 29.9886 224.073 29.7017C223.618 29.4119 223.269 29.0128 223.025 28.5043C222.78 27.9957 222.658 27.4134 222.658 26.7571C222.658 26.0923 222.783 25.5057 223.033 24.9972C223.283 24.4858 223.635 24.0866 224.09 23.7997C224.545 23.5128 225.08 23.3693 225.697 23.3693C226.194 23.3693 226.637 23.4616 227.026 23.6463C227.415 23.8281 227.729 24.0838 227.968 24.4134C228.209 24.7429 228.353 25.1278 228.398 25.5682H227.158C227.09 25.2614 226.934 24.9972 226.689 24.7756C226.448 24.554 226.124 24.4432 225.718 24.4432C225.363 24.4432 225.052 24.5369 224.785 24.7244C224.52 24.9091 224.314 25.1733 224.167 25.517C224.019 25.858 223.945 26.2614 223.945 26.7273C223.945 27.2045 224.018 27.6165 224.162 27.9631C224.307 28.3097 224.512 28.5781 224.776 28.7685C225.043 28.9588 225.357 29.054 225.718 29.054C225.959 29.054 226.178 29.0099 226.374 28.9219C226.573 28.831 226.739 28.7017 226.873 28.5341C227.009 28.3665 227.104 28.1648 227.158 27.929H228.398C228.353 28.3523 228.215 28.7301 227.985 29.0625C227.755 29.3949 227.447 29.6562 227.06 29.8466C226.677 30.0369 226.226 30.1321 225.709 30.1321ZM231.035 26.1136V30H229.761V21.2727H231.018V24.5199H231.099C231.252 24.1676 231.487 23.8878 231.802 23.6804C232.117 23.473 232.529 23.3693 233.038 23.3693C233.487 23.3693 233.879 23.4616 234.214 23.6463C234.552 23.831 234.813 24.1065 234.998 24.473C235.186 24.8366 235.279 25.2912 235.279 25.8366V30H234.005V25.9901C234.005 25.5099 233.882 25.1378 233.634 24.8736C233.387 24.6065 233.044 24.473 232.603 24.473C232.302 24.473 232.032 24.5369 231.794 24.6648C231.558 24.7926 231.372 24.9801 231.235 25.2273C231.102 25.4716 231.035 25.767 231.035 26.1136ZM240.035 23.4545V24.4773H236.46V23.4545H240.035ZM237.419 21.8864H238.693V28.0781C238.693 28.3253 238.73 28.5114 238.803 28.6364C238.877 28.7585 238.972 28.8423 239.089 28.8878C239.208 28.9304 239.338 28.9517 239.477 28.9517C239.579 28.9517 239.669 28.9446 239.745 28.9304C239.822 28.9162 239.882 28.9048 239.924 28.8963L240.154 29.9489C240.08 29.9773 239.975 30.0057 239.839 30.0341C239.703 30.0653 239.532 30.0824 239.328 30.0852C238.992 30.0909 238.68 30.0312 238.39 29.9062C238.1 29.7812 237.866 29.5881 237.687 29.3267C237.508 29.0653 237.419 28.7372 237.419 28.3423V21.8864Z" fill="white"/>
</g>
<rect x="279" width="345" height="80" rx="16" fill="white"/>
<path d="M313.75 23.6922L307.592 22.9527L304.997 17.25L302.401 22.9527L296.25 23.6922L300.798 27.9626L299.595 34.125L304.997 31.0538L310.405 34.125L309.202 27.9626L313.75 23.6922Z" fill="#F2AE40"/>
<path d="M332.412 34.125L327.003 31.0526L321.595 34.125L322.804 27.9602L318.25 23.6948L324.401 22.955L326.997 17.25L329.592 22.955L335.75 23.6948L331.202 27.9602L332.412 34.125ZM327.003 29.5264L330.565 31.5458L329.77 27.487L332.767 24.6745L328.712 24.1879L327.003 20.4291L325.295 24.1879L321.24 24.6745L324.237 27.487L323.442 31.5458L327.003 29.5264Z" fill="#CDD0D5"/>
<path d="M354.412 34.125L349.003 31.0526L343.595 34.125L344.804 27.9602L340.25 23.6948L346.401 22.955L348.997 17.25L351.592 22.955L357.75 23.6948L353.202 27.9602L354.412 34.125ZM349.003 29.5264L352.565 31.5458L351.77 27.487L354.767 24.6745L350.712 24.1879L349.003 20.4291L347.295 24.1879L343.24 24.6745L346.237 27.487L345.442 31.5458L349.003 29.5264Z" fill="#CDD0D5"/>
<path d="M376.412 34.125L371.003 31.0526L365.595 34.125L366.804 27.9602L362.25 23.6948L368.401 22.955L370.997 17.25L373.592 22.955L379.75 23.6948L375.202 27.9602L376.412 34.125ZM371.003 29.5264L374.565 31.5458L373.77 27.487L376.767 24.6745L372.712 24.1879L371.003 20.4291L369.295 24.1879L365.24 24.6745L368.237 27.487L367.442 31.5458L371.003 29.5264Z" fill="#CDD0D5"/>
<path d="M398.412 34.125L393.003 31.0526L387.595 34.125L388.804 27.9602L384.25 23.6948L390.401 22.955L392.997 17.25L395.592 22.955L401.75 23.6948L397.202 27.9602L398.412 34.125ZM393.003 29.5264L396.565 31.5458L395.77 27.487L398.767 24.6745L394.712 24.1879L393.003 20.4291L391.295 24.1879L387.24 24.6745L390.237 27.487L389.442 31.5458L393.003 29.5264Z" fill="#CDD0D5"/>
<path d="M412.972 22.2727V31H411.915V23.3807H411.864L409.733 24.7955V23.7216L411.915 22.2727H412.972ZM418.277 31.1193C417.692 31.1193 417.175 31.0156 416.726 30.8082C416.28 30.598 415.932 30.3097 415.682 29.9432C415.432 29.5739 415.308 29.1534 415.311 28.6818C415.308 28.3125 415.381 27.9716 415.528 27.6591C415.676 27.3437 415.878 27.081 416.134 26.8707C416.392 26.6577 416.68 26.5227 416.999 26.4659V26.4148C416.581 26.3068 416.249 26.0724 416.001 25.7116C415.754 25.348 415.632 24.9347 415.635 24.4716C415.632 24.0284 415.744 23.6321 415.972 23.2827C416.199 22.9332 416.511 22.6577 416.909 22.456C417.31 22.2543 417.766 22.1534 418.277 22.1534C418.783 22.1534 419.234 22.2543 419.632 22.456C420.03 22.6577 420.342 22.9332 420.57 23.2827C420.8 23.6321 420.916 24.0284 420.919 24.4716C420.916 24.9347 420.79 25.348 420.54 25.7116C420.293 26.0724 419.964 26.3068 419.555 26.4148V26.4659C419.871 26.5227 420.155 26.6577 420.408 26.8707C420.661 27.081 420.862 27.3437 421.013 27.6591C421.163 27.9716 421.24 28.3125 421.243 28.6818C421.24 29.1534 421.112 29.5739 420.859 29.9432C420.609 30.3097 420.261 30.598 419.815 30.8082C419.372 31.0156 418.859 31.1193 418.277 31.1193ZM418.277 30.1818C418.672 30.1818 419.013 30.1179 419.3 29.9901C419.587 29.8622 419.808 29.6818 419.964 29.4489C420.121 29.2159 420.2 28.9432 420.203 28.6307C420.2 28.3011 420.115 28.0099 419.947 27.7571C419.78 27.5043 419.551 27.3054 419.261 27.1605C418.974 27.0156 418.646 26.9432 418.277 26.9432C417.905 26.9432 417.572 27.0156 417.28 27.1605C416.99 27.3054 416.761 27.5043 416.594 27.7571C416.429 28.0099 416.348 28.3011 416.351 28.6307C416.348 28.9432 416.423 29.2159 416.577 29.4489C416.733 29.6818 416.956 29.8622 417.246 29.9901C417.536 30.1179 417.879 30.1818 418.277 30.1818ZM418.277 26.0398C418.589 26.0398 418.866 25.9773 419.108 25.8523C419.352 25.7273 419.544 25.5526 419.683 25.3281C419.822 25.1037 419.893 24.8409 419.896 24.5398C419.893 24.2443 419.824 23.9872 419.688 23.7685C419.551 23.5469 419.362 23.3764 419.121 23.2571C418.879 23.1349 418.598 23.0739 418.277 23.0739C417.95 23.0739 417.665 23.1349 417.42 23.2571C417.176 23.3764 416.987 23.5469 416.854 23.7685C416.72 23.9872 416.655 24.2443 416.658 24.5398C416.655 24.8409 416.722 25.1037 416.858 25.3281C416.997 25.5526 417.189 25.7273 417.433 25.8523C417.678 25.9773 417.959 26.0398 418.277 26.0398ZM423.626 29.8835C423.416 29.8835 423.235 29.8082 423.085 29.6577C422.934 29.5071 422.859 29.3267 422.859 29.1165C422.859 28.9062 422.934 28.7259 423.085 28.5753C423.235 28.4247 423.416 28.3494 423.626 28.3494C423.836 28.3494 424.017 28.4247 424.167 28.5753C424.318 28.7259 424.393 28.9062 424.393 29.1165C424.393 29.2557 424.358 29.3835 424.287 29.5C424.218 29.6165 424.126 29.7102 424.01 29.7812C423.896 29.8494 423.768 29.8835 423.626 29.8835ZM423.626 25.4688C423.416 25.4688 423.235 25.3935 423.085 25.2429C422.934 25.0923 422.859 24.9119 422.859 24.7017C422.859 24.4915 422.934 24.3111 423.085 24.1605C423.235 24.0099 423.416 23.9347 423.626 23.9347C423.836 23.9347 424.017 24.0099 424.167 24.1605C424.318 24.3111 424.393 24.4915 424.393 24.7017C424.393 24.8409 424.358 24.9688 424.287 25.0852C424.218 25.2017 424.126 25.2955 424.01 25.3665C423.896 25.4347 423.768 25.4688 423.626 25.4688ZM429.027 31.1193C428.385 31.1193 427.838 30.9446 427.387 30.5952C426.935 30.2429 426.59 29.733 426.351 29.0653C426.113 28.3949 425.993 27.5852 425.993 26.6364C425.993 25.6932 426.113 24.8878 426.351 24.2202C426.593 23.5497 426.939 23.0384 427.391 22.6861C427.846 22.331 428.391 22.1534 429.027 22.1534C429.664 22.1534 430.208 22.331 430.659 22.6861C431.114 23.0384 431.461 23.5497 431.699 24.2202C431.941 24.8878 432.061 25.6932 432.061 26.6364C432.061 27.5852 431.942 28.3949 431.703 29.0653C431.465 29.733 431.12 30.2429 430.668 30.5952C430.216 30.9446 429.669 31.1193 429.027 31.1193ZM429.027 30.1818C429.664 30.1818 430.158 29.875 430.51 29.2614C430.863 28.6477 431.039 27.7727 431.039 26.6364C431.039 25.8807 430.958 25.2372 430.796 24.706C430.637 24.1747 430.407 23.7699 430.105 23.4915C429.807 23.2131 429.448 23.0739 429.027 23.0739C428.397 23.0739 427.904 23.3849 427.549 24.0071C427.194 24.6264 427.016 25.5028 427.016 26.6364C427.016 27.392 427.096 28.0341 427.255 28.5625C427.414 29.0909 427.642 29.4929 427.941 29.7685C428.242 30.044 428.604 30.1818 429.027 30.1818ZM433.476 29.2102V28.3409L437.311 22.2727H437.942V23.6193H437.516L434.618 28.2045V28.2727H439.783V29.2102H433.476ZM437.584 31V28.946V28.5412V22.2727H438.59V31H437.584ZM447.823 22.2727V31H446.766V23.3807H446.715L444.585 24.7955V23.7216L446.766 22.2727H447.823ZM453.18 31.1193C452.538 31.1193 451.991 30.9446 451.539 30.5952C451.087 30.2429 450.742 29.733 450.504 29.0653C450.265 28.3949 450.146 27.5852 450.146 26.6364C450.146 25.6932 450.265 24.8878 450.504 24.2202C450.745 23.5497 451.092 23.0384 451.543 22.6861C451.998 22.331 452.543 22.1534 453.18 22.1534C453.816 22.1534 454.36 22.331 454.812 22.6861C455.266 23.0384 455.613 23.5497 455.852 24.2202C456.093 24.8878 456.214 25.6932 456.214 26.6364C456.214 27.5852 456.094 28.3949 455.856 29.0653C455.617 29.733 455.272 30.2429 454.82 30.5952C454.369 30.9446 453.822 31.1193 453.18 31.1193ZM453.18 30.1818C453.816 30.1818 454.31 29.875 454.663 29.2614C455.015 28.6477 455.191 27.7727 455.191 26.6364C455.191 25.8807 455.11 25.2372 454.948 24.706C454.789 24.1747 454.559 23.7699 454.258 23.4915C453.96 23.2131 453.6 23.0739 453.18 23.0739C452.549 23.0739 452.056 23.3849 451.701 24.0071C451.346 24.6264 451.168 25.5028 451.168 26.6364C451.168 27.392 451.248 28.0341 451.407 28.5625C451.566 29.0909 451.795 29.4929 452.093 29.7685C452.394 30.044 452.756 30.1818 453.18 30.1818ZM460.935 21.8636L458.123 32.3125H457.202L460.015 21.8636H460.935ZM462.11 31V30.233L464.991 27.0795C465.329 26.7102 465.608 26.3892 465.826 26.1165C466.045 25.8409 466.207 25.5824 466.312 25.3409C466.42 25.0966 466.474 24.8409 466.474 24.5739C466.474 24.267 466.4 24.0014 466.252 23.777C466.108 23.5526 465.909 23.3793 465.656 23.2571C465.403 23.1349 465.119 23.0739 464.804 23.0739C464.468 23.0739 464.176 23.1435 463.926 23.2827C463.679 23.419 463.487 23.6108 463.35 23.858C463.217 24.1051 463.15 24.3949 463.15 24.7273H462.145C462.145 24.2159 462.262 23.767 462.498 23.3807C462.734 22.9943 463.055 22.6932 463.461 22.4773C463.87 22.2614 464.329 22.1534 464.838 22.1534C465.349 22.1534 465.802 22.2614 466.197 22.4773C466.592 22.6932 466.902 22.9844 467.126 23.3509C467.35 23.7173 467.463 24.125 467.463 24.5739C467.463 24.8949 467.404 25.2088 467.288 25.5156C467.174 25.8196 466.975 26.1591 466.691 26.5341C466.41 26.9062 466.02 27.3608 465.52 27.8977L463.559 29.9943V30.0625H467.616V31H462.11ZM472.274 31.1193C471.916 31.1136 471.558 31.0455 471.2 30.9148C470.842 30.7841 470.515 30.5639 470.22 30.2543C469.924 29.9418 469.687 29.5199 469.508 28.9886C469.329 28.4545 469.24 27.7841 469.24 26.9773C469.24 26.2045 469.312 25.5199 469.457 24.9233C469.602 24.3239 469.812 23.8196 470.088 23.4105C470.363 22.9986 470.696 22.6861 471.085 22.473C471.477 22.2599 471.919 22.1534 472.41 22.1534C472.899 22.1534 473.333 22.2514 473.714 22.4474C474.098 22.6406 474.41 22.9105 474.652 23.2571C474.893 23.6037 475.049 24.0028 475.12 24.4545H474.081C473.984 24.0625 473.797 23.7372 473.518 23.4787C473.24 23.2202 472.87 23.0909 472.41 23.0909C471.734 23.0909 471.201 23.3849 470.812 23.973C470.426 24.5611 470.231 25.3864 470.228 26.4489H470.297C470.456 26.2074 470.645 26.0014 470.863 25.831C471.085 25.6577 471.329 25.5241 471.596 25.4304C471.863 25.3366 472.146 25.2898 472.444 25.2898C472.944 25.2898 473.402 25.4148 473.816 25.6648C474.231 25.9119 474.564 26.2543 474.814 26.6918C475.064 27.1264 475.189 27.625 475.189 28.1875C475.189 28.7273 475.068 29.2216 474.826 29.6705C474.585 30.1165 474.245 30.4716 473.808 30.7358C473.373 30.9972 472.862 31.125 472.274 31.1193ZM472.274 30.1818C472.632 30.1818 472.953 30.0923 473.237 29.9134C473.524 29.7344 473.75 29.4943 473.914 29.1932C474.082 28.892 474.166 28.5568 474.166 28.1875C474.166 27.8267 474.085 27.4986 473.923 27.2031C473.764 26.9048 473.544 26.6676 473.262 26.4915C472.984 26.3153 472.666 26.2273 472.308 26.2273C472.038 26.2273 471.787 26.2812 471.554 26.3892C471.321 26.4943 471.116 26.6392 470.94 26.8239C470.767 27.0085 470.63 27.2202 470.531 27.4588C470.431 27.6946 470.382 27.9432 470.382 28.2045C470.382 28.5511 470.463 28.875 470.625 29.1761C470.789 29.4773 471.014 29.7202 471.298 29.9048C471.585 30.0895 471.91 30.1818 472.274 30.1818ZM479.967 21.8636L477.154 32.3125H476.234L479.046 21.8636H479.967ZM481.142 31V30.233L484.022 27.0795C484.36 26.7102 484.639 26.3892 484.858 26.1165C485.076 25.8409 485.238 25.5824 485.343 25.3409C485.451 25.0966 485.505 24.8409 485.505 24.5739C485.505 24.267 485.431 24.0014 485.284 23.777C485.139 23.5526 484.94 23.3793 484.687 23.2571C484.434 23.1349 484.15 23.0739 483.835 23.0739C483.5 23.0739 483.207 23.1435 482.957 23.2827C482.71 23.419 482.518 23.6108 482.382 23.858C482.248 24.1051 482.181 24.3949 482.181 24.7273H481.176C481.176 24.2159 481.294 23.767 481.529 23.3807C481.765 22.9943 482.086 22.6932 482.493 22.4773C482.902 22.2614 483.36 22.1534 483.869 22.1534C484.38 22.1534 484.833 22.2614 485.228 22.4773C485.623 22.6932 485.933 22.9844 486.157 23.3509C486.382 23.7173 486.494 24.125 486.494 24.5739C486.494 24.8949 486.436 25.2088 486.319 25.5156C486.206 25.8196 486.007 26.1591 485.723 26.5341C485.441 26.9062 485.051 27.3608 484.551 27.8977L482.591 29.9943V30.0625H486.647V31H481.142ZM491.254 31.1193C490.612 31.1193 490.065 30.9446 489.613 30.5952C489.162 30.2429 488.816 29.733 488.578 29.0653C488.339 28.3949 488.22 27.5852 488.22 26.6364C488.22 25.6932 488.339 24.8878 488.578 24.2202C488.819 23.5497 489.166 23.0384 489.618 22.6861C490.072 22.331 490.618 22.1534 491.254 22.1534C491.89 22.1534 492.434 22.331 492.886 22.6861C493.341 23.0384 493.687 23.5497 493.926 24.2202C494.167 24.8878 494.288 25.6932 494.288 26.6364C494.288 27.5852 494.169 28.3949 493.93 29.0653C493.691 29.733 493.346 30.2429 492.895 30.5952C492.443 30.9446 491.896 31.1193 491.254 31.1193ZM491.254 30.1818C491.89 30.1818 492.385 29.875 492.737 29.2614C493.089 28.6477 493.265 27.7727 493.265 26.6364C493.265 25.8807 493.184 25.2372 493.022 24.706C492.863 24.1747 492.633 23.7699 492.332 23.4915C492.034 23.2131 491.674 23.0739 491.254 23.0739C490.623 23.0739 490.13 23.3849 489.775 24.0071C489.42 24.6264 489.243 25.5028 489.243 26.6364C489.243 27.392 489.322 28.0341 489.481 28.5625C489.64 29.0909 489.869 29.4929 490.167 29.7685C490.468 30.044 490.831 30.1818 491.254 30.1818ZM495.907 31V30.233L498.788 27.0795C499.126 26.7102 499.404 26.3892 499.623 26.1165C499.842 25.8409 500.004 25.5824 500.109 25.3409C500.217 25.0966 500.271 24.8409 500.271 24.5739C500.271 24.267 500.197 24.0014 500.049 23.777C499.904 23.5526 499.706 23.3793 499.453 23.2571C499.2 23.1349 498.916 23.0739 498.6 23.0739C498.265 23.0739 497.973 23.1435 497.723 23.2827C497.475 23.419 497.284 23.6108 497.147 23.858C497.014 24.1051 496.947 24.3949 496.947 24.7273H495.941C495.941 24.2159 496.059 23.767 496.295 23.3807C496.531 22.9943 496.852 22.6932 497.258 22.4773C497.667 22.2614 498.126 22.1534 498.635 22.1534C499.146 22.1534 499.599 22.2614 499.994 22.4773C500.389 22.6932 500.699 22.9844 500.923 23.3509C501.147 23.7173 501.26 24.125 501.26 24.5739C501.26 24.8949 501.201 25.2088 501.085 25.5156C500.971 25.8196 500.772 26.1591 500.488 26.5341C500.207 26.9062 499.816 27.3608 499.316 27.8977L497.356 29.9943V30.0625H501.413V31H495.907ZM506.122 31.1193C505.559 31.1193 505.058 31.0227 504.618 30.8295C504.18 30.6364 503.832 30.3679 503.574 30.0241C503.318 29.6776 503.179 29.2756 503.156 28.8182H504.23C504.252 29.0994 504.349 29.3423 504.52 29.5469C504.69 29.7486 504.913 29.9048 505.189 30.0156C505.464 30.1264 505.77 30.1818 506.105 30.1818C506.48 30.1818 506.812 30.1165 507.102 29.9858C507.392 29.8551 507.619 29.6733 507.784 29.4403C507.949 29.2074 508.031 28.9375 508.031 28.6307C508.031 28.3097 507.951 28.027 507.792 27.7827C507.633 27.5355 507.4 27.3423 507.093 27.2031C506.787 27.0639 506.412 26.9943 505.968 26.9943H505.27V26.0568H505.968C506.315 26.0568 506.619 25.9943 506.88 25.8693C507.145 25.7443 507.35 25.5682 507.498 25.3409C507.649 25.1136 507.724 24.8466 507.724 24.5398C507.724 24.2443 507.659 23.9872 507.528 23.7685C507.397 23.5497 507.213 23.3793 506.974 23.2571C506.738 23.1349 506.46 23.0739 506.139 23.0739C505.838 23.0739 505.554 23.1293 505.287 23.2401C505.022 23.348 504.806 23.5057 504.639 23.7131C504.471 23.9176 504.38 24.1648 504.366 24.4545H503.343C503.36 23.9972 503.498 23.5966 503.757 23.2528C504.015 22.9062 504.353 22.6364 504.771 22.4432C505.191 22.25 505.653 22.1534 506.156 22.1534C506.696 22.1534 507.159 22.2628 507.545 22.4815C507.931 22.6974 508.228 22.983 508.436 23.3381C508.643 23.6932 508.747 24.0767 508.747 24.4886C508.747 24.9801 508.618 25.3991 508.359 25.7457C508.103 26.0923 507.755 26.3324 507.315 26.4659V26.5341C507.866 26.625 508.297 26.8594 508.606 27.2372C508.916 27.6122 509.071 28.0767 509.071 28.6307C509.071 29.1051 508.941 29.5312 508.683 29.9091C508.427 30.2841 508.078 30.5795 507.635 30.7955C507.191 31.0114 506.687 31.1193 506.122 31.1193Z" fill="#6C737F"/>
<path d="M301.801 51.3636C301.741 50.8598 301.5 50.4688 301.075 50.1903C300.651 49.9119 300.131 49.7727 299.514 49.7727C299.063 49.7727 298.669 49.8456 298.331 49.9915C297.996 50.1373 297.734 50.3378 297.545 50.593C297.36 50.8482 297.267 51.1383 297.267 51.4631C297.267 51.7348 297.332 51.9685 297.461 52.1641C297.594 52.3563 297.763 52.517 297.968 52.6463C298.174 52.7723 298.389 52.8767 298.614 52.9595C298.84 53.0391 299.047 53.1037 299.236 53.1534L300.27 53.4318C300.535 53.5014 300.83 53.5975 301.155 53.7202C301.483 53.8428 301.796 54.0102 302.094 54.2223C302.396 54.4311 302.645 54.6996 302.84 55.0277C303.036 55.3558 303.134 55.7585 303.134 56.2358C303.134 56.786 302.989 57.2831 302.701 57.7273C302.416 58.1714 301.998 58.5244 301.448 58.7862C300.901 59.0481 300.237 59.179 299.455 59.179C298.725 59.179 298.094 59.0613 297.56 58.826C297.03 58.5907 296.612 58.2625 296.308 57.8416C296.006 57.4207 295.835 56.9318 295.795 56.375H297.068C297.101 56.7595 297.231 57.0777 297.456 57.3295C297.685 57.5781 297.973 57.7637 298.321 57.8864C298.672 58.0057 299.05 58.0653 299.455 58.0653C299.925 58.0653 300.348 57.9891 300.722 57.8366C301.097 57.6809 301.393 57.4654 301.612 57.1903C301.831 56.9119 301.94 56.5871 301.94 56.2159C301.94 55.8778 301.846 55.6027 301.657 55.3906C301.468 55.1785 301.219 55.0062 300.911 54.8736C300.603 54.741 300.27 54.625 299.912 54.5256L298.659 54.1676C297.864 53.9389 297.234 53.6125 296.77 53.1882C296.306 52.764 296.074 52.2088 296.074 51.5227C296.074 50.9527 296.228 50.4555 296.536 50.0312C296.848 49.6037 297.265 49.2723 297.789 49.0369C298.316 48.7983 298.904 48.679 299.554 48.679C300.21 48.679 300.794 48.7966 301.304 49.032C301.814 49.264 302.219 49.5821 302.517 49.9865C302.819 50.3909 302.978 50.8499 302.994 51.3636H301.801ZM308.104 59.1591C307.388 59.1591 306.771 58.9901 306.254 58.652C305.737 58.3139 305.34 57.8482 305.061 57.255C304.783 56.6617 304.644 55.9839 304.644 55.2216C304.644 54.446 304.786 53.7616 305.071 53.1683C305.36 52.5717 305.761 52.1061 306.274 51.7713C306.791 51.4332 307.395 51.2642 308.084 51.2642C308.621 51.2642 309.105 51.3636 309.536 51.5625C309.967 51.7614 310.32 52.0398 310.595 52.3977C310.87 52.7557 311.04 53.1733 311.107 53.6506H309.933C309.844 53.3026 309.645 52.9943 309.337 52.7259C309.032 52.4541 308.621 52.3182 308.104 52.3182C307.646 52.3182 307.245 52.4375 306.901 52.6761C306.559 52.9115 306.293 53.2446 306.1 53.6754C305.911 54.103 305.817 54.6051 305.817 55.1818C305.817 55.7718 305.91 56.2855 306.095 56.723C306.284 57.1605 306.549 57.5002 306.891 57.7422C307.235 57.9841 307.64 58.1051 308.104 58.1051C308.409 58.1051 308.686 58.0521 308.934 57.946C309.183 57.84 309.393 57.6875 309.566 57.4886C309.738 57.2898 309.86 57.0511 309.933 56.7727H311.107C311.04 57.2235 310.876 57.6295 310.615 57.9908C310.356 58.3487 310.013 58.6338 309.585 58.8459C309.161 59.0547 308.667 59.1591 308.104 59.1591ZM313.995 54.4062V59H312.822V48.8182H313.995V52.5568H314.095C314.274 52.1624 314.542 51.8492 314.9 51.6172C315.261 51.3819 315.742 51.2642 316.342 51.2642C316.862 51.2642 317.318 51.3686 317.709 51.5774C318.1 51.7829 318.403 52.0994 318.619 52.527C318.838 52.9512 318.947 53.4915 318.947 54.1477V59H317.774V54.2273C317.774 53.6207 317.616 53.1518 317.301 52.8203C316.99 52.4856 316.557 52.3182 316.004 52.3182C315.619 52.3182 315.275 52.3994 314.97 52.5618C314.668 52.7242 314.429 52.9612 314.254 53.2727C314.081 53.5843 313.995 53.9621 313.995 54.4062ZM321.093 59V51.3636H322.227V52.5568H322.326C322.485 52.1491 322.742 51.8326 323.097 51.6072C323.452 51.3786 323.877 51.2642 324.375 51.2642C324.878 51.2642 325.298 51.3786 325.632 51.6072C325.971 51.8326 326.234 52.1491 326.423 52.5568H326.502C326.698 52.1624 326.991 51.8492 327.382 51.6172C327.774 51.3819 328.243 51.2642 328.789 51.2642C329.472 51.2642 330.031 51.478 330.465 51.9055C330.899 52.3298 331.116 52.991 331.116 53.8892V59H329.943V53.8892C329.943 53.3258 329.789 52.9231 329.48 52.6811C329.172 52.4392 328.809 52.3182 328.392 52.3182C327.855 52.3182 327.439 52.4806 327.144 52.8054C326.849 53.1269 326.701 53.5346 326.701 54.0284V59H325.508V53.7699C325.508 53.3357 325.367 52.986 325.086 52.7209C324.804 52.4524 324.441 52.3182 323.997 52.3182C323.692 52.3182 323.407 52.3994 323.142 52.5618C322.88 52.7242 322.668 52.9496 322.505 53.2379C322.346 53.523 322.267 53.8527 322.267 54.2273V59H321.093ZM336.463 59.1591C335.727 59.1591 335.093 58.9967 334.559 58.6719C334.029 58.3438 333.619 57.8864 333.331 57.2997C333.046 56.7098 332.903 56.0237 332.903 55.2415C332.903 54.4593 333.046 53.7699 333.331 53.1733C333.619 52.5734 334.02 52.1061 334.534 51.7713C335.051 51.4332 335.654 51.2642 336.344 51.2642C336.741 51.2642 337.134 51.3305 337.522 51.4631C337.91 51.5956 338.263 51.8111 338.581 52.1094C338.899 52.4044 339.153 52.7955 339.342 53.2827C339.531 53.7699 339.625 54.3698 339.625 55.0824V55.5795H333.739V54.5653H338.432C338.432 54.1345 338.346 53.75 338.173 53.4119C338.004 53.0739 337.762 52.8071 337.447 52.6115C337.136 52.416 336.768 52.3182 336.344 52.3182C335.876 52.3182 335.472 52.4342 335.131 52.6662C334.793 52.8949 334.532 53.1932 334.35 53.5611C334.168 53.929 334.077 54.3234 334.077 54.7443V55.4205C334.077 55.9972 334.176 56.486 334.375 56.8871C334.577 57.2848 334.857 57.5881 335.215 57.7969C335.573 58.0024 335.989 58.1051 336.463 58.1051C336.771 58.1051 337.05 58.062 337.298 57.9759C337.55 57.8864 337.767 57.7538 337.95 57.5781C338.132 57.3991 338.273 57.1771 338.372 56.9119L339.506 57.2301C339.386 57.6146 339.186 57.9527 338.904 58.2443C338.622 58.5327 338.274 58.758 337.86 58.9205C337.446 59.0795 336.98 59.1591 336.463 59.1591ZM344.512 59.1591C343.796 59.1591 343.18 58.9901 342.663 58.652C342.146 58.3139 341.748 57.8482 341.469 57.255C341.191 56.6617 341.052 55.9839 341.052 55.2216C341.052 54.446 341.194 53.7616 341.479 53.1683C341.768 52.5717 342.169 52.1061 342.683 51.7713C343.2 51.4332 343.803 51.2642 344.492 51.2642C345.029 51.2642 345.513 51.3636 345.944 51.5625C346.375 51.7614 346.728 52.0398 347.003 52.3977C347.278 52.7557 347.449 53.1733 347.515 53.6506H346.342C346.252 53.3026 346.053 52.9943 345.745 52.7259C345.44 52.4541 345.029 52.3182 344.512 52.3182C344.055 52.3182 343.654 52.4375 343.309 52.6761C342.968 52.9115 342.701 53.2446 342.509 53.6754C342.32 54.103 342.225 54.6051 342.225 55.1818C342.225 55.7718 342.318 56.2855 342.504 56.723C342.692 57.1605 342.958 57.5002 343.299 57.7422C343.644 57.9841 344.048 58.1051 344.512 58.1051C344.817 58.1051 345.094 58.0521 345.342 57.946C345.591 57.84 345.801 57.6875 345.974 57.4886C346.146 57.2898 346.269 57.0511 346.342 56.7727H347.515C347.449 57.2235 347.285 57.6295 347.023 57.9908C346.764 58.3487 346.421 58.6338 345.994 58.8459C345.569 59.0547 345.076 59.1591 344.512 59.1591ZM350.324 56.2159L350.304 54.7642H350.543L353.884 51.3636H355.335L351.776 54.9631H351.676L350.324 56.2159ZM349.23 59V48.8182H350.403V59H349.23ZM354.082 59L351.099 55.2216L351.935 54.4062L355.574 59H354.082ZM360.166 51.3636V52.358H356.209V51.3636H360.166ZM357.362 49.5341H358.536V56.8125C358.536 57.1439 358.584 57.3925 358.68 57.5582C358.779 57.7206 358.905 57.83 359.058 57.8864C359.213 57.9394 359.378 57.9659 359.55 57.9659C359.679 57.9659 359.785 57.9593 359.868 57.946C359.951 57.9295 360.017 57.9162 360.067 57.9062L360.306 58.9602C360.226 58.9901 360.115 59.0199 359.972 59.0497C359.83 59.0829 359.649 59.0994 359.431 59.0994C359.099 59.0994 358.774 59.0282 358.456 58.8857C358.141 58.7431 357.879 58.526 357.671 58.2344C357.465 57.9427 357.362 57.5748 357.362 57.1307V49.5341ZM367.042 54.4062V59H365.869V51.3636H367.002V52.5568H367.102C367.281 52.169 367.552 51.8575 367.917 51.6222C368.282 51.3835 368.752 51.2642 369.329 51.2642C369.846 51.2642 370.298 51.3703 370.686 51.5824C371.074 51.7912 371.376 52.1094 371.591 52.5369C371.807 52.9612 371.914 53.4981 371.914 54.1477V59H370.741V54.2273C370.741 53.6274 370.585 53.16 370.274 52.8253C369.962 52.4872 369.535 52.3182 368.991 52.3182C368.616 52.3182 368.282 52.3994 367.987 52.5618C367.695 52.7242 367.465 52.9612 367.296 53.2727C367.127 53.5843 367.042 53.9621 367.042 54.4062ZM374.058 59V51.3636H375.232V59H374.058ZM374.655 50.0909C374.426 50.0909 374.229 50.013 374.063 49.8572C373.901 49.7015 373.82 49.5142 373.82 49.2955C373.82 49.0767 373.901 48.8894 374.063 48.7337C374.229 48.5779 374.426 48.5 374.655 48.5C374.884 48.5 375.079 48.5779 375.241 48.7337C375.407 48.8894 375.49 49.0767 375.49 49.2955C375.49 49.5142 375.407 49.7015 375.241 49.8572C375.079 50.013 374.884 50.0909 374.655 50.0909ZM380.483 59.1591C379.767 59.1591 379.15 58.9901 378.633 58.652C378.116 58.3139 377.719 57.8482 377.44 57.255C377.162 56.6617 377.023 55.9839 377.023 55.2216C377.023 54.446 377.165 53.7616 377.45 53.1683C377.738 52.5717 378.14 52.1061 378.653 51.7713C379.17 51.4332 379.773 51.2642 380.463 51.2642C381 51.2642 381.484 51.3636 381.915 51.5625C382.345 51.7614 382.698 52.0398 382.974 52.3977C383.249 52.7557 383.419 53.1733 383.486 53.6506H382.312C382.223 53.3026 382.024 52.9943 381.716 52.7259C381.411 52.4541 381 52.3182 380.483 52.3182C380.025 52.3182 379.624 52.4375 379.28 52.6761C378.938 52.9115 378.671 53.2446 378.479 53.6754C378.29 54.103 378.196 54.6051 378.196 55.1818C378.196 55.7718 378.289 56.2855 378.474 56.723C378.663 57.1605 378.928 57.5002 379.27 57.7422C379.614 57.9841 380.019 58.1051 380.483 58.1051C380.788 58.1051 381.064 58.0521 381.313 57.946C381.562 57.84 381.772 57.6875 381.944 57.4886C382.117 57.2898 382.239 57.0511 382.312 56.7727H383.486C383.419 57.2235 383.255 57.6295 382.993 57.9908C382.735 58.3487 382.392 58.6338 381.964 58.8459C381.54 59.0547 381.046 59.1591 380.483 59.1591ZM386.374 54.4062V59H385.201V48.8182H386.374V52.5568H386.474C386.653 52.1624 386.921 51.8492 387.279 51.6172C387.64 51.3819 388.121 51.2642 388.721 51.2642C389.241 51.2642 389.697 51.3686 390.088 51.5774C390.479 51.7829 390.782 52.0994 390.998 52.527C391.216 52.9512 391.326 53.4915 391.326 54.1477V59H390.153V54.2273C390.153 53.6207 389.995 53.1518 389.68 52.8203C389.369 52.4856 388.936 52.3182 388.383 52.3182C387.998 52.3182 387.653 52.3994 387.349 52.5618C387.047 52.7242 386.808 52.9612 386.633 53.2727C386.46 53.5843 386.374 53.9621 386.374 54.4062ZM396.793 51.3636V52.358H392.836V51.3636H396.793ZM393.989 49.5341H395.163V56.8125C395.163 57.1439 395.211 57.3925 395.307 57.5582C395.406 57.7206 395.532 57.83 395.685 57.8864C395.84 57.9394 396.004 57.9659 396.177 57.9659C396.306 57.9659 396.412 57.9593 396.495 57.946C396.578 57.9295 396.644 57.9162 396.694 57.9062L396.933 58.9602C396.853 58.9901 396.742 59.0199 396.599 59.0497C396.457 59.0829 396.276 59.0994 396.058 59.0994C395.726 59.0994 395.401 59.0282 395.083 58.8857C394.768 58.7431 394.506 58.526 394.298 58.2344C394.092 57.9427 393.989 57.5748 393.989 57.1307V49.5341ZM400.109 48.8182L400.01 56.1364H398.857L398.757 48.8182H400.109ZM399.433 59.0795C399.188 59.0795 398.978 58.9917 398.802 58.8161C398.626 58.6404 398.538 58.4299 398.538 58.1847C398.538 57.9394 398.626 57.7289 398.802 57.5533C398.978 57.3776 399.188 57.2898 399.433 57.2898C399.679 57.2898 399.889 57.3776 400.065 57.5533C400.24 57.7289 400.328 57.9394 400.328 58.1847C400.328 58.3471 400.287 58.4962 400.204 58.6321C400.124 58.768 400.017 58.8774 399.881 58.9602C399.748 59.0398 399.599 59.0795 399.433 59.0795Z" fill="#384250"/>
<path d="M540 26C540 20.4772 544.477 16 550 16H598C603.523 16 608 20.4772 608 26C608 31.5228 603.523 36 598 36H550C544.477 36 540 31.5228 540 26Z" fill="#38C793"/>
</g>
<defs>
<filter id="filter0_d_3248_2281" x="162" y="9" width="106" height="58" filterUnits="userSpaceOnUse" color-interpolation-filters="sRGB">
<feFlood flood-opacity="0" result="BackgroundImageFix"/>
<feColorMatrix in="SourceAlpha" type="matrix" values="0 0 0 0 0 0 0 0 0 0 0 0 0 0 0 0 0 0 127 0" result="hardAlpha"/>
<feOffset dy="12"/>
<feGaussianBlur stdDeviation="8"/>
<feComposite in2="hardAlpha" operator="out"/>
<feColorMatrix type="matrix" values="0 0 0 0 0.219608 0 0 0 0 0.780392 0 0 0 0 0.576471 0 0 0 0.49 0"/>
<feBlend mode="normal" in2="BackgroundImageFix" result="effect1_dropShadow_3248_2281"/>
<feBlend mode="normal" in="SourceGraphic" in2="effect1_dropShadow_3248_2281" result="shape"/>
</filter>
<clipPath id="clip0_3248_2281">
<rect width="544" height="80" fill="white"/>
</clipPath>
</defs>
</svg>
