<svg width="377" height="80" viewBox="0 0 377 80" fill="none" xmlns="http://www.w3.org/2000/svg">
<rect width="377" height="80" rx="16" fill="white"/>
<path d="M34.75 23.6922L28.5925 22.9527L25.9967 17.25L23.401 22.9527L17.25 23.6922L21.7975 27.9626L20.5949 34.125L25.9967 31.0538L31.4051 34.125L30.2025 27.9626L34.75 23.6922Z" fill="#F2AE40"/>
<path d="M53.4117 34.125L48.0033 31.0526L42.5949 34.125L43.8041 27.9602L39.25 23.6948L45.401 22.955L47.9967 17.25L50.5925 22.955L56.75 23.6948L52.2025 27.9602L53.4117 34.125ZM48.0033 29.5264L51.5651 31.5458L50.7699 27.487L53.7665 24.6745L49.7119 24.1879L48.0033 20.4291L46.2947 24.1879L42.24 24.6745L45.2367 27.487L44.4415 31.5458L48.0033 29.5264Z" fill="#CDD0D5"/>
<path d="M75.4117 34.125L70.0033 31.0526L64.5949 34.125L65.8041 27.9602L61.25 23.6948L67.401 22.955L69.9967 17.25L72.5925 22.955L78.75 23.6948L74.2025 27.9602L75.4117 34.125ZM70.0033 29.5264L73.5651 31.5458L72.7699 27.487L75.7665 24.6745L71.7119 24.1879L70.0033 20.4291L68.2947 24.1879L64.24 24.6745L67.2367 27.487L66.4415 31.5458L70.0033 29.5264Z" fill="#CDD0D5"/>
<path d="M97.4117 34.125L92.0033 31.0526L86.5949 34.125L87.8041 27.9602L83.25 23.6948L89.401 22.955L91.9967 17.25L94.5925 22.955L100.75 23.6948L96.2025 27.9602L97.4117 34.125ZM92.0033 29.5264L95.5651 31.5458L94.7699 27.487L97.7665 24.6745L93.7119 24.1879L92.0033 20.4291L90.2947 24.1879L86.24 24.6745L89.2367 27.487L88.4415 31.5458L92.0033 29.5264Z" fill="#CDD0D5"/>
<path d="M119.412 34.125L114.003 31.0526L108.595 34.125L109.804 27.9602L105.25 23.6948L111.401 22.955L113.997 17.25L116.592 22.955L122.75 23.6948L118.202 27.9602L119.412 34.125ZM114.003 29.5264L117.565 31.5458L116.77 27.487L119.767 24.6745L115.712 24.1879L114.003 20.4291L112.295 24.1879L108.24 24.6745L111.237 27.487L110.442 31.5458L114.003 29.5264Z" fill="#CDD0D5"/>
<path d="M133.972 22.2727V31H132.915V23.3807H132.864L130.733 24.7955V23.7216L132.915 22.2727H133.972ZM139.277 31.1193C138.692 31.1193 138.175 31.0156 137.726 30.8082C137.28 30.598 136.932 30.3097 136.682 29.9432C136.432 29.5739 136.308 29.1534 136.311 28.6818C136.308 28.3125 136.381 27.9716 136.528 27.6591C136.676 27.3437 136.878 27.081 137.134 26.8707C137.392 26.6577 137.68 26.5227 137.999 26.4659V26.4148C137.581 26.3068 137.249 26.0724 137.001 25.7116C136.754 25.348 136.632 24.9347 136.635 24.4716C136.632 24.0284 136.744 23.6321 136.972 23.2827C137.199 22.9332 137.511 22.6577 137.909 22.456C138.31 22.2543 138.766 22.1534 139.277 22.1534C139.783 22.1534 140.234 22.2543 140.632 22.456C141.03 22.6577 141.342 22.9332 141.57 23.2827C141.8 23.6321 141.916 24.0284 141.919 24.4716C141.916 24.9347 141.79 25.348 141.54 25.7116C141.293 26.0724 140.964 26.3068 140.555 26.4148V26.4659C140.871 26.5227 141.155 26.6577 141.408 26.8707C141.661 27.081 141.862 27.3437 142.013 27.6591C142.163 27.9716 142.24 28.3125 142.243 28.6818C142.24 29.1534 142.112 29.5739 141.859 29.9432C141.609 30.3097 141.261 30.598 140.815 30.8082C140.372 31.0156 139.859 31.1193 139.277 31.1193ZM139.277 30.1818C139.672 30.1818 140.013 30.1179 140.3 29.9901C140.587 29.8622 140.808 29.6818 140.964 29.4489C141.121 29.2159 141.2 28.9432 141.203 28.6307C141.2 28.3011 141.115 28.0099 140.947 27.7571C140.78 27.5043 140.551 27.3054 140.261 27.1605C139.974 27.0156 139.646 26.9432 139.277 26.9432C138.905 26.9432 138.572 27.0156 138.28 27.1605C137.99 27.3054 137.761 27.5043 137.594 27.7571C137.429 28.0099 137.348 28.3011 137.351 28.6307C137.348 28.9432 137.423 29.2159 137.577 29.4489C137.733 29.6818 137.956 29.8622 138.246 29.9901C138.536 30.1179 138.879 30.1818 139.277 30.1818ZM139.277 26.0398C139.589 26.0398 139.866 25.9773 140.108 25.8523C140.352 25.7273 140.544 25.5526 140.683 25.3281C140.822 25.1037 140.893 24.8409 140.896 24.5398C140.893 24.2443 140.824 23.9872 140.688 23.7685C140.551 23.5469 140.362 23.3764 140.121 23.2571C139.879 23.1349 139.598 23.0739 139.277 23.0739C138.95 23.0739 138.665 23.1349 138.42 23.2571C138.176 23.3764 137.987 23.5469 137.854 23.7685C137.72 23.9872 137.655 24.2443 137.658 24.5398C137.655 24.8409 137.722 25.1037 137.858 25.3281C137.997 25.5526 138.189 25.7273 138.433 25.8523C138.678 25.9773 138.959 26.0398 139.277 26.0398ZM144.626 29.8835C144.416 29.8835 144.235 29.8082 144.085 29.6577C143.934 29.5071 143.859 29.3267 143.859 29.1165C143.859 28.9062 143.934 28.7259 144.085 28.5753C144.235 28.4247 144.416 28.3494 144.626 28.3494C144.836 28.3494 145.017 28.4247 145.167 28.5753C145.318 28.7259 145.393 28.9062 145.393 29.1165C145.393 29.2557 145.358 29.3835 145.287 29.5C145.218 29.6165 145.126 29.7102 145.01 29.7812C144.896 29.8494 144.768 29.8835 144.626 29.8835ZM144.626 25.4688C144.416 25.4688 144.235 25.3935 144.085 25.2429C143.934 25.0923 143.859 24.9119 143.859 24.7017C143.859 24.4915 143.934 24.3111 144.085 24.1605C144.235 24.0099 144.416 23.9347 144.626 23.9347C144.836 23.9347 145.017 24.0099 145.167 24.1605C145.318 24.3111 145.393 24.4915 145.393 24.7017C145.393 24.8409 145.358 24.9688 145.287 25.0852C145.218 25.2017 145.126 25.2955 145.01 25.3665C144.896 25.4347 144.768 25.4688 144.626 25.4688ZM150.027 31.1193C149.385 31.1193 148.838 30.9446 148.387 30.5952C147.935 30.2429 147.59 29.733 147.351 29.0653C147.113 28.3949 146.993 27.5852 146.993 26.6364C146.993 25.6932 147.113 24.8878 147.351 24.2202C147.593 23.5497 147.939 23.0384 148.391 22.6861C148.846 22.331 149.391 22.1534 150.027 22.1534C150.664 22.1534 151.208 22.331 151.659 22.6861C152.114 23.0384 152.461 23.5497 152.699 24.2202C152.941 24.8878 153.061 25.6932 153.061 26.6364C153.061 27.5852 152.942 28.3949 152.703 29.0653C152.465 29.733 152.12 30.2429 151.668 30.5952C151.216 30.9446 150.669 31.1193 150.027 31.1193ZM150.027 30.1818C150.664 30.1818 151.158 29.875 151.51 29.2614C151.863 28.6477 152.039 27.7727 152.039 26.6364C152.039 25.8807 151.958 25.2372 151.796 24.706C151.637 24.1747 151.407 23.7699 151.105 23.4915C150.807 23.2131 150.448 23.0739 150.027 23.0739C149.397 23.0739 148.904 23.3849 148.549 24.0071C148.194 24.6264 148.016 25.5028 148.016 26.6364C148.016 27.392 148.096 28.0341 148.255 28.5625C148.414 29.0909 148.642 29.4929 148.941 29.7685C149.242 30.044 149.604 30.1818 150.027 30.1818ZM154.476 29.2102V28.3409L158.311 22.2727H158.942V23.6193H158.516L155.618 28.2045V28.2727H160.783V29.2102H154.476ZM158.584 31V28.946V28.5412V22.2727H159.59V31H158.584ZM168.823 22.2727V31H167.766V23.3807H167.715L165.585 24.7955V23.7216L167.766 22.2727H168.823ZM174.18 31.1193C173.538 31.1193 172.991 30.9446 172.539 30.5952C172.087 30.2429 171.742 29.733 171.504 29.0653C171.265 28.3949 171.146 27.5852 171.146 26.6364C171.146 25.6932 171.265 24.8878 171.504 24.2202C171.745 23.5497 172.092 23.0384 172.543 22.6861C172.998 22.331 173.543 22.1534 174.18 22.1534C174.816 22.1534 175.36 22.331 175.812 22.6861C176.266 23.0384 176.613 23.5497 176.852 24.2202C177.093 24.8878 177.214 25.6932 177.214 26.6364C177.214 27.5852 177.094 28.3949 176.856 29.0653C176.617 29.733 176.272 30.2429 175.82 30.5952C175.369 30.9446 174.822 31.1193 174.18 31.1193ZM174.18 30.1818C174.816 30.1818 175.31 29.875 175.663 29.2614C176.015 28.6477 176.191 27.7727 176.191 26.6364C176.191 25.8807 176.11 25.2372 175.948 24.706C175.789 24.1747 175.559 23.7699 175.258 23.4915C174.96 23.2131 174.6 23.0739 174.18 23.0739C173.549 23.0739 173.056 23.3849 172.701 24.0071C172.346 24.6264 172.168 25.5028 172.168 26.6364C172.168 27.392 172.248 28.0341 172.407 28.5625C172.566 29.0909 172.795 29.4929 173.093 29.7685C173.394 30.044 173.756 30.1818 174.18 30.1818ZM181.935 21.8636L179.123 32.3125H178.202L181.015 21.8636H181.935ZM183.11 31V30.233L185.991 27.0795C186.329 26.7102 186.608 26.3892 186.826 26.1165C187.045 25.8409 187.207 25.5824 187.312 25.3409C187.42 25.0966 187.474 24.8409 187.474 24.5739C187.474 24.267 187.4 24.0014 187.252 23.777C187.108 23.5526 186.909 23.3793 186.656 23.2571C186.403 23.1349 186.119 23.0739 185.804 23.0739C185.468 23.0739 185.176 23.1435 184.926 23.2827C184.679 23.419 184.487 23.6108 184.35 23.858C184.217 24.1051 184.15 24.3949 184.15 24.7273H183.145C183.145 24.2159 183.262 23.767 183.498 23.3807C183.734 22.9943 184.055 22.6932 184.461 22.4773C184.87 22.2614 185.329 22.1534 185.838 22.1534C186.349 22.1534 186.802 22.2614 187.197 22.4773C187.592 22.6932 187.902 22.9844 188.126 23.3509C188.35 23.7173 188.463 24.125 188.463 24.5739C188.463 24.8949 188.404 25.2088 188.288 25.5156C188.174 25.8196 187.975 26.1591 187.691 26.5341C187.41 26.9062 187.02 27.3608 186.52 27.8977L184.559 29.9943V30.0625H188.616V31H183.11ZM193.274 31.1193C192.916 31.1136 192.558 31.0455 192.2 30.9148C191.842 30.7841 191.515 30.5639 191.22 30.2543C190.924 29.9418 190.687 29.5199 190.508 28.9886C190.329 28.4545 190.24 27.7841 190.24 26.9773C190.24 26.2045 190.312 25.5199 190.457 24.9233C190.602 24.3239 190.812 23.8196 191.088 23.4105C191.363 22.9986 191.696 22.6861 192.085 22.473C192.477 22.2599 192.919 22.1534 193.41 22.1534C193.899 22.1534 194.333 22.2514 194.714 22.4474C195.098 22.6406 195.41 22.9105 195.652 23.2571C195.893 23.6037 196.049 24.0028 196.12 24.4545H195.081C194.984 24.0625 194.797 23.7372 194.518 23.4787C194.24 23.2202 193.87 23.0909 193.41 23.0909C192.734 23.0909 192.201 23.3849 191.812 23.973C191.426 24.5611 191.231 25.3864 191.228 26.4489H191.297C191.456 26.2074 191.645 26.0014 191.863 25.831C192.085 25.6577 192.329 25.5241 192.596 25.4304C192.863 25.3366 193.146 25.2898 193.444 25.2898C193.944 25.2898 194.402 25.4148 194.816 25.6648C195.231 25.9119 195.564 26.2543 195.814 26.6918C196.064 27.1264 196.189 27.625 196.189 28.1875C196.189 28.7273 196.068 29.2216 195.826 29.6705C195.585 30.1165 195.245 30.4716 194.808 30.7358C194.373 30.9972 193.862 31.125 193.274 31.1193ZM193.274 30.1818C193.632 30.1818 193.953 30.0923 194.237 29.9134C194.524 29.7344 194.75 29.4943 194.914 29.1932C195.082 28.892 195.166 28.5568 195.166 28.1875C195.166 27.8267 195.085 27.4986 194.923 27.2031C194.764 26.9048 194.544 26.6676 194.262 26.4915C193.984 26.3153 193.666 26.2273 193.308 26.2273C193.038 26.2273 192.787 26.2812 192.554 26.3892C192.321 26.4943 192.116 26.6392 191.94 26.8239C191.767 27.0085 191.63 27.2202 191.531 27.4588C191.431 27.6946 191.382 27.9432 191.382 28.2045C191.382 28.5511 191.463 28.875 191.625 29.1761C191.789 29.4773 192.014 29.7202 192.298 29.9048C192.585 30.0895 192.91 30.1818 193.274 30.1818ZM200.967 21.8636L198.154 32.3125H197.234L200.046 21.8636H200.967ZM202.142 31V30.233L205.022 27.0795C205.36 26.7102 205.639 26.3892 205.858 26.1165C206.076 25.8409 206.238 25.5824 206.343 25.3409C206.451 25.0966 206.505 24.8409 206.505 24.5739C206.505 24.267 206.431 24.0014 206.284 23.777C206.139 23.5526 205.94 23.3793 205.687 23.2571C205.434 23.1349 205.15 23.0739 204.835 23.0739C204.5 23.0739 204.207 23.1435 203.957 23.2827C203.71 23.419 203.518 23.6108 203.382 23.858C203.248 24.1051 203.181 24.3949 203.181 24.7273H202.176C202.176 24.2159 202.294 23.767 202.529 23.3807C202.765 22.9943 203.086 22.6932 203.493 22.4773C203.902 22.2614 204.36 22.1534 204.869 22.1534C205.38 22.1534 205.833 22.2614 206.228 22.4773C206.623 22.6932 206.933 22.9844 207.157 23.3509C207.382 23.7173 207.494 24.125 207.494 24.5739C207.494 24.8949 207.436 25.2088 207.319 25.5156C207.206 25.8196 207.007 26.1591 206.723 26.5341C206.441 26.9062 206.051 27.3608 205.551 27.8977L203.591 29.9943V30.0625H207.647V31H202.142ZM212.254 31.1193C211.612 31.1193 211.065 30.9446 210.613 30.5952C210.162 30.2429 209.816 29.733 209.578 29.0653C209.339 28.3949 209.22 27.5852 209.22 26.6364C209.22 25.6932 209.339 24.8878 209.578 24.2202C209.819 23.5497 210.166 23.0384 210.618 22.6861C211.072 22.331 211.618 22.1534 212.254 22.1534C212.89 22.1534 213.434 22.331 213.886 22.6861C214.341 23.0384 214.687 23.5497 214.926 24.2202C215.167 24.8878 215.288 25.6932 215.288 26.6364C215.288 27.5852 215.169 28.3949 214.93 29.0653C214.691 29.733 214.346 30.2429 213.895 30.5952C213.443 30.9446 212.896 31.1193 212.254 31.1193ZM212.254 30.1818C212.89 30.1818 213.385 29.875 213.737 29.2614C214.089 28.6477 214.265 27.7727 214.265 26.6364C214.265 25.8807 214.184 25.2372 214.022 24.706C213.863 24.1747 213.633 23.7699 213.332 23.4915C213.034 23.2131 212.674 23.0739 212.254 23.0739C211.623 23.0739 211.13 23.3849 210.775 24.0071C210.42 24.6264 210.243 25.5028 210.243 26.6364C210.243 27.392 210.322 28.0341 210.481 28.5625C210.64 29.0909 210.869 29.4929 211.167 29.7685C211.468 30.044 211.831 30.1818 212.254 30.1818ZM216.907 31V30.233L219.788 27.0795C220.126 26.7102 220.404 26.3892 220.623 26.1165C220.842 25.8409 221.004 25.5824 221.109 25.3409C221.217 25.0966 221.271 24.8409 221.271 24.5739C221.271 24.267 221.197 24.0014 221.049 23.777C220.904 23.5526 220.706 23.3793 220.453 23.2571C220.2 23.1349 219.916 23.0739 219.6 23.0739C219.265 23.0739 218.973 23.1435 218.723 23.2827C218.475 23.419 218.284 23.6108 218.147 23.858C218.014 24.1051 217.947 24.3949 217.947 24.7273H216.941C216.941 24.2159 217.059 23.767 217.295 23.3807C217.531 22.9943 217.852 22.6932 218.258 22.4773C218.667 22.2614 219.126 22.1534 219.635 22.1534C220.146 22.1534 220.599 22.2614 220.994 22.4773C221.389 22.6932 221.699 22.9844 221.923 23.3509C222.147 23.7173 222.26 24.125 222.26 24.5739C222.26 24.8949 222.201 25.2088 222.085 25.5156C221.971 25.8196 221.772 26.1591 221.488 26.5341C221.207 26.9062 220.816 27.3608 220.316 27.8977L218.356 29.9943V30.0625H222.413V31H216.907ZM227.122 31.1193C226.559 31.1193 226.058 31.0227 225.618 30.8295C225.18 30.6364 224.832 30.3679 224.574 30.0241C224.318 29.6776 224.179 29.2756 224.156 28.8182H225.23C225.252 29.0994 225.349 29.3423 225.52 29.5469C225.69 29.7486 225.913 29.9048 226.189 30.0156C226.464 30.1264 226.77 30.1818 227.105 30.1818C227.48 30.1818 227.812 30.1165 228.102 29.9858C228.392 29.8551 228.619 29.6733 228.784 29.4403C228.949 29.2074 229.031 28.9375 229.031 28.6307C229.031 28.3097 228.951 28.027 228.792 27.7827C228.633 27.5355 228.4 27.3423 228.093 27.2031C227.787 27.0639 227.412 26.9943 226.968 26.9943H226.27V26.0568H226.968C227.315 26.0568 227.619 25.9943 227.88 25.8693C228.145 25.7443 228.35 25.5682 228.498 25.3409C228.649 25.1136 228.724 24.8466 228.724 24.5398C228.724 24.2443 228.659 23.9872 228.528 23.7685C228.397 23.5497 228.213 23.3793 227.974 23.2571C227.738 23.1349 227.46 23.0739 227.139 23.0739C226.838 23.0739 226.554 23.1293 226.287 23.2401C226.022 23.348 225.806 23.5057 225.639 23.7131C225.471 23.9176 225.38 24.1648 225.366 24.4545H224.343C224.36 23.9972 224.498 23.5966 224.757 23.2528C225.015 22.9062 225.353 22.6364 225.771 22.4432C226.191 22.25 226.653 22.1534 227.156 22.1534C227.696 22.1534 228.159 22.2628 228.545 22.4815C228.931 22.6974 229.228 22.983 229.436 23.3381C229.643 23.6932 229.747 24.0767 229.747 24.4886C229.747 24.9801 229.618 25.3991 229.359 25.7457C229.103 26.0923 228.755 26.3324 228.315 26.4659V26.5341C228.866 26.625 229.297 26.8594 229.606 27.2372C229.916 27.6122 230.071 28.0767 230.071 28.6307C230.071 29.1051 229.941 29.5312 229.683 29.9091C229.427 30.2841 229.078 30.5795 228.635 30.7955C228.191 31.0114 227.687 31.1193 227.122 31.1193Z" fill="#6C737F"/>
<path d="M25.3068 48.8182V59H24.1136L18.5653 51.0057H18.4659V59H17.233V48.8182H18.4261L23.9943 56.8324H24.0938V48.8182H25.3068ZM27.6149 59V51.3636H28.7882V59H27.6149ZM28.2115 50.0909C27.9828 50.0909 27.7856 50.013 27.6199 49.8572C27.4574 49.7015 27.3762 49.5142 27.3762 49.2955C27.3762 49.0767 27.4574 48.8894 27.6199 48.7337C27.7856 48.5779 27.9828 48.5 28.2115 48.5C28.4402 48.5 28.6357 48.5779 28.7981 48.7337C28.9638 48.8894 29.0467 49.0767 29.0467 49.2955C29.0467 49.5142 28.9638 49.7015 28.7981 49.8572C28.6357 50.013 28.4402 50.0909 28.2115 50.0909ZM34.1388 59.1591C33.4031 59.1591 32.7683 58.9967 32.2347 58.6719C31.7044 58.3438 31.2951 57.8864 31.0067 57.2997C30.7217 56.7098 30.5792 56.0237 30.5792 55.2415C30.5792 54.4593 30.7217 53.7699 31.0067 53.1733C31.2951 52.5734 31.6961 52.1061 32.2099 51.7713C32.7269 51.4332 33.3301 51.2642 34.0195 51.2642C34.4173 51.2642 34.81 51.3305 35.1978 51.4631C35.5856 51.5956 35.9386 51.8111 36.2567 52.1094C36.5749 52.4044 36.8285 52.7955 37.0174 53.2827C37.2063 53.7699 37.3008 54.3698 37.3008 55.0824V55.5795H31.4144V54.5653H36.1076C36.1076 54.1345 36.0214 53.75 35.8491 53.4119C35.68 53.0739 35.4381 52.8071 35.1232 52.6115C34.8117 52.416 34.4438 52.3182 34.0195 52.3182C33.5522 52.3182 33.1478 52.4342 32.8065 52.6662C32.4684 52.8949 32.2082 53.1932 32.0259 53.5611C31.8436 53.929 31.7525 54.3234 31.7525 54.7443V55.4205C31.7525 55.9972 31.8519 56.486 32.0508 56.8871C32.253 57.2848 32.533 57.5881 32.891 57.7969C33.2489 58.0024 33.6649 58.1051 34.1388 58.1051C34.4471 58.1051 34.7255 58.062 34.9741 57.9759C35.226 57.8864 35.4431 57.7538 35.6254 57.5781C35.8076 57.3991 35.9485 57.1771 36.0479 56.9119L37.1815 57.2301C37.0621 57.6146 36.8616 57.9527 36.5799 58.2443C36.2982 58.5327 35.9502 58.758 35.5359 58.9205C35.1216 59.0795 34.6559 59.1591 34.1388 59.1591ZM44.7532 59L42.4265 51.3636H43.6594L45.31 57.2102H45.3896L47.0202 51.3636H48.2731L49.8839 57.1903H49.9634L51.614 51.3636H52.8469L50.5202 59H49.3668L47.6964 53.1335H47.5771L45.9066 59H44.7532ZM54.3981 59V51.3636H55.5714V59H54.3981ZM54.9947 50.0909C54.766 50.0909 54.5688 50.013 54.4031 49.8572C54.2406 49.7015 54.1594 49.5142 54.1594 49.2955C54.1594 49.0767 54.2406 48.8894 54.4031 48.7337C54.5688 48.5779 54.766 48.5 54.9947 48.5C55.2234 48.5 55.4189 48.5779 55.5813 48.7337C55.747 48.8894 55.8299 49.0767 55.8299 49.2955C55.8299 49.5142 55.747 49.7015 55.5813 49.8572C55.4189 50.013 55.2234 50.0909 54.9947 50.0909ZM60.9221 59.1591C60.1863 59.1591 59.5516 58.9967 59.0179 58.6719C58.4876 58.3438 58.0783 57.8864 57.79 57.2997C57.5049 56.7098 57.3624 56.0237 57.3624 55.2415C57.3624 54.4593 57.5049 53.7699 57.79 53.1733C58.0783 52.5734 58.4793 52.1061 58.9931 51.7713C59.5101 51.4332 60.1133 51.2642 60.8027 51.2642C61.2005 51.2642 61.5932 51.3305 61.981 51.4631C62.3688 51.5956 62.7218 51.8111 63.04 52.1094C63.3581 52.4044 63.6117 52.7955 63.8006 53.2827C63.9895 53.7699 64.084 54.3698 64.084 55.0824V55.5795H58.1976V54.5653H62.8908C62.8908 54.1345 62.8046 53.75 62.6323 53.4119C62.4632 53.0739 62.2213 52.8071 61.9064 52.6115C61.5949 52.416 61.227 52.3182 60.8027 52.3182C60.3354 52.3182 59.931 52.4342 59.5897 52.6662C59.2516 52.8949 58.9914 53.1932 58.8091 53.5611C58.6268 53.929 58.5357 54.3234 58.5357 54.7443V55.4205C58.5357 55.9972 58.6351 56.486 58.834 56.8871C59.0362 57.2848 59.3162 57.5881 59.6742 57.7969C60.0321 58.0024 60.4481 58.1051 60.9221 58.1051C61.2303 58.1051 61.5087 58.062 61.7573 57.9759C62.0092 57.8864 62.2263 57.7538 62.4086 57.5781C62.5909 57.3991 62.7317 57.1771 62.8311 56.9119L63.9647 57.2301C63.8453 57.6146 63.6448 57.9527 63.3631 58.2443C63.0814 58.5327 62.7334 58.758 62.3191 58.9205C61.9048 59.0795 61.4391 59.1591 60.9221 59.1591ZM68.7523 59.1591C68.1159 59.1591 67.5542 58.9983 67.0669 58.6768C66.5797 58.352 66.1986 57.8946 65.9235 57.3047C65.6484 56.7114 65.5108 56.0104 65.5108 55.2017C65.5108 54.3996 65.6484 53.7036 65.9235 53.1136C66.1986 52.5237 66.5814 52.0679 67.0719 51.7464C67.5624 51.425 68.1292 51.2642 68.7722 51.2642C69.2694 51.2642 69.6621 51.3471 69.9505 51.5128C70.2421 51.6752 70.4642 51.8608 70.6167 52.0696C70.7724 52.2751 70.8934 52.4441 70.9796 52.5767H71.079V48.8182H72.2523V59H71.1188V57.8267H70.9796C70.8934 57.9659 70.7708 58.1416 70.6117 58.3537C70.4526 58.5625 70.2256 58.7498 69.9306 58.9155C69.6356 59.0779 69.2428 59.1591 68.7523 59.1591ZM68.9114 58.1051C69.382 58.1051 69.7798 57.9825 70.1046 57.7372C70.4294 57.4886 70.6763 57.1456 70.8453 56.7081C71.0144 56.2673 71.0989 55.7585 71.0989 55.1818C71.0989 54.6117 71.016 54.1129 70.8503 53.6854C70.6846 53.2545 70.4393 52.9197 70.1145 52.6811C69.7897 52.4392 69.3887 52.3182 68.9114 52.3182C68.4142 52.3182 67.9999 52.4458 67.6685 52.701C67.3404 52.9529 67.0935 53.2959 66.9277 53.7301C66.7653 54.161 66.6841 54.6449 66.6841 55.1818C66.6841 55.7254 66.767 56.2192 66.9327 56.6634C67.1017 57.1042 67.3503 57.4555 67.6784 57.7173C68.0099 57.9759 68.4209 58.1051 68.9114 58.1051ZM77.7658 59.1591C77.03 59.1591 76.3953 58.9967 75.8617 58.6719C75.3314 58.3438 74.9221 57.8864 74.6337 57.2997C74.3487 56.7098 74.2061 56.0237 74.2061 55.2415C74.2061 54.4593 74.3487 53.7699 74.6337 53.1733C74.9221 52.5734 75.3231 52.1061 75.8368 51.7713C76.3539 51.4332 76.9571 51.2642 77.6465 51.2642C78.0442 51.2642 78.437 51.3305 78.8248 51.4631C79.2125 51.5956 79.5655 51.8111 79.8837 52.1094C80.2019 52.4044 80.4554 52.7955 80.6444 53.2827C80.8333 53.7699 80.9277 54.3698 80.9277 55.0824V55.5795H75.0414V54.5653H79.7346C79.7346 54.1345 79.6484 53.75 79.476 53.4119C79.307 53.0739 79.065 52.8071 78.7502 52.6115C78.4386 52.416 78.0707 52.3182 77.6465 52.3182C77.1792 52.3182 76.7748 52.4342 76.4334 52.6662C76.0953 52.8949 75.8352 53.1932 75.6529 53.5611C75.4706 53.929 75.3794 54.3234 75.3794 54.7443V55.4205C75.3794 55.9972 75.4789 56.486 75.6777 56.8871C75.8799 57.2848 76.16 57.5881 76.5179 57.7969C76.8759 58.0024 77.2918 58.1051 77.7658 58.1051C78.074 58.1051 78.3525 58.062 78.601 57.9759C78.8529 57.8864 79.07 57.7538 79.2523 57.5781C79.4346 57.3991 79.5755 57.1771 79.6749 56.9119L80.8084 57.2301C80.6891 57.6146 80.4886 57.9527 80.2069 58.2443C79.9251 58.5327 79.5771 58.758 79.1628 58.9205C78.7485 59.0795 78.2828 59.1591 77.7658 59.1591ZM82.7125 59V51.3636H83.8461V52.517H83.9256C84.0648 52.1392 84.3167 51.8326 84.6813 51.5973C85.0459 51.362 85.4569 51.2443 85.9142 51.2443C86.0004 51.2443 86.1081 51.246 86.2374 51.2493C86.3667 51.2526 86.4644 51.2576 86.5307 51.2642V52.4574C86.4909 52.4474 86.3998 52.4325 86.2573 52.4126C86.1181 52.3894 85.9706 52.3778 85.8148 52.3778C85.4436 52.3778 85.1122 52.4557 84.8205 52.6115C84.5321 52.764 84.3034 52.9761 84.1344 53.2479C83.9687 53.5163 83.8858 53.8229 83.8858 54.1676V59H82.7125ZM89.4727 48.8182L89.3732 56.1364H88.2198L88.1204 48.8182H89.4727ZM88.7965 59.0795C88.5513 59.0795 88.3408 58.9917 88.1651 58.8161C87.9895 58.6404 87.9016 58.4299 87.9016 58.1847C87.9016 57.9394 87.9895 57.7289 88.1651 57.5533C88.3408 57.3776 88.5513 57.2898 88.7965 57.2898C89.0418 57.2898 89.2522 57.3776 89.4279 57.5533C89.6036 57.7289 89.6914 57.9394 89.6914 58.1847C89.6914 58.3471 89.65 58.4962 89.5671 58.6321C89.4876 58.768 89.3799 58.8774 89.244 58.9602C89.1114 59.0398 88.9622 59.0795 88.7965 59.0795Z" fill="#384250"/>
<path d="M277 26C277 20.4772 281.477 16 287 16H351C356.523 16 361 20.4772 361 26C361 31.5228 356.523 36 351 36H287C281.477 36 277 31.5228 277 26Z" fill="#DF1C41"/>
<path d="M292.156 24.0298C292.074 23.7713 291.963 23.5398 291.824 23.3352C291.687 23.1278 291.524 22.9517 291.334 22.8068C291.143 22.6591 290.926 22.5469 290.682 22.4702C290.44 22.3935 290.175 22.3551 289.885 22.3551C289.393 22.3551 288.95 22.4815 288.555 22.7344C288.16 22.9872 287.848 23.358 287.618 23.8466C287.39 24.3324 287.277 24.9276 287.277 25.6321C287.277 26.3395 287.392 26.9375 287.622 27.4261C287.852 27.9148 288.167 28.2855 288.568 28.5384C288.969 28.7912 289.425 28.9176 289.936 28.9176C290.41 28.9176 290.824 28.821 291.176 28.6278C291.531 28.4347 291.805 28.1619 291.998 27.8097C292.194 27.4545 292.292 27.0369 292.292 26.5568L292.633 26.6207H290.136V25.5341H293.567V26.527C293.567 27.2599 293.41 27.8963 293.098 28.4361C292.788 28.973 292.359 29.3878 291.811 29.6804C291.265 29.973 290.64 30.1193 289.936 30.1193C289.146 30.1193 288.453 29.9375 287.856 29.5739C287.263 29.2102 286.8 28.6946 286.467 28.027C286.135 27.3565 285.969 26.5611 285.969 25.6406C285.969 24.9446 286.065 24.3196 286.258 23.7656C286.452 23.2116 286.723 22.7415 287.072 22.3551C287.425 21.9659 287.838 21.669 288.312 21.4645C288.79 21.2571 289.311 21.1534 289.876 21.1534C290.348 21.1534 290.787 21.223 291.193 21.3622C291.602 21.5014 291.966 21.6989 292.284 21.9545C292.605 22.2102 292.871 22.5142 293.081 22.8665C293.291 23.2159 293.433 23.6037 293.507 24.0298H292.156ZM297.957 30.1321C297.312 30.1321 296.757 29.9943 296.291 29.7188C295.828 29.4403 295.47 29.0497 295.217 28.5469C294.967 28.0412 294.842 27.4489 294.842 26.7699C294.842 26.0994 294.967 25.5085 295.217 24.9972C295.47 24.4858 295.822 24.0866 296.274 23.7997C296.728 23.5128 297.259 23.3693 297.867 23.3693C298.237 23.3693 298.595 23.4304 298.941 23.5526C299.288 23.6747 299.599 23.8665 299.874 24.1278C300.15 24.3892 300.367 24.7287 300.526 25.1463C300.686 25.5611 300.765 26.0653 300.765 26.6591V27.1108H295.562V26.1562H299.517C299.517 25.821 299.448 25.5241 299.312 25.2656C299.176 25.0043 298.984 24.7983 298.737 24.6477C298.492 24.4972 298.205 24.4219 297.876 24.4219C297.518 24.4219 297.205 24.5099 296.938 24.6861C296.674 24.8594 296.47 25.0866 296.325 25.3679C296.183 25.6463 296.112 25.9489 296.112 26.2756V27.0213C296.112 27.4588 296.188 27.831 296.342 28.1378C296.498 28.4446 296.715 28.679 296.994 28.8409C297.272 29 297.597 29.0795 297.97 29.0795C298.211 29.0795 298.431 29.0455 298.63 28.9773C298.829 28.9062 299.001 28.8011 299.146 28.6619C299.291 28.5227 299.401 28.3509 299.478 28.1463L300.684 28.3636C300.588 28.7187 300.414 29.0298 300.164 29.2969C299.917 29.5611 299.606 29.767 299.231 29.9148C298.859 30.0597 298.434 30.1321 297.957 30.1321ZM307.084 25.0526L305.929 25.2571C305.881 25.1094 305.804 24.9687 305.699 24.8352C305.596 24.7017 305.457 24.5923 305.281 24.5071C305.105 24.4219 304.885 24.3793 304.621 24.3793C304.26 24.3793 303.959 24.4602 303.717 24.6222C303.476 24.7812 303.355 24.9872 303.355 25.2401C303.355 25.4588 303.436 25.6349 303.598 25.7685C303.76 25.902 304.021 26.0114 304.382 26.0966L305.422 26.3352C306.024 26.4744 306.473 26.6889 306.768 26.9787C307.064 27.2685 307.211 27.6449 307.211 28.108C307.211 28.5 307.098 28.8494 306.871 29.1562C306.646 29.4602 306.332 29.6989 305.929 29.8722C305.528 30.0455 305.064 30.1321 304.535 30.1321C303.802 30.1321 303.204 29.9759 302.741 29.6634C302.278 29.348 301.994 28.9006 301.889 28.321L303.121 28.1335C303.197 28.4545 303.355 28.6974 303.594 28.8622C303.832 29.0241 304.143 29.1051 304.527 29.1051C304.944 29.1051 305.278 29.0185 305.528 28.8452C305.778 28.669 305.903 28.4545 305.903 28.2017C305.903 27.9972 305.827 27.8253 305.673 27.6861C305.523 27.5469 305.291 27.4418 304.979 27.3707L303.871 27.1278C303.26 26.9886 302.808 26.767 302.515 26.4631C302.226 26.1591 302.081 25.7741 302.081 25.3082C302.081 24.9219 302.189 24.5838 302.405 24.294C302.621 24.0043 302.919 23.7784 303.3 23.6165C303.68 23.4517 304.116 23.3693 304.608 23.3693C305.315 23.3693 305.872 23.5227 306.278 23.8295C306.684 24.1335 306.953 24.5412 307.084 25.0526ZM311.369 30.1321C310.736 30.1321 310.191 29.9886 309.733 29.7017C309.279 29.4119 308.929 29.0128 308.685 28.5043C308.441 27.9957 308.318 27.4134 308.318 26.7571C308.318 26.0923 308.443 25.5057 308.693 24.9972C308.943 24.4858 309.296 24.0866 309.75 23.7997C310.205 23.5128 310.74 23.3693 311.357 23.3693C311.854 23.3693 312.297 23.4616 312.686 23.6463C313.075 23.8281 313.389 24.0838 313.628 24.4134C313.869 24.7429 314.013 25.1278 314.058 25.5682H312.818C312.75 25.2614 312.594 24.9972 312.35 24.7756C312.108 24.554 311.784 24.4432 311.378 24.4432C311.023 24.4432 310.712 24.5369 310.445 24.7244C310.181 24.9091 309.975 25.1733 309.827 25.517C309.679 25.858 309.605 26.2614 309.605 26.7273C309.605 27.2045 309.678 27.6165 309.823 27.9631C309.968 28.3097 310.172 28.5781 310.436 28.7685C310.703 28.9588 311.017 29.054 311.378 29.054C311.619 29.054 311.838 29.0099 312.034 28.9219C312.233 28.831 312.399 28.7017 312.533 28.5341C312.669 28.3665 312.764 28.1648 312.818 27.929H314.058C314.013 28.3523 313.875 28.7301 313.645 29.0625C313.415 29.3949 313.107 29.6562 312.72 29.8466C312.337 30.0369 311.887 30.1321 311.369 30.1321ZM316.695 26.1136V30H315.421V21.2727H316.678V24.5199H316.759C316.912 24.1676 317.147 23.8878 317.462 23.6804C317.778 23.473 318.189 23.3693 318.698 23.3693C319.147 23.3693 319.539 23.4616 319.874 23.6463C320.212 23.831 320.474 24.1065 320.658 24.473C320.846 24.8366 320.939 25.2912 320.939 25.8366V30H319.665V25.9901C319.665 25.5099 319.542 25.1378 319.295 24.8736C319.047 24.6065 318.704 24.473 318.263 24.473C317.962 24.473 317.692 24.5369 317.454 24.6648C317.218 24.7926 317.032 24.9801 316.895 25.2273C316.762 25.4716 316.695 25.767 316.695 26.1136ZM325.461 30.1321C324.816 30.1321 324.26 29.9943 323.795 29.7188C323.331 29.4403 322.974 29.0497 322.721 28.5469C322.471 28.0412 322.346 27.4489 322.346 26.7699C322.346 26.0994 322.471 25.5085 322.721 24.9972C322.974 24.4858 323.326 24.0866 323.778 23.7997C324.232 23.5128 324.763 23.3693 325.371 23.3693C325.741 23.3693 326.099 23.4304 326.445 23.5526C326.792 23.6747 327.103 23.8665 327.378 24.1278C327.654 24.3892 327.871 24.7287 328.03 25.1463C328.189 25.5611 328.269 26.0653 328.269 26.6591V27.1108H323.066V26.1562H327.02C327.02 25.821 326.952 25.5241 326.816 25.2656C326.68 25.0043 326.488 24.7983 326.241 24.6477C325.996 24.4972 325.709 24.4219 325.38 24.4219C325.022 24.4219 324.709 24.5099 324.442 24.6861C324.178 24.8594 323.974 25.0866 323.829 25.3679C323.687 25.6463 323.616 25.9489 323.616 26.2756V27.0213C323.616 27.4588 323.692 27.831 323.846 28.1378C324.002 28.4446 324.219 28.679 324.498 28.8409C324.776 29 325.101 29.0795 325.474 29.0795C325.715 29.0795 325.935 29.0455 326.134 28.9773C326.333 28.9062 326.505 28.8011 326.65 28.6619C326.795 28.5227 326.905 28.3509 326.982 28.1463L328.188 28.3636C328.091 28.7187 327.918 29.0298 327.668 29.2969C327.421 29.5611 327.11 29.767 326.735 29.9148C326.363 30.0597 325.938 30.1321 325.461 30.1321ZM329.683 30V23.4545H330.957V30H329.683ZM330.326 22.4446C330.105 22.4446 329.914 22.3707 329.755 22.223C329.599 22.0724 329.521 21.8935 329.521 21.6861C329.521 21.4759 329.599 21.2969 329.755 21.1491C329.914 20.9986 330.105 20.9233 330.326 20.9233C330.548 20.9233 330.737 20.9986 330.893 21.1491C331.052 21.2969 331.132 21.4759 331.132 21.6861C331.132 21.8935 331.052 22.0724 330.893 22.223C330.737 22.3707 330.548 22.4446 330.326 22.4446ZM335.726 23.4545V24.4773H332.151V23.4545H335.726ZM333.11 21.8864H334.384V28.0781C334.384 28.3253 334.421 28.5114 334.495 28.6364C334.569 28.7585 334.664 28.8423 334.78 28.8878C334.9 28.9304 335.029 28.9517 335.168 28.9517C335.27 28.9517 335.36 28.9446 335.437 28.9304C335.513 28.9162 335.573 28.9048 335.616 28.8963L335.846 29.9489C335.772 29.9773 335.667 30.0057 335.53 30.0341C335.394 30.0653 335.224 30.0824 335.019 30.0852C334.684 30.0909 334.371 30.0312 334.081 29.9062C333.792 29.7812 333.557 29.5881 333.378 29.3267C333.199 29.0653 333.11 28.7372 333.11 28.3423V21.8864ZM339.887 30.1321C339.242 30.1321 338.686 29.9943 338.22 29.7188C337.757 29.4403 337.399 29.0497 337.146 28.5469C336.896 28.0412 336.771 27.4489 336.771 26.7699C336.771 26.0994 336.896 25.5085 337.146 24.9972C337.399 24.4858 337.752 24.0866 338.203 23.7997C338.658 23.5128 339.189 23.3693 339.797 23.3693C340.166 23.3693 340.524 23.4304 340.871 23.5526C341.218 23.6747 341.529 23.8665 341.804 24.1278C342.08 24.3892 342.297 24.7287 342.456 25.1463C342.615 25.5611 342.695 26.0653 342.695 26.6591V27.1108H337.492V26.1562H341.446C341.446 25.821 341.378 25.5241 341.242 25.2656C341.105 25.0043 340.914 24.7983 340.666 24.6477C340.422 24.4972 340.135 24.4219 339.806 24.4219C339.448 24.4219 339.135 24.5099 338.868 24.6861C338.604 24.8594 338.399 25.0866 338.254 25.3679C338.112 25.6463 338.041 25.9489 338.041 26.2756V27.0213C338.041 27.4588 338.118 27.831 338.271 28.1378C338.428 28.4446 338.645 28.679 338.923 28.8409C339.202 29 339.527 29.0795 339.899 29.0795C340.141 29.0795 340.361 29.0455 340.56 28.9773C340.759 28.9062 340.931 28.8011 341.075 28.6619C341.22 28.5227 341.331 28.3509 341.408 28.1463L342.614 28.3636C342.517 28.7187 342.344 29.0298 342.094 29.2969C341.847 29.5611 341.536 29.767 341.161 29.9148C340.789 30.0597 340.364 30.1321 339.887 30.1321ZM344.108 30V23.4545H345.34V24.4943H345.408C345.528 24.142 345.738 23.8651 346.039 23.6634C346.343 23.4588 346.687 23.3565 347.07 23.3565C347.15 23.3565 347.243 23.3594 347.351 23.3651C347.462 23.3707 347.549 23.3778 347.611 23.3864V24.6051C347.56 24.5909 347.469 24.5753 347.339 24.5582C347.208 24.5384 347.077 24.5284 346.947 24.5284C346.645 24.5284 346.377 24.5923 346.141 24.7202C345.908 24.8452 345.724 25.0199 345.587 25.2443C345.451 25.4659 345.383 25.7187 345.383 26.0028V30H344.108ZM352.156 23.4545V24.4773H348.581V23.4545H352.156ZM349.54 21.8864H350.814V28.0781C350.814 28.3253 350.851 28.5114 350.925 28.6364C350.998 28.7585 351.094 28.8423 351.21 28.8878C351.329 28.9304 351.459 28.9517 351.598 28.9517C351.7 28.9517 351.79 28.9446 351.866 28.9304C351.943 28.9162 352.003 28.9048 352.045 28.8963L352.275 29.9489C352.202 29.9773 352.096 30.0057 351.96 30.0341C351.824 30.0653 351.653 30.0824 351.449 30.0852C351.113 30.0909 350.801 30.0312 350.511 29.9062C350.221 29.7812 349.987 29.5881 349.808 29.3267C349.629 29.0653 349.54 28.7372 349.54 28.3423V21.8864Z" fill="white"/>
</svg>
