<svg width="438" height="32" viewBox="0 0 438 32" fill="none" xmlns="http://www.w3.org/2000/svg">
<rect x="0.5" width="49" height="32" rx="16" fill="white"/>
<path d="M14.4787 21H12.848L16.5121 10.8182H18.2869L21.951 21H20.3203L17.4418 12.6676H17.3622L14.4787 21ZM14.7521 17.0128H20.0419V18.3054H14.7521V17.0128ZM24.7885 10.8182V21H23.302V10.8182H24.7885ZM28.2749 10.8182V21H26.7884V10.8182H28.2749ZM33.5659 21.1541C32.8135 21.1541 32.1655 20.9934 31.622 20.6719C31.0817 20.3471 30.6641 19.8913 30.3691 19.3047C30.0775 18.7147 29.9316 18.0237 29.9316 17.2315C29.9316 16.4493 30.0775 15.7599 30.3691 15.1634C30.6641 14.5668 31.0751 14.1011 31.6021 13.7663C32.1324 13.4316 32.7522 13.2642 33.4615 13.2642C33.8923 13.2642 34.31 13.3355 34.7143 13.478C35.1187 13.6205 35.4816 13.8442 35.8031 14.1491C36.1246 14.4541 36.3781 14.8501 36.5637 15.3374C36.7493 15.8213 36.8422 16.4096 36.8422 17.1023V17.6293H30.7718V16.5156H35.3855C35.3855 16.1245 35.3059 15.7782 35.1468 15.4766C34.9877 15.1716 34.764 14.9313 34.4757 14.7557C34.1906 14.58 33.8559 14.4922 33.4714 14.4922C33.0538 14.4922 32.6892 14.5949 32.3777 14.8004C32.0694 15.0026 31.8308 15.2678 31.6618 15.5959C31.496 15.9207 31.4132 16.2737 31.4132 16.6548V17.5249C31.4132 18.0353 31.5027 18.4695 31.6816 18.8274C31.8639 19.1854 32.1175 19.4588 32.4423 19.6477C32.7671 19.8333 33.1466 19.9261 33.5808 19.9261C33.8625 19.9261 34.1194 19.8864 34.3514 19.8068C34.5834 19.724 34.7839 19.6013 34.9529 19.4389C35.122 19.2765 35.2512 19.076 35.3407 18.8374L36.7477 19.0909C36.635 19.5052 36.4328 19.8681 36.1412 20.1797C35.8528 20.4879 35.4899 20.7282 35.0524 20.9006C34.6182 21.0696 34.1227 21.1541 33.5659 21.1541Z" fill="#1E352D"/>
<rect x="60.5" width="144" height="32" rx="16" fill="#9A6060"/>
<path d="M73.2656 19.0114V17.7685L77.6655 10.8182H78.6449V12.6477H78.0234L74.8764 17.6293V17.7088H80.907V19.0114H73.2656ZM78.093 21V18.6335L78.103 18.0668V10.8182H79.5597V21H78.093ZM86.1843 21.169C85.3988 21.1657 84.7276 20.9586 84.1708 20.5476C83.614 20.1366 83.1881 19.5384 82.8931 18.7528C82.5981 17.9673 82.4506 17.0211 82.4506 15.9141C82.4506 14.8104 82.5981 13.8674 82.8931 13.0852C83.1914 12.303 83.619 11.7064 84.1758 11.2955C84.7359 10.8845 85.4054 10.679 86.1843 10.679C86.9632 10.679 87.631 10.8861 88.1879 11.3004C88.7447 11.7114 89.1706 12.308 89.4656 13.0902C89.7638 13.8691 89.913 14.8104 89.913 15.9141C89.913 17.0244 89.7655 17.9723 89.4705 18.7578C89.1755 19.54 88.7496 20.1383 88.1928 20.5526C87.636 20.9635 86.9665 21.169 86.1843 21.169ZM86.1843 19.8416C86.8737 19.8416 87.4123 19.5052 87.8001 18.8324C88.1912 18.1596 88.3867 17.1868 88.3867 15.9141C88.3867 15.0689 88.2972 14.3546 88.1183 13.7713C87.9426 13.1847 87.689 12.7405 87.3576 12.4389C87.0295 12.134 86.6384 11.9815 86.1843 11.9815C85.4982 11.9815 84.9596 12.3196 84.5685 12.9957C84.1774 13.6719 83.9802 14.6446 83.9769 15.9141C83.9769 16.7625 84.0647 17.4801 84.2404 18.0668C84.4194 18.6501 84.6729 19.0926 85.0011 19.3942C85.3292 19.6925 85.7236 19.8416 86.1843 19.8416ZM97.0572 10.8182V21H95.521V10.8182H97.0572ZM100.662 16.4659V21H99.1751V13.3636H100.602V14.6065H100.696C100.872 14.2022 101.147 13.8774 101.522 13.6321C101.9 13.3868 102.375 13.2642 102.949 13.2642C103.469 13.2642 103.925 13.3736 104.316 13.5923C104.707 13.8078 105.01 14.1293 105.225 14.5568C105.441 14.9844 105.549 15.513 105.549 16.1428V21H104.062V16.3217C104.062 15.7682 103.918 15.3357 103.63 15.0241C103.341 14.7093 102.945 14.5518 102.441 14.5518C102.097 14.5518 101.79 14.6264 101.522 14.7756C101.257 14.9247 101.046 15.1435 100.89 15.4318C100.738 15.7169 100.662 16.0616 100.662 16.4659ZM111.367 21V10.8182H115.095C115.818 10.8182 116.416 10.9375 116.89 11.1761C117.364 11.4115 117.719 11.7313 117.954 12.1357C118.189 12.5367 118.307 12.9891 118.307 13.4929C118.307 13.9171 118.229 14.2751 118.073 14.5668C117.918 14.8551 117.709 15.0871 117.447 15.2628C117.188 15.4351 116.903 15.5611 116.592 15.6406V15.7401C116.93 15.7566 117.26 15.866 117.581 16.0682C117.906 16.267 118.174 16.5504 118.387 16.9183C118.599 17.2862 118.705 17.7337 118.705 18.2607C118.705 18.781 118.582 19.2483 118.337 19.6626C118.095 20.0736 117.72 20.4001 117.213 20.642C116.706 20.8807 116.058 21 115.269 21H111.367ZM112.903 19.6825H115.12C115.856 19.6825 116.383 19.54 116.701 19.255C117.019 18.9699 117.178 18.6136 117.178 18.1861C117.178 17.8646 117.097 17.5696 116.935 17.3011C116.772 17.0327 116.54 16.8189 116.239 16.6598C115.941 16.5007 115.586 16.4212 115.175 16.4212H112.903V19.6825ZM112.903 15.223H114.961C115.306 15.223 115.616 15.1567 115.891 15.0241C116.169 14.8916 116.39 14.706 116.552 14.4673C116.718 14.2254 116.801 13.9403 116.801 13.6122C116.801 13.1913 116.653 12.8383 116.358 12.5533C116.063 12.2682 115.611 12.1257 115.001 12.1257H112.903V15.223ZM123.699 21.1541C122.946 21.1541 122.298 20.9934 121.755 20.6719C121.215 20.3471 120.797 19.8913 120.502 19.3047C120.21 18.7147 120.064 18.0237 120.064 17.2315C120.064 16.4493 120.21 15.7599 120.502 15.1634C120.797 14.5668 121.208 14.1011 121.735 13.7663C122.265 13.4316 122.885 13.2642 123.594 13.2642C124.025 13.2642 124.443 13.3355 124.847 13.478C125.251 13.6205 125.614 13.8442 125.936 14.1491C126.257 14.4541 126.511 14.8501 126.697 15.3374C126.882 15.8213 126.975 16.4096 126.975 17.1023V17.6293H120.905V16.5156H125.518C125.518 16.1245 125.439 15.7782 125.28 15.4766C125.121 15.1716 124.897 14.9313 124.608 14.7557C124.323 14.58 123.989 14.4922 123.604 14.4922C123.187 14.4922 122.822 14.5949 122.51 14.8004C122.202 15.0026 121.964 15.2678 121.795 15.5959C121.629 15.9207 121.546 16.2737 121.546 16.6548V17.5249C121.546 18.0353 121.635 18.4695 121.814 18.8274C121.997 19.1854 122.25 19.4588 122.575 19.6477C122.9 19.8333 123.279 19.9261 123.714 19.9261C123.995 19.9261 124.252 19.8864 124.484 19.8068C124.716 19.724 124.917 19.6013 125.086 19.4389C125.255 19.2765 125.384 19.076 125.474 18.8374L126.881 19.0909C126.768 19.5052 126.566 19.8681 126.274 20.1797C125.986 20.4879 125.623 20.7282 125.185 20.9006C124.751 21.0696 124.256 21.1541 123.699 21.1541ZM130.847 21.169C130.363 21.169 129.925 21.0795 129.534 20.9006C129.143 20.7183 128.833 20.4548 128.604 20.1101C128.379 19.7654 128.266 19.3428 128.266 18.8423C128.266 18.4115 128.349 18.0568 128.515 17.7784C128.681 17.5 128.904 17.2796 129.186 17.1172C129.468 16.9548 129.783 16.8321 130.131 16.7493C130.479 16.6664 130.833 16.6035 131.195 16.5604C131.652 16.5073 132.023 16.4643 132.308 16.4311C132.593 16.3946 132.8 16.3366 132.93 16.2571C133.059 16.1776 133.124 16.0483 133.124 15.8693V15.8345C133.124 15.4003 133.001 15.0639 132.756 14.8253C132.514 14.5866 132.152 14.4673 131.672 14.4673C131.171 14.4673 130.777 14.5784 130.489 14.8004C130.204 15.0192 130.006 15.2628 129.897 15.5312L128.5 15.2131C128.666 14.7491 128.908 14.3745 129.226 14.0895C129.547 13.8011 129.917 13.5923 130.335 13.4631C130.752 13.3305 131.191 13.2642 131.652 13.2642C131.957 13.2642 132.28 13.3007 132.621 13.3736C132.966 13.4432 133.288 13.5724 133.586 13.7614C133.888 13.9503 134.134 14.2204 134.327 14.5717C134.519 14.9197 134.615 15.3722 134.615 15.929V21H133.163V19.956H133.104C133.008 20.1482 132.863 20.3371 132.671 20.5227C132.479 20.7083 132.232 20.8625 131.93 20.9851C131.629 21.1077 131.268 21.169 130.847 21.169ZM131.17 19.9759C131.581 19.9759 131.932 19.8946 132.224 19.7322C132.519 19.5698 132.742 19.3577 132.895 19.0959C133.051 18.8307 133.129 18.5473 133.129 18.2457V17.2614C133.076 17.3144 132.973 17.3641 132.82 17.4105C132.671 17.4536 132.5 17.4917 132.308 17.5249C132.116 17.5547 131.929 17.5829 131.746 17.6094C131.564 17.6326 131.412 17.6525 131.289 17.669C131.001 17.7055 130.737 17.7668 130.499 17.853C130.263 17.9392 130.074 18.0634 129.932 18.2259C129.793 18.3849 129.723 18.5971 129.723 18.8622C129.723 19.2301 129.859 19.5085 130.131 19.6974C130.402 19.883 130.749 19.9759 131.17 19.9759ZM136.595 21V13.3636H138.032V14.5767H138.111C138.251 14.1657 138.496 13.8426 138.847 13.6072C139.202 13.3686 139.603 13.2493 140.05 13.2493C140.143 13.2493 140.252 13.2526 140.378 13.2592C140.508 13.2659 140.609 13.2741 140.682 13.2841V14.706C140.622 14.6894 140.516 14.6712 140.363 14.6513C140.211 14.6281 140.059 14.6165 139.906 14.6165C139.555 14.6165 139.242 14.6911 138.966 14.8402C138.695 14.986 138.479 15.1899 138.32 15.4517C138.161 15.7102 138.081 16.0052 138.081 16.3366V21H136.595ZM142.087 21V10.8182H143.574V14.6016H143.663C143.75 14.4425 143.874 14.2585 144.036 14.0497C144.199 13.8409 144.424 13.6586 144.712 13.5028C145.001 13.3438 145.382 13.2642 145.856 13.2642C146.472 13.2642 147.022 13.42 147.506 13.7315C147.99 14.0431 148.37 14.4922 148.645 15.0788C148.923 15.6655 149.062 16.3714 149.062 17.1967C149.062 18.022 148.925 18.7296 148.65 19.3196C148.375 19.9062 147.997 20.3587 147.516 20.6768C147.036 20.9917 146.487 21.1491 145.871 21.1491C145.407 21.1491 145.027 21.0713 144.732 20.9155C144.441 20.7597 144.212 20.5774 144.046 20.3686C143.88 20.1598 143.753 19.9742 143.663 19.8118H143.539V21H142.087ZM143.544 17.1818C143.544 17.7187 143.622 18.1894 143.778 18.5938C143.933 18.9981 144.159 19.3146 144.454 19.5433C144.749 19.7687 145.11 19.8814 145.538 19.8814C145.982 19.8814 146.353 19.7637 146.651 19.5284C146.95 19.2898 147.175 18.9666 147.327 18.5589C147.483 18.1513 147.561 17.6922 147.561 17.1818C147.561 16.678 147.485 16.2256 147.332 15.8246C147.183 15.4235 146.958 15.107 146.656 14.875C146.358 14.643 145.985 14.527 145.538 14.527C145.107 14.527 144.742 14.638 144.444 14.8601C144.149 15.0821 143.925 15.392 143.773 15.7898C143.62 16.1875 143.544 16.6515 143.544 17.1818ZM154.023 21.1541C153.271 21.1541 152.623 20.9934 152.079 20.6719C151.539 20.3471 151.121 19.8913 150.826 19.3047C150.535 18.7147 150.389 18.0237 150.389 17.2315C150.389 16.4493 150.535 15.7599 150.826 15.1634C151.121 14.5668 151.532 14.1011 152.059 13.7663C152.589 13.4316 153.209 13.2642 153.919 13.2642C154.349 13.2642 154.767 13.3355 155.171 13.478C155.576 13.6205 155.939 13.8442 156.26 14.1491C156.582 14.4541 156.835 14.8501 157.021 15.3374C157.206 15.8213 157.299 16.4096 157.299 17.1023V17.6293H151.229V16.5156H155.843C155.843 16.1245 155.763 15.7782 155.604 15.4766C155.445 15.1716 155.221 14.9313 154.933 14.7557C154.648 14.58 154.313 14.4922 153.928 14.4922C153.511 14.4922 153.146 14.5949 152.835 14.8004C152.526 15.0026 152.288 15.2678 152.119 15.5959C151.953 15.9207 151.87 16.2737 151.87 16.6548V17.5249C151.87 18.0353 151.96 18.4695 152.139 18.8274C152.321 19.1854 152.575 19.4588 152.899 19.6477C153.224 19.8333 153.604 19.9261 154.038 19.9261C154.32 19.9261 154.576 19.8864 154.808 19.8068C155.04 19.724 155.241 19.6013 155.41 19.4389C155.579 19.2765 155.708 19.076 155.798 18.8374L157.205 19.0909C157.092 19.5052 156.89 19.8681 156.598 20.1797C156.31 20.4879 155.947 20.7282 155.509 20.9006C155.075 21.0696 154.58 21.1541 154.023 21.1541ZM158.949 21V13.3636H160.435V21H158.949ZM159.699 12.1854C159.441 12.1854 159.219 12.0992 159.033 11.9268C158.851 11.7512 158.76 11.5424 158.76 11.3004C158.76 11.0552 158.851 10.8464 159.033 10.674C159.219 10.4983 159.441 10.4105 159.699 10.4105C159.958 10.4105 160.178 10.4983 160.36 10.674C160.546 10.8464 160.639 11.0552 160.639 11.3004C160.639 11.5424 160.546 11.7512 160.36 11.9268C160.178 12.0992 159.958 12.1854 159.699 12.1854ZM165.999 13.3636V14.5568H161.828V13.3636H165.999ZM162.947 11.5341H164.433V18.7578C164.433 19.0462 164.477 19.2633 164.563 19.4091C164.649 19.5516 164.76 19.6494 164.896 19.7024C165.035 19.7521 165.186 19.777 165.348 19.777C165.468 19.777 165.572 19.7687 165.661 19.7521C165.751 19.7356 165.82 19.7223 165.87 19.7124L166.139 20.9403C166.052 20.9735 165.93 21.0066 165.771 21.0398C165.612 21.0762 165.413 21.0961 165.174 21.0994C164.783 21.1061 164.419 21.0365 164.08 20.8906C163.742 20.7448 163.469 20.5194 163.26 20.2145C163.051 19.9096 162.947 19.5268 162.947 19.0661V11.5341ZM172.481 17.8331V13.3636H173.973V21H172.511V19.6776H172.431C172.256 20.0852 171.974 20.425 171.586 20.6967C171.202 20.9652 170.723 21.0994 170.15 21.0994C169.659 21.0994 169.225 20.9917 168.847 20.7763C168.472 20.5575 168.177 20.2344 167.962 19.8068C167.75 19.3793 167.644 18.8506 167.644 18.2209V13.3636H169.13V18.0419C169.13 18.5623 169.275 18.9766 169.563 19.2848C169.851 19.593 170.226 19.7472 170.686 19.7472C170.965 19.7472 171.242 19.6776 171.517 19.5384C171.795 19.3991 172.025 19.1887 172.208 18.907C172.393 18.6252 172.484 18.2673 172.481 17.8331ZM177.456 16.4659V21H175.97V13.3636H177.397V14.6065H177.491C177.667 14.2022 177.942 13.8774 178.317 13.6321C178.694 13.3868 179.17 13.2642 179.743 13.2642C180.264 13.2642 180.72 13.3736 181.111 13.5923C181.502 13.8078 181.805 14.1293 182.02 14.5568C182.236 14.9844 182.344 15.513 182.344 16.1428V21H180.857V16.3217C180.857 15.7682 180.713 15.3357 180.425 15.0241C180.136 14.7093 179.74 14.5518 179.236 14.5518C178.892 14.5518 178.585 14.6264 178.317 14.7756C178.051 14.9247 177.841 15.1435 177.685 15.4318C177.533 15.7169 177.456 16.0616 177.456 16.4659ZM187.539 24.0227C186.932 24.0227 186.41 23.9432 185.973 23.7841C185.539 23.625 185.184 23.4145 184.909 23.1527C184.634 22.8909 184.428 22.6042 184.292 22.2926L185.57 21.7656C185.66 21.9115 185.779 22.0656 185.928 22.228C186.081 22.3937 186.286 22.5346 186.545 22.6506C186.806 22.7666 187.143 22.8246 187.554 22.8246C188.117 22.8246 188.583 22.687 188.951 22.4119C189.319 22.1402 189.503 21.706 189.503 21.1094V19.608H189.408C189.319 19.7704 189.189 19.951 189.02 20.1499C188.855 20.3487 188.626 20.5211 188.334 20.6669C188.043 20.8127 187.663 20.8857 187.196 20.8857C186.593 20.8857 186.049 20.7448 185.565 20.4631C185.085 20.178 184.703 19.7588 184.422 19.2053C184.143 18.6484 184.004 17.964 184.004 17.152C184.004 16.34 184.142 15.6439 184.417 15.0639C184.695 14.4839 185.076 14.0398 185.56 13.7315C186.044 13.42 186.593 13.2642 187.206 13.2642C187.68 13.2642 188.063 13.3438 188.354 13.5028C188.646 13.6586 188.873 13.8409 189.035 14.0497C189.201 14.2585 189.329 14.4425 189.418 14.6016H189.528V13.3636H190.984V21.169C190.984 21.8253 190.832 22.3639 190.527 22.7848C190.222 23.2057 189.809 23.5173 189.289 23.7195C188.772 23.9216 188.189 24.0227 187.539 24.0227ZM187.524 19.6527C187.952 19.6527 188.313 19.5533 188.608 19.3544C188.906 19.1522 189.131 18.8639 189.284 18.4893C189.44 18.1115 189.518 17.6591 189.518 17.1321C189.518 16.6184 189.441 16.166 189.289 15.7749C189.136 15.3838 188.913 15.0788 188.618 14.8601C188.323 14.638 187.958 14.527 187.524 14.527C187.077 14.527 186.704 14.643 186.405 14.875C186.107 15.1037 185.882 15.4152 185.729 15.8097C185.58 16.2041 185.506 16.6449 185.506 17.1321C185.506 17.6326 185.582 18.0717 185.734 18.4496C185.887 18.8274 186.112 19.1224 186.41 19.3345C186.712 19.5466 187.083 19.6527 187.524 19.6527Z" fill="white"/>
<rect x="215.5" width="96" height="32" rx="16" fill="#9A6060"/>
<path d="M228.479 21V19.8864L231.925 16.3168C232.293 15.929 232.596 15.5893 232.835 15.2976C233.076 15.0026 233.257 14.7225 233.376 14.4574C233.496 14.1922 233.555 13.9105 233.555 13.6122C233.555 13.2741 233.476 12.9825 233.317 12.7372C233.158 12.4886 232.941 12.2981 232.665 12.1655C232.39 12.0296 232.08 11.9616 231.736 11.9616C231.371 11.9616 231.053 12.0362 230.781 12.1854C230.509 12.3345 230.301 12.545 230.155 12.8168C230.009 13.0885 229.936 13.4067 229.936 13.7713H228.469C228.469 13.1515 228.612 12.6096 228.897 12.1456C229.182 11.6816 229.573 11.322 230.07 11.0668C230.567 10.8082 231.133 10.679 231.766 10.679C232.405 10.679 232.969 10.8066 233.456 11.0618C233.946 11.3137 234.329 11.6584 234.604 12.0959C234.879 12.5301 235.017 13.0206 235.017 13.5675C235.017 13.9453 234.946 14.3149 234.803 14.6761C234.664 15.0374 234.42 15.4401 234.072 15.8842C233.724 16.325 233.241 16.8603 232.621 17.4901L230.597 19.608V19.6825H235.181V21H228.479ZM247.8 14.0348C247.704 13.7332 247.575 13.4631 247.412 13.2244C247.253 12.9825 247.063 12.777 246.841 12.608C246.619 12.4356 246.365 12.3047 246.08 12.2152C245.798 12.1257 245.488 12.081 245.15 12.081C244.577 12.081 244.06 12.2285 243.599 12.5234C243.139 12.8184 242.774 13.2509 242.506 13.821C242.24 14.3878 242.108 15.0821 242.108 15.9041C242.108 16.7294 242.242 17.4271 242.51 17.9972C242.779 18.5672 243.147 18.9998 243.614 19.2947C244.081 19.5897 244.613 19.7372 245.21 19.7372C245.764 19.7372 246.246 19.6245 246.657 19.3991C247.071 19.1738 247.391 18.8556 247.616 18.4446C247.845 18.0303 247.959 17.5431 247.959 16.983L248.357 17.0575H245.444V15.7898H249.446V16.9482C249.446 17.8033 249.264 18.5457 248.899 19.1754C248.538 19.8018 248.037 20.2857 247.398 20.6271C246.761 20.9685 246.032 21.1392 245.21 21.1392C244.289 21.1392 243.48 20.9271 242.784 20.5028C242.091 20.0786 241.551 19.477 241.163 18.6982C240.775 17.916 240.581 16.9879 240.581 15.9141C240.581 15.102 240.694 14.3729 240.92 13.7266C241.145 13.0803 241.461 12.5317 241.869 12.081C242.28 11.6269 242.762 11.2805 243.316 11.0419C243.873 10.8 244.481 10.679 245.14 10.679C245.691 10.679 246.203 10.7602 246.677 10.9226C247.154 11.085 247.578 11.3153 247.949 11.6136C248.324 11.9119 248.634 12.2666 248.879 12.6776C249.124 13.0852 249.29 13.5376 249.376 14.0348H247.8ZM254.568 21.1541C253.815 21.1541 253.167 20.9934 252.624 20.6719C252.084 20.3471 251.666 19.8913 251.371 19.3047C251.079 18.7147 250.934 18.0237 250.934 17.2315C250.934 16.4493 251.079 15.7599 251.371 15.1634C251.666 14.5668 252.077 14.1011 252.604 13.7663C253.134 13.4316 253.754 13.2642 254.463 13.2642C254.894 13.2642 255.312 13.3355 255.716 13.478C256.121 13.6205 256.484 13.8442 256.805 14.1491C257.127 14.4541 257.38 14.8501 257.566 15.3374C257.751 15.8213 257.844 16.4096 257.844 17.1023V17.6293H251.774V16.5156H256.387C256.387 16.1245 256.308 15.7782 256.149 15.4766C255.99 15.1716 255.766 14.9313 255.478 14.7557C255.193 14.58 254.858 14.4922 254.473 14.4922C254.056 14.4922 253.691 14.5949 253.38 14.8004C253.071 15.0026 252.833 15.2678 252.664 15.5959C252.498 15.9207 252.415 16.2737 252.415 16.6548V17.5249C252.415 18.0353 252.505 18.4695 252.684 18.8274C252.866 19.1854 253.119 19.4588 253.444 19.6477C253.769 19.8333 254.149 19.9261 254.583 19.9261C254.864 19.9261 255.121 19.8864 255.353 19.8068C255.585 19.724 255.786 19.6013 255.955 19.4389C256.124 19.2765 256.253 19.076 256.343 18.8374L257.75 19.0909C257.637 19.5052 257.435 19.8681 257.143 20.1797C256.855 20.4879 256.492 20.7282 256.054 20.9006C255.62 21.0696 255.125 21.1541 254.568 21.1541ZM260.98 10.8182V21H259.493V10.8182H260.98ZM266.196 21.1541C265.48 21.1541 264.856 20.9901 264.322 20.6619C263.788 20.3338 263.374 19.8748 263.079 19.2848C262.784 18.6948 262.637 18.0054 262.637 17.2166C262.637 16.4245 262.784 15.7318 263.079 15.1385C263.374 14.5452 263.788 14.0845 264.322 13.7564C264.856 13.4283 265.48 13.2642 266.196 13.2642C266.912 13.2642 267.537 13.4283 268.071 13.7564C268.604 14.0845 269.019 14.5452 269.314 15.1385C269.609 15.7318 269.756 16.4245 269.756 17.2166C269.756 18.0054 269.609 18.6948 269.314 19.2848C269.019 19.8748 268.604 20.3338 268.071 20.6619C267.537 20.9901 266.912 21.1541 266.196 21.1541ZM266.201 19.9062C266.665 19.9062 267.05 19.7836 267.355 19.5384C267.66 19.2931 267.885 18.9666 268.031 18.5589C268.18 18.1513 268.255 17.7022 268.255 17.2116C268.255 16.7244 268.18 16.277 268.031 15.8693C267.885 15.4583 267.66 15.1286 267.355 14.88C267.05 14.6314 266.665 14.5071 266.201 14.5071C265.734 14.5071 265.346 14.6314 265.038 14.88C264.733 15.1286 264.506 15.4583 264.357 15.8693C264.211 16.277 264.138 16.7244 264.138 17.2116C264.138 17.7022 264.211 18.1513 264.357 18.5589C264.506 18.9666 264.733 19.2931 265.038 19.5384C265.346 19.7836 265.734 19.9062 266.201 19.9062ZM264.735 12.1655C264.503 12.1655 264.299 12.0793 264.123 11.907C263.948 11.7313 263.86 11.5291 263.86 11.3004C263.86 11.0518 263.948 10.8447 264.123 10.679C264.299 10.5133 264.503 10.4304 264.735 10.4304C264.983 10.4304 265.19 10.5133 265.356 10.679C265.525 10.8447 265.61 11.0518 265.61 11.3004C265.61 11.5291 265.525 11.7313 265.356 11.907C265.19 12.0793 264.983 12.1655 264.735 12.1655ZM267.658 12.1655C267.426 12.1655 267.222 12.0793 267.047 11.907C266.871 11.7313 266.783 11.5291 266.783 11.3004C266.783 11.0518 266.871 10.8447 267.047 10.679C267.222 10.5133 267.426 10.4304 267.658 10.4304C267.907 10.4304 268.114 10.5133 268.279 10.679C268.449 10.8447 268.533 11.0518 268.533 11.3004C268.533 11.5291 268.449 11.7313 268.279 11.907C268.114 12.0793 267.907 12.1655 267.658 12.1655ZM277.138 15.228L275.79 15.4666C275.734 15.2943 275.644 15.1302 275.522 14.9744C275.403 14.8187 275.24 14.6911 275.035 14.5916C274.829 14.4922 274.572 14.4425 274.264 14.4425C273.843 14.4425 273.492 14.5369 273.21 14.7259C272.928 14.9115 272.787 15.1518 272.787 15.4467C272.787 15.7019 272.882 15.9074 273.071 16.0632C273.26 16.219 273.565 16.3466 273.986 16.446L275.199 16.7244C275.901 16.8868 276.425 17.1371 276.77 17.4751C277.114 17.8132 277.287 18.2524 277.287 18.7926C277.287 19.25 277.154 19.6577 276.889 20.0156C276.627 20.3703 276.261 20.6487 275.79 20.8509C275.323 21.053 274.781 21.1541 274.165 21.1541C273.309 21.1541 272.612 20.9718 272.072 20.6072C271.531 20.2393 271.2 19.7173 271.077 19.0412L272.514 18.8224C272.604 19.197 272.787 19.4804 273.066 19.6726C273.344 19.8615 273.707 19.956 274.155 19.956C274.642 19.956 275.031 19.8549 275.323 19.6527C275.615 19.4472 275.76 19.197 275.76 18.902C275.76 18.6634 275.671 18.4628 275.492 18.3004C275.316 18.138 275.046 18.0154 274.682 17.9325L273.389 17.6491C272.676 17.4867 272.149 17.2282 271.808 16.8736C271.47 16.5189 271.301 16.0698 271.301 15.5263C271.301 15.0755 271.427 14.6811 271.679 14.343C271.931 14.005 272.279 13.7415 272.723 13.5526C273.167 13.3603 273.676 13.2642 274.249 13.2642C275.074 13.2642 275.724 13.4432 276.198 13.8011C276.672 14.1558 276.985 14.6314 277.138 15.228ZM282.138 21.1541C281.399 21.1541 280.762 20.9867 280.229 20.652C279.698 20.3139 279.291 19.8482 279.006 19.255C278.721 18.6617 278.578 17.9822 278.578 17.2166C278.578 16.4411 278.724 15.7566 279.016 15.1634C279.307 14.5668 279.718 14.1011 280.249 13.7663C280.779 13.4316 281.404 13.2642 282.123 13.2642C282.703 13.2642 283.22 13.3719 283.674 13.5874C284.128 13.7995 284.494 14.0978 284.773 14.4822C285.054 14.8667 285.222 15.3158 285.275 15.8295H283.828C283.749 15.4716 283.566 15.1634 283.281 14.9048C283 14.6463 282.622 14.517 282.148 14.517C281.733 14.517 281.371 14.6264 281.059 14.8452C280.751 15.0606 280.51 15.3688 280.338 15.7699C280.166 16.1676 280.08 16.6383 280.08 17.1818C280.08 17.7386 280.164 18.2192 280.333 18.6236C280.502 19.0279 280.741 19.3411 281.049 19.5632C281.361 19.7853 281.727 19.8963 282.148 19.8963C282.429 19.8963 282.685 19.8449 282.913 19.7422C283.145 19.6361 283.339 19.4853 283.495 19.2898C283.654 19.0942 283.765 18.8589 283.828 18.5838H285.275C285.222 19.0777 285.061 19.5185 284.793 19.9062C284.524 20.294 284.165 20.599 283.714 20.821C283.266 21.0431 282.741 21.1541 282.138 21.1541ZM288.351 16.4659V21H286.865V10.8182H288.331V14.6065H288.426C288.605 14.1955 288.878 13.8691 289.246 13.6271C289.614 13.3852 290.094 13.2642 290.688 13.2642C291.211 13.2642 291.669 13.3719 292.06 13.5874C292.454 13.8028 292.759 14.1243 292.975 14.5518C293.193 14.9761 293.303 15.5064 293.303 16.1428V21H291.816V16.3217C291.816 15.7616 291.672 15.3274 291.384 15.0192C291.095 14.7076 290.694 14.5518 290.181 14.5518C289.829 14.5518 289.514 14.6264 289.236 14.7756C288.961 14.9247 288.744 15.1435 288.585 15.4318C288.429 15.7169 288.351 16.0616 288.351 16.4659ZM298.851 13.3636V14.5568H294.68V13.3636H298.851ZM295.798 11.5341H297.285V18.7578C297.285 19.0462 297.328 19.2633 297.414 19.4091C297.5 19.5516 297.611 19.6494 297.747 19.7024C297.887 19.7521 298.037 19.777 298.2 19.777C298.319 19.777 298.423 19.7687 298.513 19.7521C298.602 19.7356 298.672 19.7223 298.722 19.7124L298.99 20.9403C298.904 20.9735 298.781 21.0066 298.622 21.0398C298.463 21.0762 298.264 21.0961 298.026 21.0994C297.635 21.1061 297.27 21.0365 296.932 20.8906C296.594 20.7448 296.32 20.5194 296.112 20.2145C295.903 19.9096 295.798 19.5268 295.798 19.0661V11.5341Z" fill="white"/>
<rect x="322.5" width="115" height="32" rx="16" fill="#9A6060"/>
<path d="M335.479 21V19.8864L338.925 16.3168C339.293 15.929 339.596 15.5893 339.835 15.2976C340.076 15.0026 340.257 14.7225 340.376 14.4574C340.496 14.1922 340.555 13.9105 340.555 13.6122C340.555 13.2741 340.476 12.9825 340.317 12.7372C340.158 12.4886 339.941 12.2981 339.665 12.1655C339.39 12.0296 339.08 11.9616 338.736 11.9616C338.371 11.9616 338.053 12.0362 337.781 12.1854C337.509 12.3345 337.301 12.545 337.155 12.8168C337.009 13.0885 336.936 13.4067 336.936 13.7713H335.469C335.469 13.1515 335.612 12.6096 335.897 12.1456C336.182 11.6816 336.573 11.322 337.07 11.0668C337.567 10.8082 338.133 10.679 338.766 10.679C339.405 10.679 339.969 10.8066 340.456 11.0618C340.946 11.3137 341.329 11.6584 341.604 12.0959C341.879 12.5301 342.017 13.0206 342.017 13.5675C342.017 13.9453 341.946 14.3149 341.803 14.6761C341.664 15.0374 341.42 15.4401 341.072 15.8842C340.724 16.325 340.241 16.8603 339.621 17.4901L337.597 19.608V19.6825H342.181V21H335.479ZM354.8 14.0348C354.704 13.7332 354.575 13.4631 354.412 13.2244C354.253 12.9825 354.063 12.777 353.841 12.608C353.619 12.4356 353.365 12.3047 353.08 12.2152C352.798 12.1257 352.488 12.081 352.15 12.081C351.577 12.081 351.06 12.2285 350.599 12.5234C350.139 12.8184 349.774 13.2509 349.506 13.821C349.24 14.3878 349.108 15.0821 349.108 15.9041C349.108 16.7294 349.242 17.4271 349.51 17.9972C349.779 18.5672 350.147 18.9998 350.614 19.2947C351.081 19.5897 351.613 19.7372 352.21 19.7372C352.764 19.7372 353.246 19.6245 353.657 19.3991C354.071 19.1738 354.391 18.8556 354.616 18.4446C354.845 18.0303 354.959 17.5431 354.959 16.983L355.357 17.0575H352.444V15.7898H356.446V16.9482C356.446 17.8033 356.264 18.5457 355.899 19.1754C355.538 19.8018 355.037 20.2857 354.398 20.6271C353.761 20.9685 353.032 21.1392 352.21 21.1392C351.289 21.1392 350.48 20.9271 349.784 20.5028C349.091 20.0786 348.551 19.477 348.163 18.6982C347.775 17.916 347.581 16.9879 347.581 15.9141C347.581 15.102 347.694 14.3729 347.92 13.7266C348.145 13.0803 348.461 12.5317 348.869 12.081C349.28 11.6269 349.762 11.2805 350.316 11.0419C350.873 10.8 351.481 10.679 352.14 10.679C352.691 10.679 353.203 10.7602 353.677 10.9226C354.154 11.085 354.578 11.3153 354.949 11.6136C355.324 11.9119 355.634 12.2666 355.879 12.6776C356.124 13.0852 356.29 13.5376 356.376 14.0348H354.8ZM361.568 21.1541C360.815 21.1541 360.167 20.9934 359.624 20.6719C359.084 20.3471 358.666 19.8913 358.371 19.3047C358.079 18.7147 357.934 18.0237 357.934 17.2315C357.934 16.4493 358.079 15.7599 358.371 15.1634C358.666 14.5668 359.077 14.1011 359.604 13.7663C360.134 13.4316 360.754 13.2642 361.463 13.2642C361.894 13.2642 362.312 13.3355 362.716 13.478C363.121 13.6205 363.484 13.8442 363.805 14.1491C364.127 14.4541 364.38 14.8501 364.566 15.3374C364.751 15.8213 364.844 16.4096 364.844 17.1023V17.6293H358.774V16.5156H363.387C363.387 16.1245 363.308 15.7782 363.149 15.4766C362.99 15.1716 362.766 14.9313 362.478 14.7557C362.193 14.58 361.858 14.4922 361.473 14.4922C361.056 14.4922 360.691 14.5949 360.38 14.8004C360.071 15.0026 359.833 15.2678 359.664 15.5959C359.498 15.9207 359.415 16.2737 359.415 16.6548V17.5249C359.415 18.0353 359.505 18.4695 359.684 18.8274C359.866 19.1854 360.119 19.4588 360.444 19.6477C360.769 19.8333 361.149 19.9261 361.583 19.9261C361.864 19.9261 362.121 19.8864 362.353 19.8068C362.585 19.724 362.786 19.6013 362.955 19.4389C363.124 19.2765 363.253 19.076 363.343 18.8374L364.75 19.0909C364.637 19.5052 364.435 19.8681 364.143 20.1797C363.855 20.4879 363.492 20.7282 363.054 20.9006C362.62 21.0696 362.125 21.1541 361.568 21.1541ZM372.216 15.228L370.868 15.4666C370.812 15.2943 370.723 15.1302 370.6 14.9744C370.481 14.8187 370.318 14.6911 370.113 14.5916C369.907 14.4922 369.65 14.4425 369.342 14.4425C368.921 14.4425 368.57 14.5369 368.288 14.7259C368.006 14.9115 367.866 15.1518 367.866 15.4467C367.866 15.7019 367.96 15.9074 368.149 16.0632C368.338 16.219 368.643 16.3466 369.064 16.446L370.277 16.7244C370.979 16.8868 371.503 17.1371 371.848 17.4751C372.193 17.8132 372.365 18.2524 372.365 18.7926C372.365 19.25 372.232 19.6577 371.967 20.0156C371.705 20.3703 371.339 20.6487 370.868 20.8509C370.401 21.053 369.859 21.1541 369.243 21.1541C368.388 21.1541 367.69 20.9718 367.15 20.6072C366.609 20.2393 366.278 19.7173 366.155 19.0412L367.592 18.8224C367.682 19.197 367.866 19.4804 368.144 19.6726C368.422 19.8615 368.785 19.956 369.233 19.956C369.72 19.956 370.109 19.8549 370.401 19.6527C370.693 19.4472 370.839 19.197 370.839 18.902C370.839 18.6634 370.749 18.4628 370.57 18.3004C370.394 18.138 370.124 18.0154 369.76 17.9325L368.467 17.6491C367.755 17.4867 367.228 17.2282 366.886 16.8736C366.548 16.5189 366.379 16.0698 366.379 15.5263C366.379 15.0755 366.505 14.6811 366.757 14.343C367.009 14.005 367.357 13.7415 367.801 13.5526C368.245 13.3603 368.754 13.2642 369.327 13.2642C370.153 13.2642 370.802 13.4432 371.276 13.8011C371.75 14.1558 372.063 14.6314 372.216 15.228ZM377.216 21.1541C376.477 21.1541 375.84 20.9867 375.307 20.652C374.777 20.3139 374.369 19.8482 374.084 19.255C373.799 18.6617 373.656 17.9822 373.656 17.2166C373.656 16.4411 373.802 15.7566 374.094 15.1634C374.385 14.5668 374.796 14.1011 375.327 13.7663C375.857 13.4316 376.482 13.2642 377.201 13.2642C377.781 13.2642 378.298 13.3719 378.752 13.5874C379.206 13.7995 379.572 14.0978 379.851 14.4822C380.133 14.8667 380.3 15.3158 380.353 15.8295H378.906C378.827 15.4716 378.644 15.1634 378.359 14.9048C378.078 14.6463 377.7 14.517 377.226 14.517C376.812 14.517 376.449 14.6264 376.137 14.8452C375.829 15.0606 375.589 15.3688 375.416 15.7699C375.244 16.1676 375.158 16.6383 375.158 17.1818C375.158 17.7386 375.242 18.2192 375.411 18.6236C375.58 19.0279 375.819 19.3411 376.127 19.5632C376.439 19.7853 376.805 19.8963 377.226 19.8963C377.508 19.8963 377.763 19.8449 377.991 19.7422C378.223 19.6361 378.417 19.4853 378.573 19.2898C378.732 19.0942 378.843 18.8589 378.906 18.5838H380.353C380.3 19.0777 380.139 19.5185 379.871 19.9062C379.602 20.294 379.243 20.599 378.792 20.821C378.344 21.0431 377.819 21.1541 377.216 21.1541ZM383.429 16.4659V21H381.943V10.8182H383.409V14.6065H383.504C383.683 14.1955 383.956 13.8691 384.324 13.6271C384.692 13.3852 385.173 13.2642 385.766 13.2642C386.289 13.2642 386.747 13.3719 387.138 13.5874C387.532 13.8028 387.837 14.1243 388.053 14.5518C388.271 14.9761 388.381 15.5064 388.381 16.1428V21H386.894V16.3217C386.894 15.7616 386.75 15.3274 386.462 15.0192C386.173 14.7076 385.772 14.5518 385.259 14.5518C384.907 14.5518 384.593 14.6264 384.314 14.7756C384.039 14.9247 383.822 15.1435 383.663 15.4318C383.507 15.7169 383.429 16.0616 383.429 16.4659ZM393.656 21.1541C392.903 21.1541 392.255 20.9934 391.712 20.6719C391.172 20.3471 390.754 19.8913 390.459 19.3047C390.167 18.7147 390.021 18.0237 390.021 17.2315C390.021 16.4493 390.167 15.7599 390.459 15.1634C390.754 14.5668 391.165 14.1011 391.692 13.7663C392.222 13.4316 392.842 13.2642 393.551 13.2642C393.982 13.2642 394.4 13.3355 394.804 13.478C395.209 13.6205 395.571 13.8442 395.893 14.1491C396.214 14.4541 396.468 14.8501 396.654 15.3374C396.839 15.8213 396.932 16.4096 396.932 17.1023V17.6293H390.862V16.5156H395.475C395.475 16.1245 395.396 15.7782 395.237 15.4766C395.078 15.1716 394.854 14.9313 394.566 14.7557C394.28 14.58 393.946 14.4922 393.561 14.4922C393.144 14.4922 392.779 14.5949 392.468 14.8004C392.159 15.0026 391.921 15.2678 391.752 15.5959C391.586 15.9207 391.503 16.2737 391.503 16.6548V17.5249C391.503 18.0353 391.593 18.4695 391.771 18.8274C391.954 19.1854 392.207 19.4588 392.532 19.6477C392.857 19.8333 393.236 19.9261 393.671 19.9261C393.952 19.9261 394.209 19.8864 394.441 19.8068C394.673 19.724 394.874 19.6013 395.043 19.4389C395.212 19.2765 395.341 19.076 395.431 18.8374L396.838 19.0909C396.725 19.5052 396.523 19.8681 396.231 20.1797C395.943 20.4879 395.58 20.7282 395.142 20.9006C394.708 21.0696 394.213 21.1541 393.656 21.1541ZM398.581 21V13.3636H400.068V21H398.581ZM399.332 12.1854C399.074 12.1854 398.851 12.0992 398.666 11.9268C398.484 11.7512 398.392 11.5424 398.392 11.3004C398.392 11.0552 398.484 10.8464 398.666 10.674C398.851 10.4983 399.074 10.4105 399.332 10.4105C399.591 10.4105 399.811 10.4983 399.993 10.674C400.179 10.8464 400.272 11.0552 400.272 11.3004C400.272 11.5424 400.179 11.7512 399.993 11.9268C399.811 12.0992 399.591 12.1854 399.332 12.1854ZM405.632 13.3636V14.5568H401.461V13.3636H405.632ZM402.58 11.5341H404.066V18.7578C404.066 19.0462 404.109 19.2633 404.195 19.4091C404.282 19.5516 404.393 19.6494 404.529 19.7024C404.668 19.7521 404.819 19.777 404.981 19.777C405.1 19.777 405.205 19.7687 405.294 19.7521C405.384 19.7356 405.453 19.7223 405.503 19.7124L405.771 20.9403C405.685 20.9735 405.563 21.0066 405.404 21.0398C405.244 21.0762 405.046 21.0961 404.807 21.0994C404.416 21.1061 404.051 21.0365 403.713 20.8906C403.375 20.7448 403.102 20.5194 402.893 20.2145C402.684 19.9096 402.58 19.5268 402.58 19.0661V11.5341ZM410.486 21.1541C409.733 21.1541 409.085 20.9934 408.542 20.6719C408.002 20.3471 407.584 19.8913 407.289 19.3047C406.997 18.7147 406.852 18.0237 406.852 17.2315C406.852 16.4493 406.997 15.7599 407.289 15.1634C407.584 14.5668 407.995 14.1011 408.522 13.7663C409.052 13.4316 409.672 13.2642 410.381 13.2642C410.812 13.2642 411.23 13.3355 411.634 13.478C412.039 13.6205 412.402 13.8442 412.723 14.1491C413.045 14.4541 413.298 14.8501 413.484 15.3374C413.669 15.8213 413.762 16.4096 413.762 17.1023V17.6293H407.692V16.5156H412.305C412.305 16.1245 412.226 15.7782 412.067 15.4766C411.908 15.1716 411.684 14.9313 411.396 14.7557C411.111 14.58 410.776 14.4922 410.391 14.4922C409.974 14.4922 409.609 14.5949 409.298 14.8004C408.989 15.0026 408.751 15.2678 408.582 15.5959C408.416 15.9207 408.333 16.2737 408.333 16.6548V17.5249C408.333 18.0353 408.423 18.4695 408.602 18.8274C408.784 19.1854 409.037 19.4588 409.362 19.6477C409.687 19.8333 410.067 19.9261 410.501 19.9261C410.782 19.9261 411.039 19.8864 411.271 19.8068C411.503 19.724 411.704 19.6013 411.873 19.4389C412.042 19.2765 412.171 19.076 412.261 18.8374L413.668 19.0909C413.555 19.5052 413.353 19.8681 413.061 20.1797C412.773 20.4879 412.41 20.7282 411.972 20.9006C411.538 21.0696 411.043 21.1541 410.486 21.1541ZM415.411 21V13.3636H416.848V14.5767H416.928C417.067 14.1657 417.312 13.8426 417.664 13.6072C418.018 13.3686 418.419 13.2493 418.867 13.2493C418.959 13.2493 419.069 13.2526 419.195 13.2592C419.324 13.2659 419.425 13.2741 419.498 13.2841V14.706C419.438 14.6894 419.332 14.6712 419.18 14.6513C419.027 14.6281 418.875 14.6165 418.722 14.6165C418.371 14.6165 418.058 14.6911 417.783 14.8402C417.511 14.986 417.296 15.1899 417.137 15.4517C416.977 15.7102 416.898 16.0052 416.898 16.3366V21H415.411ZM424.8 13.3636V14.5568H420.629V13.3636H424.8ZM421.748 11.5341H423.234V18.7578C423.234 19.0462 423.277 19.2633 423.363 19.4091C423.45 19.5516 423.561 19.6494 423.697 19.7024C423.836 19.7521 423.987 19.777 424.149 19.777C424.268 19.777 424.373 19.7687 424.462 19.7521C424.552 19.7356 424.621 19.7223 424.671 19.7124L424.939 20.9403C424.853 20.9735 424.731 21.0066 424.572 21.0398C424.412 21.0762 424.214 21.0961 423.975 21.0994C423.584 21.1061 423.219 21.0365 422.881 20.8906C422.543 20.7448 422.27 20.5194 422.061 20.2145C421.852 19.9096 421.748 19.5268 421.748 19.0661V11.5341Z" fill="white"/>
</svg>
