<svg width="25" height="25" viewBox="0 0 25 25" fill="none" xmlns="http://www.w3.org/2000/svg">
<mask id="mask0_3191_6575" style="mask-type:alpha" maskUnits="userSpaceOnUse" x="0" y="0" width="25" height="25">
<circle cx="12.5" cy="12.5" r="12.5" fill="#D9D9D9"/>
</mask>
<g mask="url(#mask0_3191_6575)">
<path d="M-5 21C-5 22.0609 -4.57857 23.0783 -3.82843 23.8284C-3.07828 24.5786 -2.06087 25 -1 25H27C28.0609 25 29.0783 24.5786 29.8284 23.8284C30.5786 23.0783 31 22.0609 31 21V17H-5V21Z" fill="#FFCD05"/>
<path d="M-5 8H31V17H-5V8Z" fill="#ED1F24"/>
<path d="M27 -1H-1C-2.06087 -1 -3.07828 -0.578573 -3.82843 0.171573C-4.57857 0.921718 -5 1.93913 -5 3L-5 8H31V3C31 1.93913 30.5786 0.921718 29.8284 0.171573C29.0783 -0.578573 28.0609 -1 27 -1Z" fill="#141414"/>
</g>
</svg>
