<svg width="211" height="37" viewBox="0 0 211 37" fill="none" xmlns="http://www.w3.org/2000/svg">
<path d="M51.3637 31.283C49.7287 31.283 48.1406 30.9713 46.5995 30.3438C45.0584 29.7163 43.7735 28.871 42.7489 27.808L44.3028 25.6223C45.1523 26.5316 46.2068 27.2701 47.4704 27.8336C48.734 28.3971 50.0317 28.6789 51.3637 28.6789C52.8237 28.6789 54.0488 28.3417 55.0435 27.6629C56.0382 26.9841 56.5334 26.1261 56.5334 25.0802C56.5334 24.7899 56.4864 24.5124 56.3925 24.2477C56.2986 23.9831 56.1919 23.7525 56.0681 23.5476C55.9443 23.347 55.7564 23.1506 55.5088 22.9585C55.2612 22.7664 55.0478 22.6084 54.8642 22.4846C54.6849 22.3608 54.416 22.2285 54.0659 22.0876C53.7159 21.9467 53.4469 21.8443 53.2676 21.776C53.0883 21.7077 52.798 21.6223 52.3967 21.5113C51.9997 21.4046 51.7351 21.332 51.6113 21.3021C51.4875 21.2723 51.2356 21.2125 50.8514 21.1314C50.0659 20.9649 49.3316 20.7685 48.6571 20.5337C47.9784 20.2989 47.3124 20.0001 46.655 19.633C45.9976 19.2658 45.4383 18.856 44.9773 18.4078C44.5162 17.9553 44.1491 17.4131 43.8674 16.7685C43.5856 16.1282 43.449 15.4323 43.449 14.6895C43.449 12.8709 44.1747 11.3939 45.6305 10.2669C47.0819 9.13987 48.9602 8.57635 51.2569 8.57635C52.7682 8.57635 54.1513 8.82395 55.4106 9.32342C56.6657 9.81862 57.6903 10.4931 58.4758 11.3426L57.0798 13.5155C56.4779 12.8539 55.6497 12.2989 54.5867 11.8549C53.528 11.4109 52.4053 11.189 51.2271 11.189C49.8396 11.189 48.6956 11.5091 47.7905 12.1452C46.8855 12.7813 46.433 13.5966 46.433 14.5913C46.433 16.3928 48.1833 17.6522 51.6796 18.3779C52.0638 18.4505 52.4309 18.5316 52.7895 18.6255C53.1481 18.7194 53.6006 18.856 54.1556 19.0439C54.7105 19.2317 55.2143 19.4366 55.6753 19.6586C56.1364 19.8806 56.6102 20.1666 57.1054 20.5209C57.5963 20.8752 58.0147 21.2552 58.3562 21.6607C58.6977 22.0705 58.9795 22.5572 59.2015 23.125C59.4235 23.6928 59.5345 24.3032 59.5345 24.9564C59.5345 26.8091 58.7575 28.3288 57.1993 29.5113C55.6369 30.6896 53.6945 31.283 51.3637 31.283Z" fill="#5A9E87"/>
<path d="M71.8675 17.1567H66.9923V26.1258C66.9923 27.8035 67.8632 28.6402 69.6007 28.6402C70.3563 28.6402 71.1119 28.4396 71.8675 28.0341V30.6082C71.0478 31.0522 70.1044 31.2742 69.0286 31.2742C67.4662 31.2742 66.2837 30.8644 65.4768 30.049C64.67 29.2294 64.2645 28.0682 64.2645 26.557V17.1525H61.3445V14.685H64.2645V10.3264H66.9966V14.685H71.8717V17.1567H71.8675Z" fill="#5A9E87"/>
<path d="M90.6423 22.7918C90.6423 22.9455 90.6167 23.3511 90.5655 24.0042H76.6145C76.892 25.4343 77.575 26.5827 78.6551 27.4578C79.7351 28.3329 81.0585 28.7684 82.621 28.7684C83.7779 28.7684 84.8451 28.5208 85.8184 28.0298C86.7917 27.5389 87.5516 26.9028 88.098 26.1301L89.9764 27.7438C89.161 28.8409 88.1023 29.7033 86.8045 30.3351C85.5068 30.9669 84.0809 31.2828 82.527 31.2828C79.9913 31.2828 77.8824 30.4674 76.1962 28.8324C74.5099 27.1974 73.6689 25.1654 73.6689 22.732C73.6689 21.1611 74.0403 19.731 74.7789 18.4417C75.5174 17.1525 76.542 16.1408 77.844 15.4065C79.146 14.6723 80.5975 14.3051 82.1898 14.3051C83.7736 14.3051 85.2122 14.6723 86.5057 15.4065C87.7992 16.1408 88.811 17.1568 89.5495 18.4546C90.2752 19.7523 90.6423 21.1995 90.6423 22.7918ZM82.1556 16.8153C80.7469 16.8153 79.5345 17.2507 78.5099 18.1258C77.4854 19.001 76.845 20.1323 76.5846 21.5154H87.7437C87.4833 20.1066 86.843 18.9711 85.8184 18.1088C84.7939 17.2507 83.5729 16.8153 82.1556 16.8153Z" fill="#5A9E87"/>
<path d="M102.395 14.4247H102.937V17.2508H102.395C100.687 17.2508 99.3383 17.7502 98.3522 18.7492C97.3618 19.7481 96.8709 21.0971 96.8709 22.7919V30.8944H94.1387V14.6937H96.8709V17.4856C98.1387 15.445 99.9829 14.4247 102.395 14.4247Z" fill="#5A9E87"/>
<path d="M114.45 14.3008C116.427 14.3008 118.015 14.9028 119.223 16.1024C120.431 17.3019 121.033 18.8943 121.033 20.8836V30.8943H118.301V21.7374C118.301 20.2902 117.87 19.129 117.012 18.2539C116.154 17.3788 115.005 16.9433 113.567 16.9433C112.068 16.9433 110.864 17.3873 109.968 18.2795C109.067 19.1717 108.619 20.3414 108.619 21.8014V30.8943H105.887V14.6936H108.619V17.1611C109.929 15.2528 111.876 14.3008 114.45 14.3008Z" fill="#5A9E87"/>
<path d="M141.379 22.7918C141.379 22.9455 141.353 23.3511 141.302 24.0042H127.351C127.629 25.4343 128.312 26.5827 129.392 27.4578C130.472 28.3329 131.795 28.7684 133.358 28.7684C134.514 28.7684 135.582 28.5208 136.555 28.0298C137.528 27.5389 138.288 26.9028 138.835 26.1301L140.713 27.7438C139.893 28.8409 138.839 29.7033 137.537 30.3351C136.239 30.9669 134.813 31.2828 133.264 31.2828C130.728 31.2828 128.619 30.4674 126.933 28.8324C125.247 27.1974 124.401 25.1654 124.401 22.732C124.401 21.1611 124.773 19.731 125.511 18.4417C126.25 17.1525 127.274 16.1408 128.576 15.4065C129.878 14.6723 131.33 14.3051 132.922 14.3051C134.506 14.3051 135.945 14.6723 137.238 15.4065C138.532 16.1408 139.548 17.1568 140.282 18.4546C141.012 19.7523 141.379 21.1995 141.379 22.7918ZM132.888 16.8153C131.479 16.8153 130.267 17.2507 129.242 18.1258C128.218 19.001 127.577 20.1323 127.317 21.5154H138.476C138.216 20.1066 137.575 18.9711 136.551 18.1088C135.526 17.2507 134.305 16.8153 132.888 16.8153Z" fill="#5A9E87"/>
<path d="M153.947 14.301C155.808 14.301 157.311 14.8602 158.446 15.983C159.586 17.1057 160.154 18.5998 160.154 20.4611V30.8902H155.513V22.0278C155.513 21.046 155.227 20.2605 154.66 19.6671C154.092 19.078 153.336 18.7834 152.393 18.7834C151.39 18.7834 150.579 19.0865 149.955 19.6927C149.332 20.2989 149.025 21.0972 149.025 22.0919V30.8902H144.384V8H149.025V16.3971C150.331 15.0011 151.97 14.301 153.947 14.301Z" fill="#1E624B"/>
<path d="M179.74 22.8559C179.74 23.4151 179.71 23.9017 179.646 24.3158H167.573C167.864 25.2251 168.376 25.9423 169.11 26.4589C169.845 26.9754 170.72 27.2358 171.731 27.2358C172.602 27.2358 173.392 27.0651 174.105 26.7235C174.818 26.382 175.381 25.9551 175.795 25.4343L178.916 28.1323C178.037 29.127 176.965 29.8996 175.702 30.4546C174.438 31.0096 173.072 31.2828 171.603 31.2828C169.029 31.2828 166.878 30.4631 165.153 28.8239C163.433 27.1846 162.57 25.144 162.57 22.7022C162.57 21.1397 162.946 19.7182 163.697 18.4332C164.449 17.1482 165.486 16.1408 166.809 15.4065C168.133 14.6723 169.601 14.3051 171.215 14.3051C173.648 14.3051 175.676 15.1162 177.298 16.7427C178.929 18.3649 179.74 20.4012 179.74 22.8559ZM171.159 18.3051C170.288 18.3051 169.529 18.5655 168.88 19.0906C168.227 19.6114 167.783 20.3244 167.544 21.2251H174.822C174.562 20.3158 174.109 19.5986 173.456 19.0821C172.803 18.5655 172.039 18.3051 171.159 18.3051Z" fill="#1E624B"/>
<path d="M191.428 14.4247H192.128V19.1889H191.428C190.032 19.1889 188.952 19.5603 188.192 20.3073C187.433 21.0544 187.053 22.0619 187.053 23.334V30.8901H182.412V14.6894H187.053V16.5208C188.252 15.1248 189.712 14.4247 191.428 14.4247Z" fill="#1E624B"/>
<path d="M201.934 31.2828C199.441 31.2828 197.358 30.4717 195.689 28.8452C194.02 27.223 193.183 25.2038 193.183 22.7918C193.183 20.3799 194.02 18.3649 195.689 16.7384C197.358 15.1162 199.441 14.3008 201.934 14.3008C203.578 14.3008 205.068 14.6723 206.404 15.4108C207.74 16.1493 208.786 17.1696 209.537 18.4674C210.293 19.7651 210.673 21.208 210.673 22.7875C210.673 24.3713 210.293 25.81 209.537 27.112C208.782 28.4098 207.736 29.4301 206.404 30.1686C205.068 30.9114 203.578 31.2828 201.934 31.2828ZM199.095 25.6478C199.851 26.4119 200.799 26.7961 201.934 26.7961C203.074 26.7961 204.017 26.4119 204.773 25.6478C205.529 24.8836 205.904 23.9316 205.904 22.7918C205.904 21.652 205.529 20.7043 204.773 19.9359C204.017 19.1717 203.07 18.7875 201.934 18.7875C200.794 18.7875 199.847 19.1717 199.095 19.9359C198.34 20.7 197.964 21.652 197.964 22.7918C197.964 23.9316 198.34 24.8836 199.095 25.6478Z" fill="#1E624B"/>
<path d="M11.226 22.1534L0 13.957L19.8776 13.954L6.93936 16.1727L13.5954 21.1315L14.3008 21.656L14.355 21.6952L13.6376 23.9983C13.5682 24.0375 13.4989 24.0797 13.4296 24.1189C12.1906 24.8695 11.3948 25.4573 10.7859 25.8552L11.7143 23.0065L11.847 22.6026L11.226 22.1534Z" fill="#1E624B"/>
<path d="M19.7178 26.5305C19.6575 26.7596 19.5279 26.9706 19.3259 27.1274L7.34631 36.415L10.4121 27.0188C10.8612 26.8169 11.3224 26.5003 11.9012 26.1054C12.278 25.8492 12.7242 25.5448 13.2698 25.1981L11.6329 30.4554L17.9573 25.388C18.2739 25.1348 18.6899 25.0805 19.0486 25.2192C19.2023 25.2765 19.341 25.3699 19.4585 25.4965C19.6786 25.7316 19.7751 26.0331 19.754 26.3285C19.7449 26.3979 19.7329 26.4642 19.7178 26.5305Z" fill="#5A9E87"/>
<path d="M22.048 9.12185C21.4632 9.75188 20.6704 10.5869 20.2966 10.9848L19.13 7.34029L17.4599 12.4649H15.0724L19.13 0L22.048 9.12185Z" fill="#5A9E87"/>
<path d="M30.977 36.4151L19.3411 28.0016L26.6874 30.6484L24.5169 23.917L26.7326 23.4106L30.977 36.4151Z" fill="#5A9E87"/>
<path d="M38.9743 15.6542C38.7543 15.7567 38.5101 15.8712 38.2508 15.9828C36.9908 16.5495 35.381 17.1946 34.5279 17.2489C34.3712 17.2579 34.2385 17.2489 34.1361 17.2127C34.0728 17.1916 34.0064 17.1615 33.9401 17.1223C32.8639 16.5284 31.2934 14.15 31.2934 14.15C31.2934 14.15 30.3016 14.4183 29.2797 14.78C29.0566 14.8614 28.8336 14.9458 28.6165 15.0332C27.9744 15.2894 27.4107 15.5728 27.1877 15.8321C27.1877 15.8321 27.3414 15.9617 27.5916 16.1787C27.9835 16.5163 28.6105 17.065 29.2496 17.6558C29.8615 18.2165 30.4795 18.8134 30.9136 19.2987C31.0221 19.4193 31.1186 19.5308 31.1999 19.6363C31.3235 19.7901 31.414 19.9257 31.4622 20.0312C31.4803 20.0674 31.4923 20.1036 31.4984 20.1307C31.5496 20.3658 31.3145 20.6854 30.8623 21.0321C30.6212 21.2189 30.3167 21.4119 29.958 21.6018C29.0747 22.0781 27.878 22.5393 26.5425 22.8377C25.9457 22.9704 25.3247 23.0759 24.6886 23.1301C24.547 23.1422 24.4113 23.1633 24.2787 23.1844C23.3261 23.3532 22.6448 23.7843 22.1414 24.3239C22.1354 24.3329 22.1263 24.342 22.1173 24.348C21.5415 24.9509 20.803 25.3639 19.9951 25.5176C19.8775 25.5387 19.8052 25.397 19.8866 25.3157C20.0855 25.1167 20.3779 24.8092 20.6975 24.4294C21.231 23.7873 21.8309 22.9342 22.1595 22.0329C22.1926 21.9454 22.3042 21.9213 22.3675 21.9876C22.3795 21.9997 22.3946 22.0118 22.4067 22.0238C22.6629 22.265 23.1965 22.6056 24.0164 22.3584C24.2304 22.2951 24.4686 22.1896 24.7248 22.0298C26.22 21.1044 27.058 20.4894 27.7936 20.2302C27.8689 20.2031 27.8659 20.0945 27.7906 20.0734C27.5072 19.9921 27.0339 19.8443 26.5275 19.6273C26.0934 19.4404 25.6352 19.2023 25.2493 18.9099C24.8062 18.5722 24.1912 18.5752 23.7572 18.9219C23.5371 19.0967 23.2869 19.2957 23.0186 19.5067C21.641 20.5919 19.8112 21.9937 19.4736 22.0449C18.934 22.1293 16.4832 22.3222 13.6375 23.9862C13.5682 24.0254 13.4988 24.0646 13.4295 24.1068C12.1905 24.8574 11.3947 25.4453 10.7858 25.8432C10.1256 26.2712 9.67948 26.4762 9.11878 26.425C8.90475 26.4039 8.79924 26.1537 8.93791 25.9879C9.4564 25.3729 10.5055 24.0586 10.7406 23.2176C10.7888 23.0487 10.9516 22.9402 11.1264 22.9583C11.2892 22.9764 11.4942 22.9915 11.7173 22.9945C12.278 23.0005 12.9321 22.9251 13.1974 22.5694C13.3843 22.3222 13.7611 21.9846 14.3007 21.644C15.2292 21.0562 16.6399 20.4563 18.3582 20.2905C18.3582 20.2905 20.0644 17.6347 21.855 15.8351C21.858 15.8321 21.861 15.829 21.8641 15.826C22.7955 14.8915 23.7451 14.1892 24.4897 14.2163C24.8032 14.2283 25.0564 14.1741 25.2644 14.0716C25.9487 13.737 26.1567 12.8748 26.4762 11.9916C26.7234 11.3043 27.043 10.6079 27.7031 10.1407H27.7061C27.7061 10.1407 27.7092 10.1407 27.7092 10.1377C27.7393 10.1166 27.7664 10.0985 27.7966 10.0804C27.7966 10.0804 27.7845 10.0744 27.7604 10.0653C27.5976 9.99298 26.9043 9.65837 26.1476 8.9982C26.1476 8.9982 25.7377 9.83622 24.547 10.0804C24.4475 10.1015 24.342 10.1166 24.2335 10.1286C22.7955 10.2733 23.8205 12.1604 23.1995 12.492C23.1814 12.501 23.1603 12.5101 23.1392 12.5161C22.4609 12.7512 20.598 11.6057 21.1557 10.8823C21.6772 10.207 21.7857 10.3999 22.3343 10.005C22.3946 9.95981 22.4609 9.90858 22.5363 9.84829C22.7564 9.66742 23.0879 9.35089 23.4617 9.00121C24.3239 8.19031 25.4031 7.19854 25.7799 7.26788C25.9095 7.29199 26.2471 7.36132 26.6842 7.46382L26.6903 7.46683C27.0761 7.56028 27.4499 7.70498 27.7966 7.8979C28.1493 8.09385 28.5231 8.30185 28.8939 8.51588C29.4244 8.82034 29.958 9.13686 30.4433 9.44434C30.4523 9.45037 30.4614 9.4564 30.4704 9.46243C30.6151 9.55286 30.7538 9.6433 30.8864 9.73072C31.209 9.63727 31.5948 9.51066 31.8481 9.36597C31.8993 9.33884 31.9445 9.30869 31.9807 9.27855C32.3726 8.96805 31.1909 7.70498 33.5935 7.13223C33.708 7.1051 33.8346 7.07796 33.9733 7.05385L35.7368 6.80365C35.6945 7.72006 35.3931 7.94915 35.3931 7.94915C35.3931 7.94915 35.7639 9.05547 36.195 9.33582L35.8875 9.50162L35.4504 9.73675C35.4504 9.73675 35.5016 10.1648 35.5227 10.5748C35.5318 10.7918 35.3479 10.9636 35.1339 10.9335C34.8716 10.9003 34.54 10.8461 34.3139 10.7707C34.133 10.7074 33.8105 10.8732 33.506 11.0782C33.1141 11.3404 32.7494 11.6751 32.7494 11.6751C32.7494 11.6751 33.6507 12.8839 34.2385 13.9902C34.4556 14.4002 34.6274 14.7951 34.6968 15.1086C34.7179 15.1236 34.7329 15.1327 34.754 15.1448C34.9982 15.1026 36.1075 14.9096 37.0631 14.7468C37.1385 14.7348 37.2139 14.7227 37.2862 14.7107C37.5183 14.6715 37.7384 14.6353 37.9223 14.6051L37.865 14.2916L37.8047 13.957C37.8047 13.957 37.8047 13.954 37.8047 13.951C37.7323 13.5441 38.0006 13.1522 38.4076 13.0708C38.6819 13.0165 38.9803 12.9592 39.2034 12.9201C39.4084 12.8809 39.5531 12.8598 39.5652 12.8658C39.5772 12.8748 39.6345 13.113 39.7038 13.4355L39.8184 13.9661C39.957 14.6624 39.6104 15.3588 38.9743 15.6542Z" fill="#1E624B"/>
</svg>
