<svg width="19" height="21" viewBox="0 0 19 21" fill="none" xmlns="http://www.w3.org/2000/svg">
<path d="M15.8641 2.63606C17.5164 4.28819 18.4614 6.51817 18.4993 8.85447C18.5372 11.1908 17.6649 13.4502 16.0671 15.1551L15.8641 15.3651L11.6211 19.6071C11.0827 20.1451 10.3599 20.4584 9.59921 20.4834C8.83849 20.5085 8.09668 20.2435 7.52406 19.7421L7.38006 19.6071L3.13606 15.3641C1.44822 13.6762 0.5 11.387 0.5 9.00006C0.5 6.61309 1.44822 4.32389 3.13606 2.63606C4.82389 0.948218 7.11309 0 9.50006 0C11.887 0 14.1762 0.948218 15.8641 2.63606ZM9.50006 6.00006C9.10609 6.00006 8.71598 6.07765 8.35201 6.22842C7.98803 6.37918 7.65731 6.60016 7.37873 6.87873C7.10016 7.15731 6.87918 7.48803 6.72842 7.85201C6.57765 8.21598 6.50006 8.60609 6.50006 9.00006C6.50006 9.39402 6.57765 9.78413 6.72842 10.1481C6.87918 10.5121 7.10016 10.8428 7.37873 11.1214C7.65731 11.4 7.98803 11.6209 8.35201 11.7717C8.71598 11.9225 9.10609 12.0001 9.50006 12.0001C10.2957 12.0001 11.0588 11.684 11.6214 11.1214C12.184 10.5588 12.5001 9.7957 12.5001 9.00006C12.5001 8.20441 12.184 7.44134 11.6214 6.87873C11.0588 6.31613 10.2957 6.00006 9.50006 6.00006Z" fill="#4D5761"/>
</svg>
